<svg version="1.1" xmlns="http://www.w3.org/2000/svg" xmlns:xlink="http://www.w3.org/1999/xlink" width="53.31191" height="52.43022" viewBox="0,0,53.31191,52.43022"><defs><radialGradient cx="240.00001" cy="180" r="26.40596" gradientUnits="userSpaceOnUse" id="color-1"><stop offset="0" stop-color="#fafafa"/><stop offset="1" stop-color="#1499ff"/></radialGradient><linearGradient x1="217.00856" y1="178.62991" x2="301.18145" y2="178.62991" gradientUnits="userSpaceOnUse" id="color-2"><stop offset="0" stop-color="#d1d2d3"/><stop offset="1" stop-color="#a4a5a8"/></linearGradient><radialGradient cx="240" cy="180" r="22.99145" gradientUnits="userSpaceOnUse" id="color-3"><stop offset="0" stop-color="#0090ff"/><stop offset="1" stop-color="#ffffff"/></radialGradient></defs><g transform="translate(-213.34405,-153.78489)"><g stroke-miterlimit="10"><path d="M266.40596,197.36011c0,4.752 -3.854,8.605 -8.605,8.605h-35.60291c-4.752,0 -8.604,-3.854 -8.604,-8.605v-34.72122c0,-4.752 3.852,-8.604 8.604,-8.604h35.60191c4.754,0 8.605,3.852 8.605,8.604z" fill="url(#color-1)" stroke="#000000" stroke-width="0.5" stroke-linecap="butt"/><path d="M262.99145,197.36061c0,2.862 -2.327,5.19 -5.191,5.19h-35.60191c-2.861,0 -5.19,-2.328 -5.19,-5.19v-34.72122c0,-2.862 2.329,-5.19 5.19,-5.19h35.60191c2.40858,0 4.43736,1.6472 5.02167,3.87335c0.11048,0.42093 0.16933,36.03787 0.16933,36.03787z" fill="url(#color-2)" stroke="none" stroke-width="1" stroke-linecap="butt"/><path d="M262.99145,197.36061c0,2.862 -2.327,5.19 -5.191,5.19h-35.60191c-2.861,0 -5.19,-2.328 -5.19,-5.19v-34.72122c0,-2.862 2.329,-5.19 5.19,-5.19h35.60191c2.40858,0 4.43736,1.6472 5.02167,3.87335c0.11048,0.42093 0.16933,36.03787 0.16933,36.03787z" fill="url(#color-3)" stroke="#000000" stroke-width="0.5" stroke-linecap="butt"/><path d="M259.36197,160.8141c0,0 -0.85477,16.31767 -18.89728,16.41895c-19.33011,0.10851 -19.82666,-16.41895 -19.82666,-16.41895" fill="none" stroke="#ffffff" stroke-width="5" stroke-linecap="round"/><text transform="translate(222.01202,196.68728) scale(0.38601,0.38601)" font-size="40" xml:space="preserve" fill="#ffffff" stroke="#ffffff" stroke-width="3" stroke-linecap="butt" font-family="Sans Serif" font-weight="normal" text-anchor="start"><tspan x="0" dy="0">bayo</tspan></text></g></g></svg>