<svg version="1.1" xmlns="http://www.w3.org/2000/svg" xmlns:xlink="http://www.w3.org/1999/xlink" width="121.89852" height="191.95612" viewBox="0,0,121.89852,191.95612"><defs><linearGradient x1="182.30074" y1="171.72132" x2="299.19926" y2="171.72132" gradientUnits="userSpaceOnUse" id="color-1"><stop offset="0" stop-color="#52dcff"/><stop offset="1" stop-color="#1db4ff"/></linearGradient><linearGradient x1="221.65279" y1="159.99095" x2="258.95289" y2="159.99095" gradientUnits="userSpaceOnUse" id="color-2"><stop offset="0" stop-color="#52dcff"/><stop offset="1" stop-color="#1db4ff"/></linearGradient><linearGradient x1="218.36384" y1="188.23943" x2="262.26372" y2="188.23943" gradientUnits="userSpaceOnUse" id="color-3"><stop offset="0" stop-color="#52dcff"/><stop offset="1" stop-color="#1db4ff"/></linearGradient></defs><g transform="translate(-179.80074,-40.71447)"><g data-paper-data="{&quot;isPaintingLayer&quot;:true}" fill-rule="nonzero" stroke-width="5" stroke-linejoin="miter" stroke-miterlimit="10" stroke-dasharray="" stroke-dashoffset="0" style="mix-blend-mode: normal"><path d="M182.30074,171.72132c0,-32.28064 26.16863,-58.44926 58.44926,-58.44926c32.28064,0 58.44926,26.16863 58.44926,58.44926c0,32.28064 -26.16863,58.44926 -58.44926,58.44926c-32.28064,0 -58.44926,-26.16863 -58.44926,-58.44926z" fill="#ffffff" stroke="url(#color-1)" stroke-linecap="butt"/><path d="M223.82791,165.97254c0,0 4.54345,-25.8146 14.84359,-25.8146c2.8563,0 5.77171,2.11057 8.4938,5.16116c7.09407,7.95017 9.61247,21.19722 9.61247,21.19722l-15.93115,-0.28688z" fill="none" stroke="url(#color-2)" stroke-linecap="butt"/><path d="M218.36384,210.43326v-44.38767h43.89989v44.38767z" fill="none" stroke="url(#color-3)" stroke-linecap="butt"/><path d="M239.75,103.75v-57l-37.25,37.25" fill="none" stroke="#000000" stroke-linecap="round"/><path d="M239.75,47.25l35.25,35.25" fill="none" stroke="#000000" stroke-linecap="round"/></g></g></svg>