<svg version="1.1" xmlns="http://www.w3.org/2000/svg" xmlns:xlink="http://www.w3.org/1999/xlink" width="27.26629" height="27.26629" viewBox="0,0,27.26629,27.26629"><defs><linearGradient x1="229.62607" y1="171.94737" x2="250.37394" y2="188.05264" gradientUnits="userSpaceOnUse" id="color-1"><stop offset="0" stop-color="#eaeaea"/><stop offset="1" stop-color="#ffeb00"/></linearGradient><linearGradient x1="229.62607" y1="171.94737" x2="250.37394" y2="188.05264" gradientUnits="userSpaceOnUse" id="color-2"><stop offset="0" stop-color="#eaeaea"/><stop offset="1" stop-color="#ff0000"/></linearGradient></defs><g transform="translate(-226.36685,-166.36685)"><g stroke-miterlimit="10"><path d="M229.62607,171.94737c4.44735,-5.72937 12.6972,-6.76864 18.42657,-2.3213c5.72937,4.44735 6.76864,12.6972 2.3213,18.42657c-4.44735,5.72937 -12.6972,6.76864 -18.42657,2.3213c-5.72937,-4.44735 -6.76864,-12.6972 -2.3213,-18.42657z" fill="#ffffff" stroke="url(#color-1)" stroke-width="1" stroke-linecap="butt"/><path d="M231.35212,180c0,-4.77609 3.87179,-8.64788 8.64788,-8.64788c4.77609,0 8.64788,3.87179 8.64788,8.64788c0,4.77609 -3.87179,8.64788 -8.64788,8.64788c-4.77609,0 -8.64788,-3.87179 -8.64788,-8.64788z" fill="none" stroke="#000000" stroke-width="2" stroke-linecap="butt"/><path d="M244.36674,179.73334c0,-2.17812 6.76653,-6.19224 6.76653,-6.19224c0,0 0.35715,4.28646 0.35715,6.53033c0,2.38659 -0.35715,7.38747 -0.35715,7.38747c0,0 -6.76653,-5.29265 -6.76653,-7.72555z" fill="#ffffff" stroke="none" stroke-width="0" stroke-linecap="butt"/><path d="M229.62607,171.94737c4.44735,-5.72937 12.6972,-6.76864 18.42657,-2.3213c5.72937,4.44735 6.76864,12.6972 2.3213,18.42657c-4.44735,5.72937 -12.6972,6.76864 -18.42657,2.3213c-5.72937,-4.44735 -6.76864,-12.6972 -2.3213,-18.42657z" fill="none" stroke="url(#color-2)" stroke-width="1" stroke-linecap="butt"/><path d="M233.94567,171.59797l12.10866,16.80406" fill="none" stroke="#ff0000" stroke-width="2" stroke-linecap="round"/></g></g></svg>