<svg version="1.1" xmlns="http://www.w3.org/2000/svg" xmlns:xlink="http://www.w3.org/1999/xlink" width="27.26629" height="27.26629" viewBox="0,0,27.26629,27.26629"><defs><linearGradient x1="229.62607" y1="171.94737" x2="250.37394" y2="188.05264" gradientUnits="userSpaceOnUse" id="color-1"><stop offset="0" stop-color="#eaeaea"/><stop offset="1" stop-color="#00a9ff"/></linearGradient><linearGradient x1="229.62607" y1="171.94737" x2="250.37394" y2="188.05264" gradientUnits="userSpaceOnUse" id="color-2"><stop offset="0" stop-color="#eaeaea"/><stop offset="1" stop-color="#00a9ff"/></linearGradient></defs><g transform="translate(-226.36685,-166.36685)"><g stroke-miterlimit="10"><path d="M229.62607,171.94737c4.44735,-5.72937 12.6972,-6.76864 18.42657,-2.3213c5.72937,4.44735 6.76864,12.6972 2.3213,18.42657c-4.44735,5.72937 -12.6972,6.76864 -18.42657,2.3213c-5.72937,-4.44735 -6.76864,-12.6972 -2.3213,-18.42657z" fill="#00a9ff" stroke="url(#color-1)" stroke-width="1"/><path d="M231.10007,184.47573c0,-4.99843 4.05202,-9.05046 9.05045,-9.05046c4.99843,0 9.05046,4.05203 9.05046,9.05046c0,4.99843 -4.05203,2.1987 -9.05046,2.1987c-4.99843,0 -9.05045,2.79973 -9.05045,-2.1987z" fill="none" stroke="#ffffff" stroke-width="1"/><path d="M234.14968,184.47573c0,-3.31418 2.68667,-6.00085 6.00085,-6.00085c3.31418,0 6.00085,2.68667 6.00085,6.00085c0,3.31418 -2.68668,2.7483 -6.00085,2.7483c-3.31418,0 -6.00085,0.56588 -6.00085,-2.7483z" fill="none" stroke="#ffffff" stroke-width="2"/><path d="M228.73587,184.47573c0,-6.30414 5.11052,-11.41465 11.41465,-11.41465c6.30414,0 11.41465,5.11052 11.41465,11.41465c0,0.94244 -0.54868,1.65357 -0.94174,2.18198c-2.23614,3.00619 -9.4701,0.09812 -10.47292,0.22139c-0.35987,0.04424 -6.68977,1.8604 -9.52691,-0.34823c-0.71936,-0.56 -1.88774,-0.78003 -1.88774,-2.05515z" fill="none" stroke="#ffffff" stroke-width="1"/><path d="M237.69116,182.76279c0,-1.35826 1.1011,-2.45936 2.45936,-2.45936c1.35826,0 2.45936,1.1011 2.45936,2.45936c0,1.35826 -1.1011,2.45936 -2.45936,2.45936c-1.35826,0 -2.45936,-1.1011 -2.45936,-2.45936z" fill="#ffffff" stroke="none" stroke-width="0"/><path d="M232.21825,189.74941c0,0 -1.63802,0.73211 -1.97611,-1.33261c-0.07291,-0.44528 -0.74628,-0.74394 -1.30451,-1.65874c-0.72038,-1.18051 -1.35547,-4.10757 -1.37491,-5.31837c-0.04917,-3.06125 2.39025,-5.52438 2.39025,-5.52438c0,0 6.83698,9.59789 10.167,9.59789c3.37256,0 9.94237,-9.59789 9.94237,-9.59789c0,0 1.6013,1.42574 2.09176,3.1947c0.37728,1.36075 0.8363,2.56963 0.66112,3.77778c-0.06115,0.42172 -0.69123,0.84334 -0.75331,1.27131c-0.03178,0.21908 0.19007,0.43129 0.16942,0.64317c-0.03298,0.33843 -0.31241,0.676 -0.42457,1.03934c-0.06986,0.22632 -0.94636,1.01182 -1.02738,1.23395c-0.62796,1.72172 -2.7166,1.95401 -2.7166,1.95401z" fill="#00a9ff" stroke="none" stroke-width="0"/><path d="M229.62607,171.94737c4.44735,-5.72937 12.6972,-6.76864 18.42657,-2.3213c5.72936,4.44735 6.76864,12.6972 2.3213,18.42657c-4.44735,5.72937 -12.6972,6.76864 -18.42657,2.3213c-5.72937,-4.44735 -6.76864,-12.6972 -2.3213,-18.42657z" fill="none" stroke="url(#color-2)" stroke-width="1"/></g></g></svg>