<svg version="1.1" xmlns="http://www.w3.org/2000/svg" xmlns:xlink="http://www.w3.org/1999/xlink" width="168.2983" height="335.46179" viewBox="0,0,168.2983,335.46179"><defs><linearGradient x1="207.9163" y1="317.89505" x2="298.91629" y2="317.89505" gradientUnits="userSpaceOnUse" id="color-1"><stop offset="0.012" stop-color="#a7a9ac"/><stop offset="1" stop-color="#414042"/></linearGradient></defs><g transform="translate(-155.85085,-12.2691)"><g stroke-miterlimit="10"><path d="M321.64915,336.6259c0,4.752 -3.854,8.605 -8.605,8.605h-146.0893c-4.752,0 -8.604,-3.854 -8.604,-8.605v-313.25279c0,-4.752 3.852,-8.604 8.604,-8.604h146.0883c4.754,0 8.605,3.852 8.605,8.604z" fill="url(#color-1)" stroke="#000000" stroke-width="5" stroke-linecap="butt"/><path d="M318.23417,23.37308v313.25179c0,2.862 -2.327,5.19 -5.191,5.19h-146.0883c-2.861,0 -5.19,-2.328 -5.19,-5.19v-313.25279c0,-2.862 2.329,-5.19 5.19,-5.19h146.0883c2.864,0 5.191,2.329 5.191,5.191z" fill="#fcfeff" stroke="#000000" stroke-width="0" stroke-linecap="butt"/><path d="M311.86612,142.87586c0,4.752 -3.854,8.605 -8.605,8.605h-126.6914c-4.752,0 -8.604,-3.854 -8.604,-8.605v-111.75279c0,-4.752 3.852,-8.604 8.604,-8.604h126.6904c4.754,0 8.605,3.852 8.605,8.604z" fill="#0066ff" stroke="none" stroke-width="1" stroke-linecap="butt"/><path d="M308.45114,31.12305v111.75179c0,2.862 -2.327,5.19 -5.191,5.19c0,0 -44.91876,0 -92.61097,0c-16.80098,0 -34.07943,0 -34.07943,0c-1.43926,0 -2.74388,-0.58915 -3.6851,-1.53905c-0.92976,-0.93834 -1.5049,-2.22871 -1.5049,-3.65095v-111.75279c0,-2.862 2.329,-5.19 5.19,-5.19h126.6904c2.864,0 5.191,2.329 5.191,5.191z" fill="#000000" stroke="none" stroke-width="1" stroke-linecap="butt"/><text transform="translate(173.50593,92.49996) scale(0.5,0.5)" font-size="40" xml:space="preserve" fill="#ffffff" stroke="#ffffff" stroke-width="2" stroke-linecap="butt" font-family="Sans Serif" font-weight="normal" text-anchor="start"><tspan x="0" dy="0">bayoOS NEXT</tspan></text><path d="M176.1492,103.74996h123.5" fill="none" stroke="#0035ff" stroke-width="5" stroke-linecap="round"/><path d="M176.14917,70.24996h123.5" fill="none" stroke="#0035ff" stroke-width="5" stroke-linecap="round"/><path d="M314.77806,182.09918c0,14.416 -11.729,26.144 -26.144,26.144h-97.67763c-14.415,0 -26.143,-11.727 -26.143,-26.144c0,-14.415 11.727,-26.143 26.143,-26.143h97.67763c14.415,0 26.144,11.728 26.144,26.143z" fill="#ffffff" stroke="#696969" stroke-width="5" stroke-linecap="butt"/><path d="M310.27406,182.09918c0,11.952 -9.688,21.641 -21.64,21.641h-97.67763c-11.952,0 -21.641,-9.689 -21.641,-21.641v0c0,-11.951 9.689,-21.64 21.641,-21.64h97.67763c11.952,0 21.62979,9.689 21.62979,21.64z" fill="#ffffff" stroke="#696969" stroke-width="5" stroke-linecap="butt"/><path d="M315.72165,241.45499c0,14.416 -11.729,26.144 -26.144,26.144h-97.67763c-14.415,0 -26.143,-11.727 -26.143,-26.144c0,-14.415 11.727,-26.143 26.143,-26.143h97.67763c14.415,0 26.144,11.728 26.144,26.143z" fill="#ffffff" stroke="#696969" stroke-width="5" stroke-linecap="butt"/><path d="M311.21765,241.455c0,11.952 -9.688,21.641 -21.64,21.641h-97.67763c-11.952,0 -21.641,-9.689 -21.641,-21.641v0c0,-11.951 9.689,-21.64 21.641,-21.64h97.67763c11.952,0 21.62979,9.689 21.62979,21.64z" fill="#ffffff" stroke="#696969" stroke-width="5" stroke-linecap="butt"/><path d="M315.85396,300.81083c0,14.416 -11.729,26.144 -26.144,26.144h-97.67763c-14.415,0 -26.143,-11.727 -26.143,-26.144c0,-14.415 11.727,-26.143 26.143,-26.143h97.67763c14.415,0 26.144,11.728 26.144,26.143z" fill="#ffffff" stroke="#696969" stroke-width="5" stroke-linecap="butt"/><path d="M311.34996,300.81083c0,11.952 -9.688,21.641 -21.64,21.641h-97.67763c-11.952,0 -21.641,-9.689 -21.641,-21.641v0c0,-11.951 9.689,-21.64 21.641,-21.64h97.67763c11.952,0 21.62979,9.689 21.62979,21.64z" fill="#ffffff" stroke="#696969" stroke-width="5" stroke-linecap="butt"/></g></g></svg>