<svg version="1.1" xmlns="http://www.w3.org/2000/svg" xmlns:xlink="http://www.w3.org/1999/xlink" width="93.72809" height="79.72398" viewBox="0,0,93.72809,79.72398"><defs><radialGradient cx="253.82568" cy="173.1764" r="33.03838" gradientUnits="userSpaceOnUse" id="color-1"><stop offset="0" stop-color="#ffffff"/><stop offset="1" stop-color="#ffffff" stop-opacity="0"/></radialGradient></defs><g transform="translate(-193.13595,-140.13801)"><g stroke="none" stroke-width="0" stroke-miterlimit="10"><path d="M234.11615,174.59858c0,-10.86819 8.81043,-19.67862 19.67862,-19.67862c10.86819,0 19.67861,8.81043 19.67861,19.67862c0,10.86819 -8.81042,19.67861 -19.67861,19.67861c-10.86819,0 -19.67862,-8.81042 -19.67862,-19.67861z" fill-opacity="0.99608" fill="#fec240"/><path d="M193.13596,203.93183c0,-8.73937 7.08467,-15.82404 15.82404,-15.82404c8.73937,0 15.82405,7.08467 15.82405,15.82404c0,8.73937 -7.08467,15.82405 -15.82405,15.82405c-8.73937,0 -15.82404,-7.08467 -15.82404,-15.82405z" fill="#ffffff"/><path d="M206.5255,190.34877c0,-13.4452 10.89947,-24.34467 24.34466,-24.34467c13.4452,0 24.34467,10.89947 24.34467,24.34467c0,13.4452 -10.89947,24.34467 -24.34467,24.34467c-13.4452,0 -24.34466,-10.89947 -24.34466,-24.34467z" fill="#ffffff"/><path d="M232.08742,199.16901c0,-11.42841 9.26457,-20.69298 20.69298,-20.69298c11.42841,0 20.69298,9.26456 20.69298,20.69298c0,11.42842 -9.26457,20.69298 -20.69298,20.69298c-11.42841,0 -20.69298,-9.26457 -20.69298,-20.69298z" fill="#ffffff"/><path d="M207.33701,219.73544v-26.44036h44.22616v26.44036z" fill="#ffffff"/><path d="M220.78728,173.1764c0,-18.2466 14.7918,-33.03839 33.03839,-33.03839c18.24661,0 33.03838,14.7918 33.03838,33.03839c0,18.2466 -14.7918,33.03838 -33.03838,33.03838c-18.2466,0 -33.03839,-14.7918 -33.03839,-33.03838z" fill="url(#color-1)"/></g></g></svg>