<svg version="1.1" xmlns="http://www.w3.org/2000/svg" xmlns:xlink="http://www.w3.org/1999/xlink" width="304.7266" height="247.63952" viewBox="0,0,304.7266,247.63952"><g transform="translate(57.3633,-56.18024)"><g stroke-miterlimit="10"><path d="M220.29154,268.2637c0,5.09057 -4.12859,9.21809 -9.21809,9.21809l-232.82559,-0.19856c-5.09057,0 -9.21702,-4.12859 -9.21702,-9.21809v-176.32991c0,-5.09057 4.12645,-9.21702 9.21702,-9.21702l232.82451,0.19856c5.09271,0 9.21809,4.12645 9.21809,9.21702v176.32991z" fill-opacity="0.81176" fill="#ffffff" stroke="#000000" stroke-width="5"/><path d="M222.3633,269.26442c0,5.27681 -4.27964,9.55534 -9.55534,9.55534l-235.61703,-0.20582c-5.27681,0 -9.55423,-4.27964 -9.55423,-9.55534v-178.32413c0,-5.27681 4.27742,-9.55423 9.55423,-9.55423l235.61592,0.20582c5.27903,0 9.55534,4.27742 9.55534,9.55423v178.32413z" fill="none" stroke-opacity="0.77255" stroke="#ffffff" stroke-width="50"/><text transform="translate(-9.35188,189.73583) scale(0.81132,0.81132)" font-size="40" xml:space="preserve" fill="#000000" stroke="#000000" stroke-width="2" font-family="Sans Serif" font-weight="normal" text-anchor="start"><tspan x="0" dy="0">bayoOS NEXT</tspan></text><text transform="translate(46.81692,220.42893) scale(0.80305,0.80305)" font-size="40" xml:space="preserve" fill="#000000" stroke="#000000" stroke-width="2" font-family="Sans Serif" font-weight="normal" text-anchor="start"><tspan x="0" dy="0">的截屏</tspan></text></g></g></svg>