<svg version="1.1" xmlns="http://www.w3.org/2000/svg" xmlns:xlink="http://www.w3.org/1999/xlink" width="46.38269" height="45.27753" viewBox="0,0,46.38269,45.27753"><g transform="translate(-216.80865,-157.36123)"><g stroke="none" stroke-width="0" stroke-miterlimit="10"><path d="M259.51889,177.60467c1.64065,9.61795 -4.82622,18.74484 -14.44417,20.38549c-9.61795,1.64065 -18.74484,-4.82622 -20.38549,-14.44417c-1.64065,-9.61795 4.82622,-18.74484 14.44417,-20.38549c9.61795,-1.64065 18.74484,4.82622 20.38549,14.44417z" fill-opacity="0.52549" fill="#ff0000"/><path d="M262.93695,173.72884c1.64065,9.61795 -4.82622,18.74484 -14.44417,20.38549c-9.61795,1.64065 -18.74484,-4.82622 -20.38549,-14.44417c-1.64065,-9.61795 4.82622,-18.74484 14.44417,-20.38549c9.61795,-1.64065 18.74484,4.82622 20.38549,14.44417z" fill-opacity="0.52549" fill="#0084ff"/><path d="M237.66414,197.54961c-9.51233,-2.17074 -15.46388,-11.64174 -13.29314,-21.15408c2.17074,-9.51233 11.64174,-15.46388 21.15408,-13.29314c9.51233,2.17074 15.46388,11.64174 13.29314,21.15408c-2.17074,9.51233 -11.64174,15.46388 -21.15408,13.29314z" fill-opacity="0.52549" fill="#8000ff"/><path d="M239.93404,202.19211c-9.51233,-2.17074 -15.46387,-11.64174 -13.29314,-21.15407c2.17074,-9.51233 11.64174,-15.46388 21.15408,-13.29314c9.51233,2.17074 15.46388,11.64174 13.29314,21.15408c-2.17074,9.51233 -11.64174,15.46387 -21.15408,13.29313z" fill-opacity="0.52549" fill="#00ff2d"/><path d="M220.82979,179.65889c0,-9.75687 7.90951,-17.66638 17.66638,-17.66638c9.75687,0 17.66638,7.90951 17.66638,17.66638c0,9.75687 -7.90951,17.66638 -17.66638,17.66638c-9.75687,0 -17.66638,-7.90951 -17.66638,-17.66638z" fill-opacity="0.52549" fill="#ff0000"/><path d="M216.80865,182.90478c0,-9.75688 7.90951,-17.66638 17.66638,-17.66638c9.75688,0 17.66639,7.90951 17.66639,17.66638c0,9.75688 -7.90951,17.66638 -17.66639,17.66638c-9.75688,0 -17.66638,-7.90951 -17.66638,-17.66638z" fill-opacity="0.52549" fill="#0084ff"/><path d="M245.72715,163.6729c9.01187,3.73936 13.28608,14.07627 9.54672,23.08814c-3.73936,9.01187 -14.07627,13.28608 -23.08814,9.54672c-9.01187,-3.73936 -13.28608,-14.07627 -9.54672,-23.08814c3.73936,-9.01187 14.07627,-13.28608 23.08814,-9.54672z" fill-opacity="0.52549" fill="#8000ff"/><path d="M244.27022,158.71481c9.01187,3.73936 13.28608,14.07627 9.54672,23.08814c-3.73936,9.01187 -14.07627,13.28608 -23.08814,9.54672c-9.01187,-3.73936 -13.28608,-14.07627 -9.54672,-23.08814c3.73936,-9.01187 14.07627,-13.28608 23.08814,-9.54672z" fill-opacity="0.52549" fill="#00ff2d"/><path d="M220.48111,182.39533c-1.64065,-9.61795 4.82622,-18.74484 14.44417,-20.38549c9.61795,-1.64065 18.74484,4.82622 20.38549,14.44417c1.64065,9.61795 -4.82622,18.74484 -14.44417,20.38549c-9.61795,1.64065 -18.74484,-4.82622 -20.38549,-14.44417z" fill-opacity="0.52549" fill="#ff0000"/><path d="M217.06305,186.27116c-1.64065,-9.61795 4.82622,-18.74484 14.44417,-20.38549c9.61795,-1.64065 18.74484,4.82622 20.38549,14.44417c1.64065,9.61795 -4.82622,18.74484 -14.44417,20.38549c-9.61795,1.64065 -18.74484,-4.82622 -20.38549,-14.44417z" fill-opacity="0.52549" fill="#0084ff"/><path d="M242.33586,162.45039c9.51233,2.17074 15.46388,11.64174 13.29314,21.15408c-2.17074,9.51233 -11.64174,15.46388 -21.15408,13.29314c-9.51233,-2.17074 -15.46388,-11.64174 -13.29314,-21.15408c2.17074,-9.51233 11.64174,-15.46388 21.15408,-13.29314z" fill-opacity="0.52549" fill="#8000ff"/><path d="M240.06596,157.80789c9.51233,2.17074 15.46387,11.64174 13.29314,21.15407c-2.17074,9.51233 -11.64174,15.46388 -21.15408,13.29314c-9.51233,-2.17074 -15.46388,-11.64174 -13.29314,-21.15408c2.17074,-9.51233 11.64174,-15.46387 21.15408,-13.29313z" fill-opacity="0.52549" fill="#00ff2d"/><path d="M259.17021,180.34111c0,9.75687 -7.90951,17.66638 -17.66638,17.66638c-9.75687,0 -17.66638,-7.90951 -17.66638,-17.66638c0,-9.75687 7.90951,-17.66638 17.66638,-17.66638c9.75687,0 17.66638,7.90951 17.66638,17.66638z" fill-opacity="0.52549" fill="#ff0000"/><path d="M263.19135,177.09522c0,9.75688 -7.90951,17.66638 -17.66638,17.66638c-9.75688,0 -17.66639,-7.90951 -17.66639,-17.66638c0,-9.75688 7.90951,-17.66638 17.66639,-17.66638c9.75688,0 17.66638,7.90951 17.66638,17.66638z" fill-opacity="0.52549" fill="#0084ff"/><path d="M234.27285,196.3271c-9.01187,-3.73936 -13.28608,-14.07627 -9.54672,-23.08814c3.73936,-9.01187 14.07627,-13.28608 23.08814,-9.54672c9.01187,3.73936 13.28608,14.07627 9.54672,23.08814c-3.73936,9.01187 -14.07627,13.28608 -23.08814,9.54672z" fill-opacity="0.52549" fill="#8000ff"/><path d="M235.72978,201.28519c-9.01187,-3.73936 -13.28608,-14.07627 -9.54672,-23.08814c3.73936,-9.01187 14.07627,-13.28608 23.08814,-9.54672c9.01187,3.73936 13.28608,14.07627 9.54672,23.08814c-3.73936,9.01187 -14.07627,13.28608 -23.08814,9.54672z" fill-opacity="0.52549" fill="#00ff2d"/></g></g></svg>