<svg version="1.1" xmlns="http://www.w3.org/2000/svg" xmlns:xlink="http://www.w3.org/1999/xlink" width="172.96894" height="43.47793" viewBox="0,0,172.96894,43.47793"><g transform="translate(-8.51553,-158.26102)"><g stroke-miterlimit="10"><path d="M181.48447,179.99958c0,11.98727 -9.75296,21.73938 -21.73938,21.73938h-129.49101c-11.98643,0 -21.73855,-9.75129 -21.73855,-21.73938c0,-11.98643 9.75129,-21.73855 21.73855,-21.73855h129.49101c11.98643,0 21.73938,9.75212 21.73938,21.73855z" fill="#e5e5e5" stroke="none" stroke-width="1"/><path d="M177.54764,179.99966c0,9.82801 -7.99617,17.82348 -17.82348,17.82348h-129.44899c-9.82732,0 -17.8228,-7.9948 -17.8228,-17.82348c0,-9.82732 7.9948,-17.8228 17.8228,-17.8228h129.44899c9.82732,0 17.82348,7.99548 17.82348,17.8228z" fill="#009dff" stroke-opacity="0.8549" stroke="#ffffff" stroke-width="5"/></g></g></svg>