<svg version="1.1" xmlns="http://www.w3.org/2000/svg" xmlns:xlink="http://www.w3.org/1999/xlink" width="196.25837" height="212.59689" viewBox="0,0,196.25837,212.59689"><g transform="translate(-141.87082,30.89604)"><g data-paper-data="{&quot;isPaintingLayer&quot;:true}" fill-rule="nonzero" stroke="#000000" stroke-linecap="butt" stroke-linejoin="miter" stroke-miterlimit="10" stroke-dasharray="" stroke-dashoffset="0" style="mix-blend-mode: normal"><path d="M337.79684,173.09585c0,4.752 -3.854,8.605 -8.605,8.605h-178.71702c-4.752,0 -8.604,-3.854 -8.604,-8.605l0.33334,-195.38789c0,-4.752 3.852,-8.604 8.604,-8.604h178.71602c4.754,0 8.60501,3.852 8.60501,8.604z" fill="#f7faff" stroke-width="0"/><path d="M334.38184,173.09485c0,2.862 -2.327,5.19 -5.191,5.19h-178.71603c-2.861,0 -5.19,-2.328 -5.19,-5.19l0.33333,-195.05455c0,-2.862 2.329,-5.52333 5.19,-5.52333l178.38269,0.33333c2.40858,0 4.43736,1.6472 5.02167,3.87335c0.11048,0.42093 0.16933,196.3712 0.16933,196.3712z" fill="#fcfeff" stroke-width="0.5"/></g></g></svg>