<svg version="1.1" xmlns="http://www.w3.org/2000/svg" xmlns:xlink="http://www.w3.org/1999/xlink" width="168" height="332.50581" viewBox="0,0,168,332.50581"><g transform="translate(-156,-14.7471)"><g stroke-miterlimit="10"><path d="M316.5,180h-153" fill="none" stroke="#c5c5c5" stroke-width="15" stroke-linecap="round"/><path d="M320.11356,149.92152c0,8.19044 -6.64266,14.83139 -14.83138,14.83139l-130.56608,-0.31946c-8.19044,0 -14.82966,-6.64267 -14.82966,-14.83139v-117.5253c0,-8.19044 6.63922,-14.82966 14.82966,-14.82966l130.56436,0.31946c8.19389,0 14.83138,6.63922 14.83138,14.82966v117.52529z" fill="#ffffff" stroke="#19191b" stroke-width="5" stroke-linecap="butt"/><path d="M320.11356,329.92152c0,8.19044 -6.64266,14.83139 -14.83138,14.83139l-130.56608,-0.31946c-8.19044,0 -14.82966,-6.64267 -14.82966,-14.83139v-117.5253c0,-8.19044 6.63922,-14.82966 14.82966,-14.82966l130.56436,0.31946c8.19389,0 14.83138,6.63922 14.83138,14.82966v117.52529z" fill="#ffffff" stroke="#19191b" stroke-width="5" stroke-linecap="butt"/></g></g></svg>