<svg version="1.1" xmlns="http://www.w3.org/2000/svg" xmlns:xlink="http://www.w3.org/1999/xlink" width="18.56526" height="35.45928" viewBox="0,0,18.56526,35.45928"><g transform="translate(-230.71737,-162.27036)"><g fill="#ffffff" stroke="none" stroke-width="0.5" stroke-miterlimit="10"><path d="M233.93106,197.23695c-1.76658,-1.32495 -0.44166,-3.09153 -0.44166,-3.09153l0.48008,-0.6397c2.48407,-3.4141 4.61784,-7.03548 6.92952,-10.56391c0.26074,-0.39795 0.50159,-0.85326 0.74166,-1.31457c-2.00798,0.5778 -5.92199,1.68713 -5.92199,1.68713l-2.28446,0.48952c-0.16328,0.03848 -0.33357,0.05884 -0.5086,0.05884c-1.21958,0 -2.20824,-0.98865 -2.20824,-2.20824c0,-0.37088 0.09144,-0.72043 0.25299,-1.02729l0.97887,-1.95774l0.01954,0.00978l0.01328,-0.07288c2.85274,-4.89503 5.97519,-9.45307 7.84791,-14.82634c0,0 0.72948,-2.08426 2.81375,-1.35478c2.08426,0.72948 1.35478,2.81375 1.35478,2.81375c-1.66036,4.72551 -4.17911,8.84431 -6.71576,13.08071c0.17968,-0.03322 0.3571,-0.0717 0.53011,-0.12039c2.13165,-0.6 4.24112,-1.30514 6.35813,-1.95549l2.06346,-0.79364c0.25893,-0.10658 0.54257,-0.16536 0.83996,-0.16536c1.21958,0 2.20824,0.98865 2.20824,2.20824c0,0.41933 -0.11687,0.81135 -0.31983,1.14527l-1.14616,1.96485l-0.01489,-0.00868c-0.00974,0.02729 -0.01961,0.05451 -0.02963,0.08171c-0.65258,1.77052 -2.14395,3.10627 -3.17806,4.68463c-2.35158,3.58915 -4.52724,7.26838 -7.05278,10.74246l-0.51867,0.69195c0,0 -1.32495,1.76658 -3.09153,0.44166z"/></g></g></svg>