<svg version="1.1" xmlns="http://www.w3.org/2000/svg" xmlns:xlink="http://www.w3.org/1999/xlink" width="52.81191" height="51.93022" viewBox="0,0,52.81191,51.93022"><defs><linearGradient x1="68.59495" y1="178.62931" x2="159.59495" y2="178.62931" gradientUnits="userSpaceOnUse" id="color-1"><stop offset="0.012" stop-color="#a7a9ac"/><stop offset="1" stop-color="#414042"/></linearGradient><linearGradient x1="72.00805" y1="178.62841" x2="156.18095" y2="178.62841" gradientUnits="userSpaceOnUse" id="color-2"><stop offset="0" stop-color="#d1d2d3"/><stop offset="1" stop-color="#a4a5a8"/></linearGradient></defs><g transform="translate(-68.59404,-154.03489)"><g stroke="none" stroke-miterlimit="10"><path d="M121.40596,197.36011c0,4.752 -3.854,8.605 -8.605,8.605h-35.60291c-4.752,0 -8.604,-3.854 -8.604,-8.605v-34.72122c0,-4.752 3.852,-8.604 8.604,-8.604h35.60191c4.754,0 8.605,3.852 8.605,8.604z" fill="url(#color-1)"/><path d="M117.99095,197.35911c0,2.862 -2.327,5.19 -5.191,5.19h-35.60191c-2.861,0 -5.19,-2.328 -5.19,-5.19v-34.72122c0,-2.862 2.329,-5.19 5.19,-5.19h35.60191c2.40858,0 4.43736,1.6472 5.02167,3.87335c0.11048,0.42093 0.16933,36.03787 0.16933,36.03787z" fill="url(#color-2)"/></g></g></svg>