<svg version="1.1" xmlns="http://www.w3.org/2000/svg" xmlns:xlink="http://www.w3.org/1999/xlink" width="88.50186" height="42.96363" viewBox="0,0,88.50186,42.96363"><defs><linearGradient x1="187.08314" y1="178.86599" x2="262.37051" y2="178.86599" gradientUnits="userSpaceOnUse" id="color-1"><stop offset="0.012" stop-color="#a7a9ac"/><stop offset="1" stop-color="#414042"/></linearGradient><linearGradient x1="189.90691" y1="178.86525" x2="259.546" y2="178.86525" gradientUnits="userSpaceOnUse" id="color-2"><stop offset="0" stop-color="#d1d2d3"/><stop offset="1" stop-color="#a4a5a8"/></linearGradient></defs><g transform="translate(-195.74907,-158.51818)"><g data-paper-data="{&quot;isPaintingLayer&quot;:true}" fill-rule="nonzero" stroke-linejoin="miter" stroke-miterlimit="10" stroke-dasharray="" stroke-dashoffset="0" style="mix-blend-mode: normal"><path d="M284.25093,194.36261c0,3.93149 -3.18854,7.11921 -7.11921,7.11921h-74.26427c-3.93149,0 -7.11838,-3.18854 -7.11838,-7.11921v-28.72604c0,-3.93149 3.18689,-7.11838 7.11838,-7.11838h74.26344c3.93314,0 7.11921,3.18689 7.11921,7.11838z" fill="url(#color-1)" stroke="none" stroke-width="1" stroke-linecap="butt"/><path d="M281.42558,194.36179c0,2.36783 -1.92521,4.29386 -4.29469,4.29386c0,0 -4.96468,0 -9.47588,0c-11.26815,0 -64.78757,0 -64.78757,0c-2.367,0 -4.29386,-1.92603 -4.29386,-4.29386c0,0 0,-18.02494 0,-23.11181c0,-2.50714 0,-5.61424 0,-5.61424c0,-2.36783 1.92686,-4.29386 4.29386,-4.29386h74.26344c1.9927,0 3.67118,1.36278 4.1546,3.20455c0.0914,0.34825 0.14009,29.81535 0.14009,29.81535z" fill="url(#color-2)" stroke="none" stroke-width="1" stroke-linecap="butt"/><text transform="translate(198.36766,184.11283) scale(0.30952,0.30952)" font-size="40" xml:space="preserve" fill="#00daff" fill-rule="nonzero" stroke="#00daff" stroke-width="2" stroke-linecap="butt" stroke-linejoin="miter" stroke-miterlimit="10" stroke-dasharray="" stroke-dashoffset="0" font-family="Sans Serif" font-weight="normal" text-anchor="start" style="mix-blend-mode: normal"><tspan x="0" dy="0">bayo OS NEXT</tspan></text><path d="M279.83335,171.91666h-80" fill="none" stroke="#00daff" stroke-width="2.5" stroke-linecap="round"/><path d="M199.83334,189.24998h80.33333" fill="none" stroke="#00daff" stroke-width="2.5" stroke-linecap="round"/></g></g></svg>