<svg version="1.1" xmlns="http://www.w3.org/2000/svg" xmlns:xlink="http://www.w3.org/1999/xlink" width="52.81191" height="51.93022" viewBox="0,0,52.81191,51.93022"><defs><radialGradient cx="250.02274" cy="173" r="16.13636" gradientUnits="userSpaceOnUse" id="color-1"><stop offset="0" stop-color="#ffffff"/><stop offset="1" stop-color="#ffffff" stop-opacity="0"/></radialGradient></defs><g transform="translate(-213.59405,-154.03489)"><g stroke-width="0" stroke-miterlimit="10"><path d="M266.40596,197.36011c0,4.752 -3.854,8.605 -8.605,8.605h-35.60291c-4.752,0 -8.604,-3.854 -8.604,-8.605v-34.72122c0,-4.752 3.852,-8.604 8.604,-8.604h35.60191c4.754,0 8.605,3.852 8.605,8.604z" fill-opacity="0.99608" fill="#28bbff" stroke="#000000"/><path d="M262.99099,197.35911c0,2.862 -2.327,5.19 -5.191,5.19h-35.60191c-2.861,0 -5.19,-2.328 -5.19,-5.19v-34.72122c0,-2.862 2.329,-5.19 5.19,-5.19h35.60191c2.40858,0 4.43736,1.6472 5.02167,3.87335c0.11048,0.42093 0.16933,36.03787 0.16933,36.03787z" fill-opacity="0.99608" fill="#0d8ed0" stroke="#000000"/><path d="M240.39636,173.36128c0,-5.30816 4.30312,-9.61128 9.61128,-9.61128c5.30816,0 9.61128,4.30312 9.61128,9.61128c0,5.30816 -4.30312,9.61128 -9.61128,9.61128c-5.30816,0 -9.61128,-4.30312 -9.61128,-9.61128z" fill-opacity="0.99608" fill="#fec240" stroke="none"/><path d="M220.38112,188.02134c0,-4.26842 3.46024,-7.72866 7.72866,-7.72866c4.26842,0 7.72866,3.46024 7.72866,7.72866c0,4.26842 -3.46024,7.72866 -7.72866,7.72866c-4.26842,0 -7.72866,-3.46024 -7.72866,-7.72866z" fill="#ffffff" stroke="none"/><path d="M226.92074,181.3872c0,-6.5668 5.32344,-11.89024 11.89024,-11.89024c6.5668,0 11.89024,5.32344 11.89024,11.89024c0,6.5668 -5.32344,11.89024 -11.89024,11.89024c-6.5668,0 -11.89024,-5.32344 -11.89024,-11.89024z" fill="#ffffff" stroke="none"/><path d="M239.4055,185.69512c0,-5.58178 4.52493,-10.10671 10.10671,-10.10671c5.58178,0 10.10671,4.52493 10.10671,10.10671c0,5.58178 -4.52493,10.10671 -10.10671,10.10671c-5.58178,0 -10.10671,-4.52493 -10.10671,-10.10671z" fill="#ffffff" stroke="none"/><path d="M227.31709,195.74002v-12.9138h21.60061v12.9138z" fill="#ffffff" stroke="none"/><path d="M233.88637,173c0,-8.91187 7.2245,-16.13636 16.13636,-16.13636c8.91187,0 16.13636,7.2245 16.13636,16.13636c0,8.91187 -7.2245,16.13636 -16.13636,16.13636c-8.91187,0 -16.13636,-7.2245 -16.13636,-16.13636z" fill="url(#color-1)" stroke="none"/></g></g></svg>