<svg version="1.1" xmlns="http://www.w3.org/2000/svg" xmlns:xlink="http://www.w3.org/1999/xlink" width="699.68232" height="777.20516" viewBox="0,0,699.68232,777.20516"><defs><linearGradient x1="240" y1="-10.58424" x2="240" y2="370.58424" gradientUnits="userSpaceOnUse" id="color-1"><stop offset="0" stop-color="#0090ff"/><stop offset="1" stop-color="#66ffe0"/></linearGradient></defs><g transform="translate(145.12013,200.05658)"><g stroke="none" stroke-miterlimit="10"><path d="M-3.22179,370.58424v-381.16848h486.44359v381.16848z" fill="url(#color-1)" stroke-width="0"/><path d="M-52.05275,58.98096c-2.51895,-3.90211 -3.98091,-8.55063 -3.98091,-13.54062c0,-4.59848 1.24155,-8.90697 3.40772,-12.60856c1.13049,-4.18282 4.75623,-7.04679 8.97943,-8.98121c3.70256,-2.16772 8.0126,-3.41023 12.61285,-3.41023c9.0605,-1.18692 17.30824,0.84552 25.92396,2.89343c4.57751,1.08805 9.37373,1.22121 14.01834,2.0017c4.21534,0.70835 17.31081,5.72927 21.08468,7.65249c9.6175,4.90123 20.1992,8.90236 29.73295,14.11573c6.4723,3.53927 12.12881,8.34391 17.53118,13.16471c2.70055,2.40983 5.84211,4.05123 8.48567,6.53332c7.05217,6.62142 17.82833,20.42765 22.21535,29.20169c2.10371,4.20743 5.14738,13.70096 6.62481,18.51163c0.96106,3.12932 3.26679,5.73154 4.26742,8.9991c0.93031,3.03795 1.06155,6.25963 1.78939,9.34278c0.86599,3.6684 2.92735,6.9771 3.56627,10.77927c2.03391,12.10358 5.35838,23.56587 9.61822,35.0396c0.57377,1.54542 0.69407,3.28609 1.54517,4.69788c2.5232,4.18545 5.40578,9.78509 9.28969,12.91492c3.13578,2.52695 6.44492,4.5306 8.93372,7.849c4.87312,6.49749 17.54258,18.41557 24.60159,21.94508c6.54791,3.27395 13.62932,7.58829 20.74634,9.24704c7.71616,1.79839 16.18962,3.24623 23.78331,5.57164c27.91975,8.54983 56.79284,12.90265 86.39675,7.76723c3.53765,-0.61368 6.26507,-2.21367 9.69079,-3.26272c7.61414,-2.33167 15.43389,-3.52431 22.73284,-7.29865c3.27314,-1.69256 5.59124,-5.65568 8.34107,-7.92428c4.69822,-3.87602 9.59451,-8.32089 14.27253,-12.32827c3.11534,-2.66872 6.15567,-7.19213 9.05225,-9.91178c6.04177,-5.67273 15.79768,-12.67596 23.67939,-15.08957c7.02142,-2.15016 13.80584,-1.18944 20.80565,0.18615c11.86794,2.33228 23.29349,4.66111 34.23014,10.46985c10.73336,5.70076 23.54687,17.96563 31.71523,26.95609c2.4395,2.68501 4.12196,5.78341 6.53332,8.48567c1.80288,2.02037 4.03795,3.63835 5.76116,5.72709c0.45142,0.54719 0.36165,1.44246 0.86129,1.94601c12.49625,12.59434 21.32196,21.95028 28.19445,38.54192c5.03352,12.15199 11.35072,21.6843 13.60313,35.56429c0.56981,3.5113 -0.12321,7.11201 0.93924,10.50794c2.06484,6.59991 5.06724,12.65114 6.56708,19.43499c1.65981,7.50741 0.92696,15.08163 1.91973,22.6219c0.70651,5.36615 1.29867,10.80023 2.85244,15.98487c1.34819,4.49866 3.10648,8.76399 3.15357,13.51764c0.17959,18.12917 2.61351,40.16901 -4.6265,57.54505c-2.29781,5.51475 -8.4182,9.06805 -13.69766,11.36218c-3.79221,1.64786 -8.54495,3.0781 -12.57789,2.79508c-10.03322,-0.70408 -16.14807,-4.34528 -20.96313,-13.97542c-2.23185,-4.4637 -3.2466,-9.69132 -2.96978,-14.6742c0.2211,-3.97974 4.7696,-6.95122 4.83496,-10.93657c0.15338,-9.3518 0.48365,-18.71863 0,-28.05918c-0.16123,-3.11376 -1.91169,-5.94516 -2.58477,-8.98958c-1.25498,-5.67638 -1.88717,-11.47339 -2.93575,-17.19149c-1.29676,-7.07147 -0.87915,-14.4165 -1.98699,-21.52373c-0.77116,-4.94731 -3.95954,-9.9339 -5.25957,-14.85332c-1.4036,-5.31132 -1.01981,-10.42443 -2.24794,-15.51996c-1.81414,-7.52687 -6.01659,-11.55119 -8.3158,-18.44884c-1.35516,-4.0655 -2.0711,-7.05903 -4.2348,-10.81362c-1.03523,-1.7964 -3.11412,-2.76328 -4.43355,-4.3626c-1.1419,-1.38412 -1.3555,-3.81811 -2.58622,-5.17246c-5.66985,-6.23938 -12.97159,-12.22951 -18.43479,-18.85157c-1.73464,-2.10259 -3.04653,-4.96059 -4.85936,-7.15016c-1.08569,-1.31131 -3.32459,-2.22817 -4.59204,-3.53084c-6.27631,-6.45066 -12.10033,-12.83185 -20.88151,-16.00661c-12.72611,-4.60101 -14.31156,3.24706 -22.61788,10.87034c-8.5811,7.87547 -20.40101,20.28533 -30.52136,25.70403c-10.551,5.64928 -18.17936,8.05461 -30.30168,11.86691c-1.34041,0.42154 -2.93751,0.14088 -4.11731,0.90408c-5.32602,3.44536 -14.65439,4.57355 -20.77919,4.89225c-3.0638,0.15942 -5.3823,1.46717 -8.53472,1.49259c-14.57256,0.11751 -30.57596,0.15576 -45.149,0.15576c-4.9665,0 -11.10324,-1.63717 -15.92676,-3.14603c-5.55709,-1.73832 -11.74208,-1.19059 -17.40051,-2.79716c-1.78216,-0.506 -3.42117,-1.51712 -5.24645,-1.8341c-3.87348,-0.67267 -8.27544,-1.08015 -11.65726,-3.26783c-1.79772,-1.16293 -5.6447,-1.06538 -7.7955,-1.54089c-5.0517,-1.11688 -10.51803,-2.31703 -15.44743,-3.82655c-7.41046,-2.2693 -14.6927,-6.26037 -21.63711,-9.63107c-2.5837,-1.25408 -6.12889,-1.34141 -8.87663,-2.76266c-1.90957,-0.98771 -3.44466,-3.34805 -5.31198,-4.33164c-6.89557,-3.63215 -10.05844,-7.56563 -16.13328,-13.13027c-13.29702,-12.18029 -30.63391,-25.98211 -39.15366,-42.15666c-0.98359,-1.86732 -3.34393,-3.40241 -4.33164,-5.31198c-1.6612,-3.21166 -1.75763,-6.5525 -2.85275,-9.77748c-0.29879,-0.8799 -1.23935,-1.45824 -1.65175,-2.23453c-1.34496,-2.53169 -1.95283,-5.87535 -2.73437,-8.59375c-3.4931,-12.14992 -5.94948,-24.82027 -9.65936,-36.935c-1.07127,-3.49827 -1.29917,-7.34431 -2.47103,-10.79528c-0.53412,-1.57291 -1.88368,-2.64898 -2.41979,-4.3339c-2.31042,-7.2613 -4.96022,-13.70993 -8.72665,-20.24131c-1.43902,-2.49541 -3.76459,-7.14629 -6.18525,-8.87544c-2.54416,-1.81736 -5.62523,-3.44619 -7.95201,-5.36579c-3.73282,-3.07957 -7.06535,-6.97497 -11.34406,-9.42578c-2.11236,-1.20995 -4.68161,-1.614 -6.88187,-2.69019c-5.51281,-2.69641 -10.96324,-5.5188 -16.46706,-8.23353c-3.47952,-1.71625 -7.68131,-2.43152 -11.28733,-4.14217c-2.61307,-1.2396 -9.79481,-1.35023 -13.01956,-1.89213c-3.36582,-0.5656 -6.8802,-2.49423 -10.29333,-2.61238c-1.61241,-0.05581 -3.21752,-0.05729 -4.81312,-0.0795c-0.66251,0.05266 -1.33229,0.0795 -2.00833,0.0795c-2.13766,0 -4.21265,-0.26829 -6.19314,-0.77305c-2.12908,-0.43743 -4.23324,-1.15732 -6.30686,-2.35195c-4.57715,-2.63693 -6.97339,-5.23253 -8.51909,-8.33438z" fill="#66ceff" stroke-width="0.5"/><path d="M-84.59029,87.01399c-2.51895,-3.90211 -3.98091,-8.55064 -3.98091,-13.54062c0,-4.59848 1.24155,-8.90697 3.40772,-12.60857c1.13049,-4.18282 4.75623,-7.04679 8.97943,-8.98121c3.70255,-2.16773 8.0126,-3.41023 12.61285,-3.41023c9.0605,-1.18692 17.30824,0.84551 25.92395,2.89343c4.57752,1.08805 9.37373,1.22121 14.01834,2.0017c4.21534,0.70835 17.31081,5.72927 21.08468,7.65248c9.6175,4.90123 20.1992,8.90236 29.73296,14.11573c6.47229,3.53927 12.12881,8.3439 17.53118,13.16471c2.70055,2.40983 5.84211,4.05123 8.48567,6.53332c7.05217,6.62142 17.82833,20.42765 22.21535,29.20169c2.10371,4.20743 5.14738,13.70096 6.62481,18.51163c0.96106,3.12932 3.2668,5.73154 4.26742,8.99911c0.93031,3.03795 1.06155,6.25963 1.78939,9.34278c0.86599,3.6684 2.92735,6.9771 3.56627,10.77928c2.03391,12.10358 5.35838,23.56587 9.61821,35.03959c0.57377,1.54542 0.69407,3.2861 1.54517,4.69789c2.5232,4.18545 5.40578,9.78509 9.28969,12.91492c3.13579,2.52695 6.44492,4.5306 8.93372,7.849c4.87311,6.49749 17.54258,18.41557 24.60159,21.94508c6.54791,3.27395 13.62932,7.5883 20.74633,9.24705c7.71616,1.79839 16.18963,3.24622 23.78332,5.57163c27.91975,8.54983 56.79284,12.90264 86.39675,7.76723c3.53765,-0.61368 6.26507,-2.21367 9.69079,-3.26272c7.61414,-2.33167 15.43389,-3.52431 22.73284,-7.29865c3.27314,-1.69256 5.59124,-5.65568 8.34107,-7.92428c4.69822,-3.87602 9.5945,-8.32088 14.27253,-12.32827c3.11533,-2.66872 6.15567,-7.19213 9.05225,-9.91179c6.04177,-5.67273 15.79768,-12.67596 23.67939,-15.08956c7.02142,-2.15016 13.80584,-1.18945 20.80565,0.18615c11.86794,2.33228 23.29349,4.66111 34.23015,10.46984c10.73336,5.70076 23.54687,17.96563 31.71523,26.95609c2.43949,2.68502 4.12196,5.78341 6.53332,8.48567c1.80288,2.02037 4.03795,3.63835 5.76115,5.72708c0.45143,0.54719 0.36166,1.44246 0.86129,1.94601c12.49625,12.59434 21.32196,21.95028 28.19445,38.54192c5.03352,12.152 11.35072,21.6843 13.60313,35.5643c0.56981,3.5113 -0.12321,7.11201 0.93924,10.50794c2.06484,6.59991 5.06724,12.65113 6.56708,19.43498c1.65981,7.50741 0.92697,15.08164 1.91973,22.6219c0.70651,5.36615 1.29867,10.80023 2.85244,15.98488c1.34819,4.49866 3.10648,8.76398 3.15357,13.51763c0.17959,18.12916 2.61351,40.16901 -4.6265,57.54504c-2.29781,5.51475 -8.41821,9.06806 -13.69766,11.36219c-3.79221,1.64786 -8.54495,3.07809 -12.57789,2.79508c-10.03322,-0.70409 -16.14807,-4.34528 -20.96314,-13.97542c-2.23185,-4.4637 -3.24661,-9.69132 -2.96978,-14.6742c0.2211,-3.97974 4.76961,-6.95122 4.83497,-10.93657c0.15337,-9.3518 0.48365,-18.71863 0,-28.05917c-0.16123,-3.11376 -1.91169,-5.94516 -2.58478,-8.98958c-1.25498,-5.67638 -1.88717,-11.47338 -2.93575,-17.19148c-1.29676,-7.07146 -0.87915,-14.4165 -1.98699,-21.52373c-0.77116,-4.9473 -3.95954,-9.9339 -5.25957,-14.85332c-1.4036,-5.31131 -1.0198,-10.42443 -2.24793,-15.51996c-1.81414,-7.52687 -6.01659,-11.55119 -8.3158,-18.44883c-1.35516,-4.0655 -2.0711,-7.05903 -4.2348,-10.81362c-1.03523,-1.7964 -3.11411,-2.76328 -4.43355,-4.3626c-1.1419,-1.38413 -1.3555,-3.81811 -2.58623,-5.17246c-5.66985,-6.23938 -12.9716,-12.22951 -18.4348,-18.85157c-1.73464,-2.10259 -3.04653,-4.96059 -4.85936,-7.15017c-1.08569,-1.31131 -3.32459,-2.22817 -4.59204,-3.53083c-6.27632,-6.45066 -12.10033,-12.83185 -20.88151,-16.00661c-12.72611,-4.60101 -14.31156,3.24706 -22.61788,10.87033c-8.5811,7.87547 -20.40101,20.28534 -30.52135,25.70403c-10.55101,5.64928 -18.17935,8.05461 -30.30168,11.86692c-1.34041,0.42154 -2.93751,0.14088 -4.1173,0.90408c-5.32602,3.44536 -14.65439,4.57355 -20.77919,4.89225c-3.0638,0.15942 -5.3823,1.46718 -8.53473,1.4926c-14.57257,0.11751 -30.57596,0.15576 -45.149,0.15576c-4.96651,0 -11.10324,-1.63717 -15.92676,-3.14602c-5.55709,-1.73832 -11.74208,-1.1906 -17.40051,-2.79717c-1.78216,-0.506 -3.42117,-1.51711 -5.24645,-1.83409c-3.87348,-0.67267 -8.27545,-1.08016 -11.65726,-3.26783c-1.79771,-1.16293 -5.6447,-1.06538 -7.7955,-1.5409c-5.0517,-1.11687 -10.51803,-2.31703 -15.44743,-3.82655c-7.41046,-2.2693 -14.6927,-6.26038 -21.63711,-9.63107c-2.5837,-1.25409 -6.12889,-1.34142 -8.87663,-2.76266c-1.90957,-0.98771 -3.44466,-3.34805 -5.31198,-4.33164c-6.89556,-3.63215 -10.05844,-7.56563 -16.13327,-13.13027c-13.29702,-12.18028 -30.63391,-25.9821 -39.15366,-42.15666c-0.98359,-1.86732 -3.34393,-3.40241 -4.33164,-5.31198c-1.6612,-3.21166 -1.75763,-6.55251 -2.85275,-9.77749c-0.29879,-0.8799 -1.23935,-1.45824 -1.65175,-2.23452c-1.34496,-2.53169 -1.95284,-5.87535 -2.73437,-8.59375c-3.4931,-12.14992 -5.94948,-24.82027 -9.65936,-36.935c-1.07127,-3.49827 -1.29917,-7.34431 -2.47103,-10.79529c-0.53412,-1.5729 -1.88368,-2.64898 -2.41979,-4.33389c-2.31041,-7.2613 -4.96022,-13.70993 -8.72665,-20.24131c-1.43902,-2.49542 -3.76459,-7.14629 -6.18526,-8.87544c-2.54415,-1.81736 -5.62523,-3.44619 -7.95201,-5.36579c-3.73282,-3.07957 -7.06536,-6.97497 -11.34407,-9.42578c-2.11237,-1.20995 -4.68161,-1.614 -6.88187,-2.69018c-5.51281,-2.69641 -10.96325,-5.51881 -16.46706,-8.23353c-3.47952,-1.71625 -7.68131,-2.43152 -11.28733,-4.14216c-2.61307,-1.2396 -9.79481,-1.35023 -13.01956,-1.89213c-3.36582,-0.5656 -6.8802,-2.49423 -10.29333,-2.61237c-1.61241,-0.05581 -3.21752,-0.05729 -4.81312,-0.0795c-0.66251,0.05266 -1.33229,0.0795 -2.00833,0.0795c-2.13766,0 -4.21265,-0.2683 -6.19315,-0.77305c-2.12908,-0.43743 -4.23323,-1.15732 -6.30685,-2.35195c-4.57714,-2.63693 -6.97339,-5.23253 -8.51909,-8.33438z" fill="#66b8ff" stroke-width="0.5"/><path d="M-107.11281,129.05603c-2.51895,-3.90211 -3.98091,-8.55064 -3.98091,-13.54062c0,-4.59847 1.24154,-8.90697 3.40772,-12.60856c1.13049,-4.18282 4.75623,-7.04679 8.97943,-8.9812c3.70256,-2.16773 8.0126,-3.41023 12.61285,-3.41023c9.0605,-1.18692 17.30824,0.84551 25.92395,2.89343c4.57752,1.08805 9.37373,1.22121 14.01833,2.0017c4.21535,0.70835 17.31081,5.72927 21.08467,7.65249c9.6175,4.90122 20.19921,8.90235 29.73296,14.11573c6.4723,3.53927 12.12881,8.34391 17.53118,13.16471c2.70055,2.40983 5.84211,4.05123 8.48567,6.53332c7.05217,6.62142 17.82833,20.42765 22.21535,29.20169c2.10371,4.20743 5.14738,13.70096 6.62481,18.51163c0.96106,3.12932 3.2668,5.73153 4.26742,8.9991c0.93031,3.03794 1.06155,6.25963 1.78939,9.34278c0.86599,3.6684 2.92735,6.9771 3.56627,10.77927c2.03391,12.10358 5.35838,23.56587 9.61821,35.0396c0.57377,1.54542 0.69407,3.2861 1.54517,4.69789c2.5232,4.18545 5.40577,9.78508 9.28969,12.91491c3.13578,2.52695 6.44492,4.5306 8.93372,7.849c4.87312,6.49748 17.54258,18.41557 24.60159,21.94508c6.5479,3.27395 13.62933,7.5883 20.74633,9.24705c7.71616,1.79839 16.18962,3.24622 23.78331,5.57163c27.91975,8.54983 56.79284,12.90265 86.39674,7.76723c3.53766,-0.61368 6.26507,-2.21367 9.69079,-3.26272c7.61414,-2.33167 15.43389,-3.52431 22.73284,-7.29865c3.27314,-1.69256 5.59124,-5.65568 8.34106,-7.92428c4.69822,-3.87602 9.59451,-8.32088 14.27253,-12.32827c3.11533,-2.66872 6.15567,-7.19213 9.05225,-9.91179c6.04176,-5.67273 15.79767,-12.67595 23.67939,-15.08956c7.02142,-2.15016 13.80584,-1.18945 20.80565,0.18614c11.86794,2.33228 23.29349,4.66111 34.23014,10.46985c10.73336,5.70076 23.54688,17.96563 31.71524,26.95609c2.43949,2.68502 4.12196,5.78341 6.53332,8.48567c1.80288,2.02037 4.03795,3.63835 5.76115,5.72709c0.45142,0.54718 0.36166,1.44246 0.86129,1.94601c12.49625,12.59435 21.32196,21.95028 28.19445,38.54192c5.03352,12.152 11.35072,21.68431 13.60313,35.5643c0.56981,3.5113 -0.12321,7.11201 0.93924,10.50793c2.06484,6.59991 5.06724,12.65113 6.56708,19.43498c1.65981,7.50742 0.92696,15.08164 1.91973,22.62191c0.70652,5.36615 1.29867,10.80023 2.85244,15.98488c1.34819,4.49867 3.10648,8.76399 3.15357,13.51764c0.17959,18.12916 2.61351,40.16902 -4.6265,57.54504c-2.29781,5.51475 -8.41821,9.06806 -13.69766,11.36218c-3.79221,1.64786 -8.54495,3.0781 -12.57788,2.79508c-10.03322,-0.70409 -16.14806,-4.34528 -20.96313,-13.97542c-2.23185,-4.46369 -3.24661,-9.69132 -2.96978,-14.6742c0.22109,-3.97975 4.7696,-6.95122 4.83496,-10.93657c0.15337,-9.3518 0.48365,-18.71863 0,-28.05918c-0.16123,-3.11376 -1.91169,-5.94516 -2.58477,-8.98958c-1.25499,-5.67638 -1.88718,-11.47338 -2.93575,-17.19148c-1.29676,-7.07146 -0.87915,-14.4165 -1.98699,-21.52373c-0.77116,-4.9473 -3.95954,-9.9339 -5.25957,-14.85332c-1.4036,-5.31132 -1.0198,-10.42443 -2.24793,-15.51996c-1.81413,-7.52687 -6.01659,-11.55119 -8.3158,-18.44884c-1.35517,-4.0655 -2.0711,-7.05903 -4.2348,-10.81362c-1.03523,-1.7964 -3.11411,-2.76328 -4.43355,-4.36261c-1.14191,-1.38412 -1.3555,-3.81811 -2.58623,-5.17246c-5.66985,-6.23938 -12.97159,-12.22951 -18.43479,-18.85157c-1.73464,-2.10259 -3.04652,-4.96059 -4.85936,-7.15017c-1.08569,-1.31131 -3.32459,-2.22817 -4.59204,-3.53083c-6.27632,-6.45066 -12.10033,-12.83185 -20.88151,-16.00661c-12.72611,-4.60101 -14.31156,3.24706 -22.61788,10.87034c-8.5811,7.87546 -20.40101,20.28534 -30.52135,25.70403c-10.55101,5.64928 -18.17935,8.05461 -30.30168,11.86691c-1.34041,0.42154 -2.93751,0.14088 -4.1173,0.90408c-5.32602,3.44537 -14.6544,4.57356 -20.77919,4.89225c-3.0638,0.15942 -5.3823,1.46717 -8.53473,1.4926c-14.57256,0.11751 -30.57596,0.15576 -45.149,0.15576c-4.9665,0 -11.10324,-1.63718 -15.92676,-3.14603c-5.55709,-1.73832 -11.74208,-1.1906 -17.40051,-2.79717c-1.78216,-0.506 -3.42117,-1.51711 -5.24645,-1.83409c-3.87348,-0.67267 -8.27545,-1.08016 -11.65726,-3.26783c-1.79771,-1.16293 -5.64469,-1.06538 -7.79549,-1.54089c-5.0517,-1.11687 -10.51804,-2.31703 -15.44743,-3.82655c-7.41046,-2.26929 -14.69269,-6.26037 -21.6371,-9.63107c-2.5837,-1.25409 -6.12889,-1.34141 -8.87663,-2.76266c-1.90957,-0.98771 -3.44466,-3.34806 -5.31198,-4.33165c-6.89557,-3.63215 -10.05844,-7.56563 -16.13328,-13.13027c-13.29702,-12.18029 -30.63391,-25.9821 -39.15365,-42.15666c-0.98359,-1.86732 -3.34393,-3.40241 -4.33164,-5.31199c-1.6612,-3.21166 -1.75762,-6.5525 -2.85275,-9.77749c-0.2988,-0.8799 -1.23935,-1.45824 -1.65176,-2.23452c-1.34495,-2.53169 -1.95283,-5.87535 -2.73437,-8.59375c-3.4931,-12.14992 -5.94948,-24.82027 -9.65936,-36.935c-1.07127,-3.49827 -1.29916,-7.34431 -2.47103,-10.79529c-0.53412,-1.5729 -1.88368,-2.64898 -2.41979,-4.3339c-2.31042,-7.2613 -4.96023,-13.70992 -8.72665,-20.24131c-1.43902,-2.49542 -3.76459,-7.14629 -6.18526,-8.87544c-2.54415,-1.81736 -5.62523,-3.4462 -7.95201,-5.36579c-3.73282,-3.07958 -7.06535,-6.97497 -11.34406,-9.42578c-2.11236,-1.20995 -4.68161,-1.614 -6.88187,-2.69018c-5.51281,-2.69641 -10.96324,-5.51881 -16.46705,-8.23353c-3.47952,-1.71625 -7.68132,-2.43152 -11.28734,-4.14217c-2.61307,-1.23961 -9.79481,-1.35023 -13.01956,-1.89213c-3.36582,-0.5656 -6.88019,-2.49423 -10.29332,-2.61237c-1.61241,-0.05581 -3.21752,-0.05729 -4.81312,-0.0795c-0.66251,0.05266 -1.33229,0.0795 -2.00833,0.0795c-2.13766,0 -4.21265,-0.2683 -6.19315,-0.77305c-2.12907,-0.43743 -4.23323,-1.15732 -6.30685,-2.35195c-4.57715,-2.63693 -6.97339,-5.23253 -8.51909,-8.33438z" fill="#31beff" stroke-width="0.5"/><path d="M-139.65035,161.59357c-2.51895,-3.90211 -3.98091,-8.55063 -3.98091,-13.54062c0,-4.59848 1.24154,-8.90697 3.40772,-12.60856c1.13049,-4.18282 4.75623,-7.04679 8.97943,-8.9812c3.70255,-2.16772 8.0126,-3.41023 12.61285,-3.41023c9.0605,-1.18692 17.30824,0.84552 25.92396,2.89343c4.57752,1.08806 9.37373,1.22121 14.01834,2.0017c4.21535,0.70836 17.31081,5.72927 21.08468,7.65249c9.6175,4.90123 20.19921,8.90236 29.73295,14.11573c6.4723,3.53927 12.12881,8.34391 17.53118,13.16471c2.70055,2.40983 5.84211,4.05123 8.48567,6.53332c7.05217,6.62142 17.82833,20.42765 22.21535,29.20169c2.10371,4.20743 5.14738,13.70096 6.62481,18.51163c0.96106,3.12932 3.2668,5.73153 4.26742,8.9991c0.93031,3.03795 1.06156,6.25963 1.78939,9.34278c0.86599,3.6684 2.92734,6.9771 3.56627,10.77928c2.03391,12.10358 5.35839,23.56586 9.61822,35.03959c0.57377,1.54542 0.69407,3.2861 1.54517,4.69789c2.5232,4.18545 5.40578,9.78508 9.28969,12.91492c3.13578,2.52695 6.44492,4.53059 8.93372,7.849c4.87312,6.49749 17.54258,18.41557 24.60159,21.94507c6.54791,3.27395 13.62933,7.5883 20.74634,9.24705c7.71616,1.79839 16.18962,3.24622 23.78331,5.57163c27.91975,8.54983 56.79284,12.90265 86.39674,7.76723c3.53765,-0.61368 6.26507,-2.21367 9.69079,-3.26273c7.61414,-2.33167 15.43389,-3.52431 22.73284,-7.29865c3.27313,-1.69256 5.59124,-5.65568 8.34106,-7.92428c4.69822,-3.87603 9.59451,-8.32088 14.27253,-12.32827c3.11533,-2.66872 6.15567,-7.19213 9.05225,-9.91179c6.04176,-5.67273 15.79768,-12.67595 23.67939,-15.08956c7.02142,-2.15016 13.80583,-1.18945 20.80564,0.18615c11.86794,2.33227 23.29349,4.66111 34.23014,10.46985c10.73336,5.70076 23.54687,17.96563 31.71524,26.95609c2.43949,2.68502 4.12196,5.78341 6.53332,8.48567c1.80288,2.02037 4.03795,3.63835 5.76116,5.72708c0.45142,0.54719 0.36166,1.44246 0.86129,1.94601c12.49625,12.59435 21.32196,21.95028 28.19445,38.54192c5.03352,12.15199 11.35072,21.6843 13.60313,35.5643c0.56981,3.5113 -0.12321,7.11201 0.93924,10.50793c2.06483,6.59991 5.06724,12.65113 6.56707,19.43498c1.65981,7.50742 0.92696,15.08164 1.91973,22.6219c0.70651,5.36615 1.29867,10.80024 2.85244,15.98488c1.34819,4.49866 3.10648,8.76398 3.15357,13.51763c0.17959,18.12916 2.61351,40.16901 -4.6265,57.54504c-2.29781,5.51475 -8.4182,9.06806 -13.69766,11.36218c-3.79221,1.64786 -8.54495,3.07809 -12.57788,2.79508c-10.03322,-0.70408 -16.14806,-4.34528 -20.96313,-13.97542c-2.23185,-4.46369 -3.2466,-9.69132 -2.96978,-14.6742c0.2211,-3.97974 4.7696,-6.95122 4.83497,-10.93657c0.15337,-9.3518 0.48365,-18.71863 0,-28.05917c-0.16123,-3.11376 -1.91169,-5.94516 -2.58478,-8.98958c-1.25499,-5.67638 -1.88717,-11.47338 -2.93575,-17.19148c-1.29676,-7.07146 -0.87915,-14.4165 -1.98699,-21.52373c-0.77116,-4.94731 -3.95954,-9.9339 -5.25957,-14.85333c-1.4036,-5.31131 -1.0198,-10.42443 -2.24793,-15.51996c-1.81414,-7.52687 -6.01659,-11.55119 -8.31581,-18.44884c-1.35516,-4.0655 -2.0711,-7.05903 -4.2348,-10.81362c-1.03523,-1.7964 -3.11411,-2.76328 -4.43355,-4.36261c-1.1419,-1.38413 -1.3555,-3.81811 -2.58623,-5.17245c-5.66984,-6.23938 -12.9716,-12.22951 -18.4348,-18.85157c-1.73464,-2.10259 -3.04652,-4.96059 -4.85936,-7.15017c-1.08569,-1.31131 -3.32458,-2.22817 -4.59204,-3.53083c-6.27631,-6.45066 -12.10033,-12.83185 -20.88151,-16.00661c-12.72611,-4.60101 -14.31156,3.24706 -22.61788,10.87033c-8.5811,7.87547 -20.40101,20.28533 -30.52135,25.70403c-10.551,5.64928 -18.17935,8.05461 -30.30167,11.86691c-1.34041,0.42154 -2.93751,0.14088 -4.1173,0.90408c-5.32602,3.44537 -14.65439,4.57356 -20.77919,4.89225c-3.06379,0.15942 -5.3823,1.46717 -8.53472,1.4926c-14.57256,0.11751 -30.57596,0.15576 -45.149,0.15576c-4.96651,0 -11.10324,-1.63717 -15.92675,-3.14603c-5.55709,-1.73832 -11.74209,-1.1906 -17.40051,-2.79717c-1.78216,-0.506 -3.42117,-1.51711 -5.24646,-1.8341c-3.87348,-0.67266 -8.27545,-1.08016 -11.65726,-3.26783c-1.79771,-1.16293 -5.6447,-1.06538 -7.79549,-1.5409c-5.0517,-1.11687 -10.51804,-2.31703 -15.44743,-3.82655c-7.41046,-2.2693 -14.69269,-6.26038 -21.6371,-9.63107c-2.5837,-1.25408 -6.12889,-1.34141 -8.87663,-2.76266c-1.90957,-0.98771 -3.44465,-3.34806 -5.31198,-4.33165c-6.89557,-3.63215 -10.05844,-7.56562 -16.13328,-13.13027c-13.29702,-12.18028 -30.63391,-25.9821 -39.15365,-42.15666c-0.98359,-1.86733 -3.34393,-3.40241 -4.33164,-5.31198c-1.6612,-3.21166 -1.75763,-6.55251 -2.85275,-9.77749c-0.29879,-0.8799 -1.23935,-1.45824 -1.65176,-2.23452c-1.34495,-2.53169 -1.95283,-5.87535 -2.73437,-8.59375c-3.4931,-12.14992 -5.94947,-24.82027 -9.65935,-36.935c-1.07127,-3.49826 -1.29917,-7.34431 -2.47103,-10.79529c-0.53412,-1.5729 -1.88368,-2.64898 -2.41979,-4.33389c-2.31042,-7.2613 -4.96023,-13.70993 -8.72666,-20.24131c-1.43902,-2.49541 -3.76459,-7.14629 -6.18525,-8.87544c-2.54415,-1.81736 -5.62523,-3.44619 -7.95201,-5.36579c-3.73282,-3.07957 -7.06536,-6.97497 -11.34406,-9.42579c-2.11237,-1.20995 -4.68162,-1.614 -6.88188,-2.69018c-5.51281,-2.69641 -10.96324,-5.5188 -16.46705,-8.23353c-3.47952,-1.71625 -7.68132,-2.43152 -11.28734,-4.14217c-2.61307,-1.2396 -9.79481,-1.35023 -13.01957,-1.89213c-3.36582,-0.5656 -6.88019,-2.49423 -10.29332,-2.61237c-1.61241,-0.05581 -3.21752,-0.05729 -4.81312,-0.0795c-0.66251,0.05266 -1.33228,0.0795 -2.00833,0.0795c-2.13766,0 -4.21265,-0.2683 -6.19314,-0.77305c-2.12907,-0.43743 -4.23324,-1.15732 -6.30686,-2.35195c-4.57714,-2.63693 -6.97338,-5.23253 -8.51909,-8.33438z" fill="#41a6ff" stroke-width="0.5"/><path d="M-45.02252,309.77665c2.07362,-1.19463 4.17778,-1.91452 6.30685,-2.35195c1.98049,-0.50475 4.05549,-0.77305 6.19315,-0.77305c0.67605,0 1.34582,0.02683 2.00833,0.0795c1.5956,-0.02221 3.20071,-0.02368 4.81312,-0.0795c3.41313,-0.11815 6.9275,-2.04678 10.29332,-2.61238c3.22475,-0.54189 10.40649,-0.65252 13.01957,-1.89213c3.60602,-1.71064 7.80782,-2.42591 11.28734,-4.14217c5.50381,-2.71472 10.95425,-5.53712 16.46705,-8.23353c2.20026,-1.07618 4.76951,-1.48024 6.88187,-2.69019c4.27871,-2.45082 7.61124,-6.34621 11.34406,-9.42579c2.32678,-1.91959 5.40786,-3.54842 7.95201,-5.36579c2.42067,-1.72915 4.74623,-6.38003 6.18525,-8.87544c3.76643,-6.53139 6.41624,-12.98001 8.72665,-20.24131c0.53611,-1.68492 1.88567,-2.76099 2.41979,-4.3339c1.17186,-3.45097 1.39976,-7.29702 2.47103,-10.79528c3.70988,-12.11473 6.16626,-24.78508 9.65936,-36.935c0.78154,-2.7184 1.38942,-6.06207 2.73438,-8.59375c0.4124,-0.77629 1.35296,-1.35462 1.65176,-2.23452c1.09512,-3.22498 1.19155,-6.56583 2.85275,-9.77749c0.98771,-1.90957 3.34805,-3.44466 4.33164,-5.31198c8.51975,-16.17456 25.85664,-29.97638 39.15366,-42.15666c6.07483,-5.56465 9.23771,-9.49812 16.13327,-13.13027c1.86732,-0.98359 3.40241,-3.34393 5.31198,-4.33164c2.74774,-1.42124 6.29293,-1.50858 8.87663,-2.76266c6.94441,-3.3707 14.22665,-7.36178 21.63711,-9.63107c4.92939,-1.50952 10.39573,-2.70967 15.44743,-3.82655c2.1508,-0.47552 5.99778,-0.37797 7.79549,-1.5409c3.38182,-2.18767 7.78378,-2.59516 11.65726,-3.26783c1.82528,-0.31698 3.46429,-1.3281 5.24645,-1.8341c5.65842,-1.60657 11.84342,-1.05885 17.40051,-2.79717c4.82351,-1.50885 10.96025,-3.14602 15.92675,-3.14602c14.57304,0 30.57644,0.03825 45.149,0.15576c3.15242,0.02542 5.47093,1.33317 8.53472,1.49259c6.12479,0.3187 15.45317,1.44689 20.77919,4.89225c1.1798,0.7632 2.7769,0.48254 4.11731,0.90408c12.12232,3.8123 19.75067,6.21763 30.30167,11.86691c10.12035,5.41869 21.94025,17.82857 30.52135,25.70403c8.30632,7.62328 9.89177,15.47135 22.61788,10.87034c8.78118,-3.17476 14.60519,-9.55595 20.88151,-16.00661c1.26745,-1.30266 3.50635,-2.21952 4.59204,-3.53083c1.81284,-2.18957 3.12472,-5.04758 4.85936,-7.15017c5.4632,-6.62206 12.76495,-12.61219 18.43479,-18.85157c1.23072,-1.35435 1.44432,-3.78833 2.58623,-5.17245c1.31944,-1.59932 3.39832,-2.56621 4.43356,-4.36261c2.1637,-3.75459 2.87963,-6.74812 4.2348,-10.81362c2.29922,-6.89765 6.50167,-10.92197 8.3158,-18.44884c1.22813,-5.09553 0.84434,-10.20865 2.24794,-15.51996c1.30004,-4.91942 4.48841,-9.90602 5.25957,-14.85332c1.10784,-7.10723 0.69023,-14.45226 1.98698,-21.52373c1.04858,-5.7181 1.68077,-11.51511 2.93575,-17.19149c0.67309,-3.04441 2.42354,-5.87582 2.58477,-8.98958c0.48365,-9.34055 0.15337,-18.70738 0,-28.05918c-0.06536,-3.98535 -4.61386,-6.95682 -4.83496,-10.93657c-0.27683,-4.98288 0.73793,-10.2105 2.96978,-14.6742c4.81507,-9.63014 10.92992,-13.27134 20.96314,-13.97542c4.03294,-0.28301 8.78567,1.14722 12.57788,2.79508c5.27946,2.29413 11.39985,5.84743 13.69766,11.36218c7.24001,17.37603 4.80609,39.41588 4.6265,57.54505c-0.04709,4.75365 -1.80538,9.01897 -3.15357,13.51764c-1.55377,5.18464 -2.14592,10.61873 -2.85244,15.98488c-0.99276,7.54027 -0.25993,15.11449 -1.91973,22.62191c-1.49983,6.78386 -4.50224,12.83508 -6.56707,19.43499c-1.06244,3.39593 -0.36943,6.99663 -0.93924,10.50793c-2.25241,13.88 -8.56961,23.4123 -13.60313,35.5643c-6.87248,16.59164 -15.6982,25.94757 -28.19445,38.54192c-0.49963,0.50355 -0.40986,1.39882 -0.86128,1.94601c-1.72321,2.08874 -3.95828,3.70671 -5.76116,5.72709c-2.41136,2.70226 -4.09383,5.80065 -6.53332,8.48567c-8.16836,8.99046 -20.98187,21.25533 -31.71523,26.95609c-10.93666,5.80874 -22.36221,8.13757 -34.23015,10.46984c-6.99981,1.37559 -13.78422,2.33631 -20.80564,0.18615c-7.88171,-2.41361 -17.63763,-9.41682 -23.67939,-15.08956c-2.89658,-2.71966 -5.93691,-7.24307 -9.05225,-9.91179c-4.67802,-4.00739 -9.57432,-8.45224 -14.27253,-12.32827c-2.74982,-2.2686 -5.06793,-6.23172 -8.34106,-7.92428c-7.29895,-3.77434 -15.1187,-4.96698 -22.73284,-7.29865c-3.42572,-1.04905 -6.15313,-2.64905 -9.69078,-3.26273c-29.6039,-5.13542 -58.477,-0.7826 -86.39675,7.76723c-7.59369,2.32541 -16.06715,3.77324 -23.78332,5.57163c-7.11701,1.65875 -14.19843,5.97309 -20.74633,9.24704c-7.05901,3.5295 -19.72847,15.44759 -24.60159,21.94508c-2.4888,3.3184 -5.79794,5.32205 -8.93372,7.849c-3.88392,3.12983 -6.76649,8.72947 -9.28969,12.91492c-0.8511,1.41179 -0.9714,3.15247 -1.54517,4.69789c-4.25983,11.47373 -7.58431,22.93601 -9.61822,35.03959c-0.63892,3.80217 -2.70028,7.11088 -3.56627,10.77928c-0.72783,3.08315 -0.85908,6.30484 -1.78939,9.34278c-1.00062,3.26757 -3.30635,5.86978 -4.26742,8.9991c-1.47744,4.81067 -4.5211,14.30421 -6.62481,18.51163c-4.38702,8.77404 -15.16318,22.58027 -22.21535,29.20169c-2.64356,2.48209 -5.78512,4.12349 -8.48567,6.53332c-5.40237,4.8208 -11.05888,9.62543 -17.53118,13.16471c-9.53375,5.21338 -20.11546,9.21451 -29.73296,14.11573c-3.77386,1.92322 -16.86933,6.94413 -21.08468,7.65249c-4.64461,0.78049 -9.44082,0.91365 -14.01833,2.0017c-8.61571,2.04791 -16.86345,4.08036 -25.92395,2.89343c-4.60025,0 -8.9103,-1.24251 -12.61285,-3.41023c-4.2232,-1.93441 -7.84894,-4.79839 -8.97943,-8.98121c-2.16617,-3.70159 -3.40772,-8.01009 -3.40772,-12.60856c0,-4.98998 1.46195,-9.6385 3.98091,-13.54062c1.54571,-3.10186 3.94195,-5.69746 8.51909,-8.33438z" fill="#66ceff" stroke-width="0.5"/><path d="M-77.56006,281.74362c2.07362,-1.19463 4.17778,-1.91452 6.30685,-2.35195c1.9805,-0.50476 4.05549,-0.77305 6.19315,-0.77305c0.67605,0 1.34583,0.02684 2.00833,0.0795c1.5956,-0.0222 3.2007,-0.02368 4.81312,-0.0795c3.41313,-0.11815 6.92751,-2.04678 10.29333,-2.61238c3.22476,-0.54189 10.4065,-0.65252 13.01957,-1.89213c3.60602,-1.71064 7.80782,-2.42591 11.28733,-4.14216c5.50381,-2.71473 10.95425,-5.53712 16.46706,-8.23353c2.20026,-1.07619 4.76951,-1.48024 6.88188,-2.69019c4.27871,-2.45082 7.61125,-6.34621 11.34407,-9.42579c2.32678,-1.91959 5.40785,-3.54842 7.95201,-5.36578c2.42066,-1.72915 4.74623,-6.38002 6.18525,-8.87544c3.76643,-6.53138 6.41624,-12.98001 8.72665,-20.24131c0.53611,-1.68491 1.88567,-2.76099 2.41979,-4.33389c1.17186,-3.45097 1.39976,-7.29702 2.47103,-10.79529c3.70988,-12.11473 6.16626,-24.78508 9.65936,-36.935c0.78154,-2.7184 1.38942,-6.06206 2.73438,-8.59375c0.41241,-0.77629 1.35296,-1.35462 1.65175,-2.23453c1.09512,-3.22498 1.19155,-6.56583 2.85275,-9.77748c0.98771,-1.90958 3.34805,-3.44466 4.33164,-5.31198c8.51975,-16.17455 25.85664,-29.97638 39.15366,-42.15666c6.07484,-5.56465 9.23771,-9.49812 16.13327,-13.13027c1.86732,-0.98359 3.40241,-3.34393 5.31198,-4.33164c2.74774,-1.42124 6.29293,-1.50858 8.87663,-2.76266c6.94441,-3.37069 14.22665,-7.36178 21.63711,-9.63107c4.92939,-1.50952 10.39573,-2.70967 15.44743,-3.82655c2.1508,-0.47551 5.99778,-0.37796 7.79549,-1.54089c3.38181,-2.18767 7.78378,-2.59516 11.65726,-3.26783c1.82529,-0.31698 3.46429,-1.3281 5.24645,-1.8341c5.65842,-1.60657 11.84342,-1.05884 17.40051,-2.79716c4.82351,-1.50885 10.96025,-3.14603 15.92676,-3.14603c14.57304,0 30.57644,0.03826 45.149,0.15577c3.15242,0.02542 5.47093,1.33317 8.53472,1.49259c6.1248,0.3187 15.45317,1.44689 20.77919,4.89225c1.1798,0.7632 2.7769,0.48254 4.11731,0.90408c12.12232,3.8123 19.75067,6.21763 30.30167,11.86691c10.12035,5.4187 21.94025,17.82857 30.52135,25.70403c8.30631,7.62328 9.89177,15.47135 22.61788,10.87033c8.78118,-3.17476 14.60519,-9.55595 20.88151,-16.00661c1.26745,-1.30266 3.50635,-2.21953 4.59204,-3.53083c1.81284,-2.18957 3.12472,-5.04757 4.85936,-7.15016c5.4632,-6.62206 12.76495,-12.61219 18.4348,-18.85157c1.23072,-1.35434 1.44432,-3.78833 2.58623,-5.17245c1.31944,-1.59932 3.39833,-2.5662 4.43356,-4.36261c2.1637,-3.75459 2.87964,-6.74812 4.2348,-10.81362c2.29922,-6.89764 6.50167,-10.92196 8.3158,-18.44883c1.22813,-5.09553 0.84434,-10.20865 2.24794,-15.51996c1.30003,-4.91942 4.48841,-9.90602 5.25957,-14.85332c1.10784,-7.10723 0.69023,-14.45227 1.98699,-21.52373c1.04858,-5.7181 1.68077,-11.51511 2.93575,-17.19148c0.67309,-3.04441 2.42354,-5.87582 2.58477,-8.98958c0.48365,-9.34055 0.15337,-18.70738 0,-28.05918c-0.06536,-3.98535 -4.61387,-6.95682 -4.83496,-10.93657c-0.27682,-4.98288 0.73793,-10.2105 2.96978,-14.6742c4.81507,-9.63014 10.92991,-13.27134 20.96314,-13.97542c4.03293,-0.28302 8.78567,1.14722 12.57789,2.79508c5.27946,2.29412 11.39985,5.84743 13.69766,11.36218c7.24001,17.37603 4.8061,39.41588 4.62651,57.54505c-0.04709,4.75365 -1.80538,9.01897 -3.15357,13.51764c-1.55377,5.18464 -2.14593,10.61873 -2.85244,15.98488c-0.99276,7.54027 -0.25993,15.11449 -1.91973,22.62191c-1.49983,6.78386 -4.50224,12.83508 -6.56708,19.43499c-1.06245,3.39593 -0.36944,6.99663 -0.93924,10.50794c-2.25242,13.87999 -8.56961,23.4123 -13.60313,35.5643c-6.87248,16.59164 -15.6982,25.94757 -28.19445,38.54192c-0.49963,0.50355 -0.40986,1.39882 -0.86129,1.94601c-1.72321,2.08873 -3.95828,3.70672 -5.76115,5.72709c-2.41136,2.70226 -4.09382,5.80066 -6.53332,8.48567c-8.16836,8.99045 -20.98187,21.25533 -31.71524,26.95609c-10.93665,5.80874 -22.36221,8.13757 -34.23014,10.46985c-6.99981,1.37559 -13.78423,2.3363 -20.80565,0.18614c-7.88171,-2.4136 -17.63763,-9.41683 -23.67939,-15.08956c-2.89658,-2.71965 -5.93691,-7.24306 -9.05225,-9.91178c-4.67802,-4.00738 -9.57432,-8.45224 -14.27253,-12.32827c-2.74982,-2.2686 -5.06793,-6.23172 -8.34107,-7.92429c-7.29895,-3.77434 -15.1187,-4.96698 -22.73284,-7.29865c-3.42572,-1.04906 -6.15313,-2.64905 -9.69079,-3.26272c-29.6039,-5.13541 -58.47699,-0.7826 -86.39674,7.76723c-7.59369,2.32541 -16.06715,3.77324 -23.78331,5.57163c-7.11701,1.65875 -14.19843,5.9731 -20.74634,9.24705c-7.05901,3.5295 -19.72847,15.44759 -24.60158,21.94507c-2.4888,3.3184 -5.79793,5.32205 -8.93372,7.849c-3.88392,3.12983 -6.76649,8.72947 -9.28969,12.91492c-0.8511,1.41179 -0.9714,3.15247 -1.54517,4.69789c-4.25983,11.47373 -7.58431,22.93602 -9.61822,35.0396c-0.63893,3.80217 -2.70028,7.11088 -3.56627,10.77927c-0.72783,3.08315 -0.85908,6.30484 -1.78939,9.34278c-1.00062,3.26757 -3.30635,5.86978 -4.26742,8.9991c-1.47743,4.81067 -4.5211,14.3042 -6.62481,18.51163c-4.38702,8.77404 -15.16318,22.58026 -22.21535,29.20169c-2.64356,2.48209 -5.78512,4.12348 -8.48567,6.53332c-5.40237,4.8208 -11.05889,9.62544 -17.53118,13.16471c-9.53375,5.21337 -20.11546,9.2145 -29.73295,14.11573c-3.77386,1.92322 -16.86933,6.94413 -21.08468,7.65248c-4.6446,0.78049 -9.44082,0.91364 -14.01833,2.0017c-8.61572,2.04791 -16.86346,4.08035 -25.92396,2.89343c-4.60025,0 -8.9103,-1.2425 -12.61285,-3.41023c-4.2232,-1.93442 -7.84894,-4.79839 -8.97943,-8.98121c-2.16618,-3.70159 -3.40772,-8.01009 -3.40772,-12.60856c0,-4.98998 1.46196,-9.63851 3.98091,-13.54062c1.5457,-3.10186 3.94195,-5.69745 8.51909,-8.33438z" fill="#66b8ff" stroke-width="0.5"/><path d="M-100.08259,239.70158c2.07362,-1.19463 4.17778,-1.91452 6.30685,-2.35195c1.9805,-0.50476 4.05549,-0.77305 6.19315,-0.77305c0.67605,0 1.34583,0.02684 2.00833,0.0795c1.5956,-0.0222 3.2007,-0.02368 4.81312,-0.0795c3.41313,-0.11815 6.9275,-2.04678 10.29333,-2.61238c3.22475,-0.54189 10.40649,-0.65252 13.01957,-1.89213c3.60602,-1.71064 7.80781,-2.42591 11.28733,-4.14216c5.50381,-2.71473 10.95425,-5.53712 16.46706,-8.23353c2.20026,-1.07619 4.76951,-1.48024 6.88188,-2.69019c4.27871,-2.45082 7.61125,-6.34621 11.34407,-9.42579c2.32678,-1.91959 5.40785,-3.54842 7.95201,-5.36578c2.42066,-1.72915 4.74623,-6.38003 6.18525,-8.87544c3.76643,-6.53138 6.41624,-12.98001 8.72665,-20.24131c0.53611,-1.68491 1.88567,-2.76099 2.41979,-4.3339c1.17186,-3.45097 1.39976,-7.29702 2.47103,-10.79528c3.70988,-12.11473 6.16626,-24.78508 9.65936,-36.935c0.78154,-2.7184 1.38942,-6.06206 2.73438,-8.59375c0.41241,-0.77629 1.35296,-1.35462 1.65175,-2.23453c1.09512,-3.22498 1.19155,-6.56583 2.85275,-9.77748c0.98771,-1.90958 3.34805,-3.44466 4.33164,-5.31198c8.51975,-16.17456 25.85664,-29.97638 39.15366,-42.15666c6.07484,-5.56465 9.23771,-9.49812 16.13327,-13.13027c1.86732,-0.98359 3.40241,-3.34393 5.31198,-4.33164c2.74774,-1.42124 6.29293,-1.50858 8.87663,-2.76266c6.94441,-3.37069 14.22665,-7.36178 21.63711,-9.63107c4.92939,-1.50952 10.39573,-2.70968 15.44743,-3.82655c2.1508,-0.47552 5.99778,-0.37797 7.79549,-1.5409c3.38181,-2.18767 7.78378,-2.59516 11.65726,-3.26783c1.82529,-0.31698 3.46429,-1.3281 5.24645,-1.8341c5.65842,-1.60657 11.84342,-1.05884 17.40051,-2.79716c4.82351,-1.50885 10.96025,-3.14603 15.92676,-3.14603c14.57304,0 30.57643,0.03826 45.149,0.15577c3.15243,0.02542 5.47093,1.33317 8.53472,1.49259c6.1248,0.3187 15.45317,1.44689 20.77919,4.89225c1.1798,0.7632 2.77689,0.48254 4.1173,0.90408c12.12232,3.8123 19.75067,6.21763 30.30168,11.86691c10.12035,5.4187 21.94025,17.82857 30.52135,25.70403c8.30631,7.62327 9.89177,15.47134 22.61788,10.87033c8.78118,-3.17476 14.60519,-9.55595 20.88151,-16.00661c1.26746,-1.30266 3.50635,-2.21953 4.59204,-3.53083c1.81284,-2.18957 3.12473,-5.04757 4.85936,-7.15016c5.4632,-6.62206 12.76495,-12.61219 18.4348,-18.85157c1.23072,-1.35434 1.44432,-3.78833 2.58623,-5.17245c1.31944,-1.59932 3.39833,-2.5662 4.43355,-4.36261c2.1637,-3.75459 2.87964,-6.74812 4.2348,-10.81362c2.29922,-6.89764 6.50167,-10.92196 8.3158,-18.44883c1.22813,-5.09553 0.84434,-10.20865 2.24793,-15.51996c1.30003,-4.91942 4.48841,-9.90602 5.25957,-14.85332c1.10784,-7.10723 0.69023,-14.45227 1.98699,-21.52373c1.04858,-5.7181 1.68076,-11.51511 2.93575,-17.19148c0.67309,-3.04441 2.42354,-5.87582 2.58477,-8.98958c0.48365,-9.34054 0.15337,-18.70737 0,-28.05917c-0.06536,-3.98535 -4.61387,-6.95683 -4.83496,-10.93657c-0.27683,-4.98288 0.73793,-10.21051 2.96978,-14.6742c4.81507,-9.63014 10.92991,-13.27134 20.96313,-13.97542c4.03293,-0.28302 8.78567,1.14722 12.57789,2.79508c5.27945,2.29413 11.39985,5.84744 13.69766,11.36219c7.24001,17.37603 4.8061,39.41588 4.62651,57.54504c-0.04709,4.75365 -1.80538,9.01897 -3.15357,13.51764c-1.55377,5.18464 -2.14593,10.61873 -2.85244,15.98488c-0.99276,7.54027 -0.25993,15.11449 -1.91973,22.62191c-1.49983,6.78386 -4.50224,12.83508 -6.56708,19.43499c-1.06245,3.39593 -0.36944,6.99663 -0.93924,10.50794c-2.25242,13.87999 -8.56961,23.4123 -13.60313,35.5643c-6.87248,16.59164 -15.6982,25.94757 -28.19445,38.54192c-0.49963,0.50355 -0.40986,1.39882 -0.86129,1.94601c-1.72321,2.08873 -3.95828,3.70671 -5.76115,5.72709c-2.41136,2.70226 -4.09383,5.80066 -6.53332,8.48567c-8.16836,8.99045 -20.98188,21.25533 -31.71524,26.95609c-10.93665,5.80873 -22.36221,8.13757 -34.23014,10.46985c-6.99981,1.37559 -13.78423,2.3363 -20.80565,0.18614c-7.88171,-2.41361 -17.63763,-9.41683 -23.67939,-15.08956c-2.89658,-2.71965 -5.93691,-7.24306 -9.05225,-9.91178c-4.67803,-4.00738 -9.57432,-8.45225 -14.27253,-12.32827c-2.74982,-2.2686 -5.06793,-6.23172 -8.34106,-7.92428c-7.29895,-3.77434 -15.1187,-4.96698 -22.73284,-7.29865c-3.42571,-1.04906 -6.15313,-2.64904 -9.69078,-3.26272c-29.60391,-5.13541 -58.477,-0.7826 -86.39675,7.76723c-7.59369,2.3254 -16.06715,3.77323 -23.78331,5.57163c-7.11701,1.65875 -14.19843,5.9731 -20.74634,9.24705c-7.05901,3.5295 -19.72847,15.44759 -24.60158,21.94507c-2.4888,3.3184 -5.79793,5.32204 -8.93372,7.84899c-3.88392,3.12983 -6.76649,8.72947 -9.28969,12.91492c-0.8511,1.41179 -0.9714,3.15247 -1.54517,4.69789c-4.25983,11.47373 -7.58431,22.93602 -9.61822,35.0396c-0.63893,3.80217 -2.70028,7.11088 -3.56627,10.77928c-0.72783,3.08315 -0.85908,6.30484 -1.78939,9.34278c-1.00062,3.26757 -3.30635,5.86978 -4.26742,8.9991c-1.47743,4.81067 -4.5211,14.30421 -6.62481,18.51163c-4.38702,8.77404 -15.16318,22.58026 -22.21535,29.20169c-2.64356,2.48209 -5.78512,4.12348 -8.48567,6.53332c-5.40237,4.8208 -11.05889,9.62544 -17.53118,13.16471c-9.53375,5.21337 -20.11546,9.2145 -29.73295,14.11573c-3.77386,1.92322 -16.86933,6.94413 -21.08468,7.65248c-4.6446,0.78049 -9.44082,0.91364 -14.01833,2.0017c-8.61572,2.04791 -16.86346,4.08035 -25.92396,2.89343c-4.60025,0 -8.9103,-1.2425 -12.61285,-3.41023c-4.2232,-1.93442 -7.84894,-4.79839 -8.97943,-8.98121c-2.16618,-3.70159 -3.40772,-8.01009 -3.40772,-12.60856c0,-4.98998 1.46196,-9.63851 3.98091,-13.54062c1.5457,-3.10186 3.94195,-5.69746 8.51909,-8.33439z" fill="#31beff" stroke-width="0.5"/><path d="M-132.62013,207.16404c2.07362,-1.19463 4.17778,-1.91451 6.30685,-2.35195c1.9805,-0.50475 4.05549,-0.77305 6.19314,-0.77305c0.67605,0 1.34582,0.02684 2.00833,0.0795c1.5956,-0.0222 3.2007,-0.02368 4.81312,-0.0795c3.41313,-0.11815 6.92751,-2.04677 10.29333,-2.61237c3.22476,-0.5419 10.4065,-0.65253 13.01957,-1.89213c3.60602,-1.71064 7.80782,-2.42591 11.28733,-4.14216c5.50381,-2.71473 10.95425,-5.53712 16.46706,-8.23353c2.20026,-1.07619 4.76951,-1.48024 6.88188,-2.69019c4.27871,-2.45081 7.61124,-6.34621 11.34406,-9.42578c2.32678,-1.91959 5.40785,-3.54842 7.95201,-5.36578c2.42066,-1.72915 4.74624,-6.38002 6.18526,-8.87544c3.76643,-6.53138 6.41624,-12.98001 8.72666,-20.24131c0.53611,-1.68491 1.88567,-2.76099 2.41979,-4.33389c1.17186,-3.45097 1.39976,-7.29702 2.47103,-10.79529c3.70988,-12.11473 6.16626,-24.78508 9.65935,-36.935c0.78154,-2.7184 1.38942,-6.06206 2.73438,-8.59375c0.4124,-0.77629 1.35296,-1.35462 1.65176,-2.23452c1.09513,-3.22498 1.19155,-6.56583 2.85275,-9.77749c0.98771,-1.90957 3.34805,-3.44466 4.33165,-5.31198c8.51975,-16.17455 25.85663,-29.97637 39.15366,-42.15666c6.07484,-5.56464 9.23771,-9.49812 16.13327,-13.13027c1.86732,-0.98359 3.40241,-3.34393 5.31198,-4.33164c2.74774,-1.42124 6.29293,-1.50857 8.87663,-2.76266c6.94441,-3.37069 14.22664,-7.36178 21.6371,-9.63107c4.92939,-1.50952 10.39573,-2.70968 15.44743,-3.82655c2.1508,-0.47552 5.99778,-0.37796 7.79549,-1.54089c3.38181,-2.18767 7.78378,-2.59517 11.65726,-3.26783c1.82529,-0.31698 3.46429,-1.3281 5.24645,-1.8341c5.65842,-1.60657 11.84342,-1.05884 17.40051,-2.79717c4.82352,-1.50885 10.96025,-3.14602 15.92675,-3.14602c14.57304,0 30.57644,0.03825 45.149,0.15576c3.15242,0.02542 5.47093,1.33318 8.53473,1.4926c6.12479,0.31869 15.45317,1.44688 20.77919,4.89225c1.1798,0.7632 2.77689,0.48254 4.1173,0.90408c12.12232,3.81231 19.75067,6.21764 30.30167,11.86692c10.12035,5.4187 21.94026,17.82856 30.52136,25.70403c8.30631,7.62327 9.89177,15.47135 22.61787,10.87033c8.78118,-3.17476 14.6052,-9.55595 20.88151,-16.00661c1.26746,-1.30266 3.50635,-2.21952 4.59204,-3.53083c1.81284,-2.18958 3.12473,-5.04757 4.85936,-7.15017c5.4632,-6.62206 12.76495,-12.61219 18.4348,-18.85157c1.23072,-1.35434 1.44432,-3.78833 2.58623,-5.17245c1.31944,-1.59932 3.39832,-2.5662 4.43355,-4.3626c2.1637,-3.75458 2.87964,-6.74812 4.2348,-10.81362c2.29922,-6.89764 6.50167,-10.92196 8.31581,-18.44883c1.22813,-5.09553 0.84434,-10.20864 2.24793,-15.51996c1.30003,-4.91942 4.48841,-9.90602 5.25957,-14.85332c1.10784,-7.10723 0.69023,-14.45227 1.98699,-21.52373c1.04858,-5.71811 1.68077,-11.51511 2.93575,-17.19148c0.67309,-3.04442 2.42354,-5.87582 2.58477,-8.98958c0.48365,-9.34055 0.15337,-18.70738 0,-28.05917c-0.06536,-3.98535 -4.61387,-6.95683 -4.83497,-10.93657c-0.27682,-4.98288 0.73793,-10.21051 2.96978,-14.6742c4.81507,-9.63014 10.92992,-13.27133 20.96314,-13.97542c4.03293,-0.28301 8.78567,1.14722 12.57788,2.79508c5.27945,2.29413 11.39985,5.84744 13.69766,11.36219c7.24001,17.37603 4.80609,39.41588 4.6265,57.54505c-0.04709,4.75365 -1.80538,9.01897 -3.15357,13.51763c-1.55377,5.18464 -2.14593,10.61873 -2.85244,15.98488c-0.99276,7.54027 -0.25993,15.11449 -1.91973,22.62191c-1.49983,6.78386 -4.50224,12.83508 -6.56707,19.43499c-1.06245,3.39592 -0.36944,6.99663 -0.93924,10.50793c-2.25241,13.88 -8.56961,23.4123 -13.60313,35.5643c-6.87248,16.59164 -15.6982,25.94758 -28.19445,38.54192c-0.49963,0.50355 -0.40986,1.39883 -0.86129,1.94601c-1.72321,2.08873 -3.95828,3.70672 -5.76116,5.72708c-2.41136,2.70226 -4.09382,5.80066 -6.53332,8.48567c-8.16836,8.99046 -20.98187,21.25533 -31.71524,26.95609c-10.93665,5.80874 -22.36221,8.13757 -34.23014,10.46985c-6.99981,1.37559 -13.78422,2.3363 -20.80564,0.18615c-7.88171,-2.41361 -17.63763,-9.41683 -23.67939,-15.08956c-2.89658,-2.71965 -5.93691,-7.24307 -9.05225,-9.91179c-4.67802,-4.00738 -9.57431,-8.45225 -14.27253,-12.32827c-2.74982,-2.2686 -5.06793,-6.23172 -8.34106,-7.92428c-7.29895,-3.77434 -15.1187,-4.96698 -22.73284,-7.29865c-3.42572,-1.04905 -6.15313,-2.64904 -9.69079,-3.26272c-29.60391,-5.13541 -58.477,-0.7826 -86.39675,7.76723c-7.59369,2.3254 -16.06716,3.77323 -23.78332,5.57163c-7.11701,1.65875 -14.19843,5.97309 -20.74633,9.24704c-7.05901,3.5295 -19.72847,15.44759 -24.60159,21.94507c-2.4888,3.3184 -5.79793,5.32205 -8.93372,7.849c-3.88392,3.12983 -6.76649,8.72947 -9.28969,12.91492c-0.8511,1.41179 -0.97141,3.15247 -1.54517,4.69789c-4.25983,11.47373 -7.58431,22.93601 -9.61821,35.03959c-0.63893,3.80218 -2.70028,7.11088 -3.56627,10.77928c-0.72783,3.08315 -0.85908,6.30483 -1.78939,9.34278c-1.00062,3.26757 -3.30635,5.86978 -4.26742,8.9991c-1.47743,4.81067 -4.5211,14.3042 -6.62481,18.51163c-4.38702,8.77404 -15.16318,22.58026 -22.21535,29.20169c-2.64356,2.48209 -5.78512,4.12348 -8.48567,6.53332c-5.40237,4.8208 -11.05888,9.62544 -17.53118,13.16471c-9.53375,5.21337 -20.11545,9.2145 -29.73296,14.11573c-3.77386,1.92322 -16.86933,6.94413 -21.08467,7.65248c-4.64461,0.78049 -9.44082,0.91364 -14.01834,2.0017c-8.61571,2.04791 -16.86345,4.08035 -25.92396,2.89343c-4.60025,0 -8.91029,-1.2425 -12.61285,-3.41023c-4.2232,-1.93442 -7.84894,-4.79839 -8.97943,-8.98121c-2.16617,-3.70159 -3.40772,-8.01009 -3.40772,-12.60856c0,-4.98998 1.46196,-9.63851 3.98091,-13.54062c1.5457,-3.10186 3.94194,-5.69745 8.51909,-8.33438z" fill="#41a6ff" stroke-width="0.5"/></g></g></svg>