<svg version="1.1" xmlns="http://www.w3.org/2000/svg" xmlns:xlink="http://www.w3.org/1999/xlink" width="168.61662" height="338.46179" viewBox="0,0,168.61662,338.46179"><defs><linearGradient x1="222.75715" y1="319.39508" x2="313.75715" y2="319.39508" gradientUnits="userSpaceOnUse" id="color-1"><stop offset="0.012" stop-color="#a7a9ac"/><stop offset="1" stop-color="#414042"/></linearGradient></defs><g transform="translate(-155.69169,-10.7691)"><g stroke-miterlimit="10"><path d="M321.80831,338.1259c0,4.752 -3.854,8.605 -8.605,8.605h-146.40762c-4.752,0 -8.604,-3.854 -8.604,-8.605v-316.25279c0,-4.752 3.852,-8.604 8.604,-8.604h146.40662c4.754,0 8.605,3.852 8.605,8.604z" fill="url(#color-1)" stroke="#000000" stroke-width="5"/><path d="M318.39331,21.87308v316.25179c0,2.862 -2.327,5.19 -5.191,5.19h-146.40662c-2.861,0 -5.19,-2.328 -5.19,-5.19v-316.25279c0,-2.862 2.329,-5.19 5.19,-5.19h146.40662c2.864,0 5.191,2.329 5.191,5.191z" fill="#fcfeff" stroke="none" stroke-width="1"/></g></g></svg>