<svg version="1.1" xmlns="http://www.w3.org/2000/svg" xmlns:xlink="http://www.w3.org/1999/xlink" width="1470.38178" height="1167.33975" viewBox="0,0,1470.38178,1167.33975"><defs><linearGradient x1="-286.24644" y1="-22.6195" x2="716.18642" y2="446.67356" gradientUnits="userSpaceOnUse" id="color-1"><stop offset="0" stop-color="#009eff"/><stop offset="1" stop-color="#66ebff"/></linearGradient><linearGradient x1="-256.2164" y1="-49.64653" x2="746.21645" y2="419.64653" gradientUnits="userSpaceOnUse" id="color-2"><stop offset="0" stop-color="#009eff"/><stop offset="1" stop-color="#66ebff"/></linearGradient><linearGradient x1="-224.78998" y1="-83.17506" x2="777.64288" y2="386.118" gradientUnits="userSpaceOnUse" id="color-3"><stop offset="0" stop-color="#009eff"/><stop offset="1" stop-color="#66ebff"/></linearGradient><linearGradient x1="-31.27495" y1="297.32239" x2="529.00001" y2="297.32239" gradientUnits="userSpaceOnUse" id="color-4"><stop offset="0" stop-color="#003fff"/><stop offset="1" stop-color="#00a2ff"/></linearGradient><linearGradient x1="-14.7699" y1="308.91405" x2="548.00001" y2="308.91405" gradientUnits="userSpaceOnUse" id="color-5"><stop offset="0" stop-color="#00a2ff"/><stop offset="1" stop-color="#003cff"/></linearGradient><linearGradient x1="20.00002" y1="311.91405" x2="540.00001" y2="311.91405" gradientUnits="userSpaceOnUse" id="color-6"><stop offset="0" stop-color="#003fff"/><stop offset="1" stop-color="#00a2ff"/></linearGradient><linearGradient x1="42.00002" y1="324.91405" x2="562.00001" y2="324.91405" gradientUnits="userSpaceOnUse" id="color-7"><stop offset="0" stop-color="#00a2ff"/><stop offset="1" stop-color="#003cff"/></linearGradient><linearGradient x1="28.00002" y1="346.82239" x2="573.00001" y2="346.82239" gradientUnits="userSpaceOnUse" id="color-8"><stop offset="0" stop-color="#003fff"/><stop offset="1" stop-color="#00a2ff"/></linearGradient><linearGradient x1="65.00002" y1="351.91405" x2="585.00001" y2="351.91405" gradientUnits="userSpaceOnUse" id="color-9"><stop offset="0" stop-color="#00a2ff"/><stop offset="1" stop-color="#003cff"/></linearGradient><linearGradient x1="67.00002" y1="369.91405" x2="587.00001" y2="369.91405" gradientUnits="userSpaceOnUse" id="color-10"><stop offset="0" stop-color="#003fff"/><stop offset="1" stop-color="#00a2ff"/></linearGradient><linearGradient x1="89.00002" y1="382.91405" x2="609.00001" y2="382.91405" gradientUnits="userSpaceOnUse" id="color-11"><stop offset="0" stop-color="#00a2ff"/><stop offset="1" stop-color="#003cff"/></linearGradient><linearGradient x1="67.72504" y1="411.32239" x2="628.00001" y2="411.32239" gradientUnits="userSpaceOnUse" id="color-12"><stop offset="0" stop-color="#003fff"/><stop offset="1" stop-color="#00a2ff"/></linearGradient><linearGradient x1="84.2301" y1="422.91405" x2="647.00001" y2="422.91405" gradientUnits="userSpaceOnUse" id="color-13"><stop offset="0" stop-color="#00a2ff"/><stop offset="1" stop-color="#003cff"/></linearGradient><linearGradient x1="119.00002" y1="425.91405" x2="639.00001" y2="425.91405" gradientUnits="userSpaceOnUse" id="color-14"><stop offset="0" stop-color="#003fff"/><stop offset="1" stop-color="#00a2ff"/></linearGradient><linearGradient x1="141" y1="438.91405" x2="661.00001" y2="438.91405" gradientUnits="userSpaceOnUse" id="color-15"><stop offset="0" stop-color="#00a2ff"/><stop offset="1" stop-color="#003cff"/></linearGradient><linearGradient x1="127.00002" y1="460.82239" x2="672.00002" y2="460.82239" gradientUnits="userSpaceOnUse" id="color-16"><stop offset="0" stop-color="#003fff"/><stop offset="1" stop-color="#00a2ff"/></linearGradient><linearGradient x1="164" y1="465.91405" x2="684.00002" y2="465.91405" gradientUnits="userSpaceOnUse" id="color-17"><stop offset="0" stop-color="#00a2ff"/><stop offset="1" stop-color="#003cff"/></linearGradient><linearGradient x1="166" y1="483.91405" x2="686.00002" y2="483.91405" gradientUnits="userSpaceOnUse" id="color-18"><stop offset="0" stop-color="#003fff"/><stop offset="1" stop-color="#00a2ff"/></linearGradient><linearGradient x1="188.00002" y1="496.91405" x2="708.00002" y2="496.91405" gradientUnits="userSpaceOnUse" id="color-19"><stop offset="0" stop-color="#00a2ff"/><stop offset="1" stop-color="#003cff"/></linearGradient><linearGradient x1="-77.49999" y1="51.84845" x2="485.50001" y2="51.84845" gradientUnits="userSpaceOnUse" id="color-20"><stop offset="0" stop-color="#00f3ff"/><stop offset="1" stop-color="#006bff"/></linearGradient><linearGradient x1="-122.49999" y1="19.84845" x2="440.50001" y2="19.84845" gradientUnits="userSpaceOnUse" id="color-21"><stop offset="0" stop-color="#73f8ff"/><stop offset="1" stop-color="#006bff"/></linearGradient><linearGradient x1="-142.69014" y1="-154.64796" x2="374.15618" y2="87.16015" gradientUnits="userSpaceOnUse" id="color-22"><stop offset="0" stop-color="#ffffff"/><stop offset="1" stop-color="#006bff"/></linearGradient><linearGradient x1="-154.69013" y1="-188.64796" x2="362.15618" y2="53.16015" gradientUnits="userSpaceOnUse" id="color-23"><stop offset="0" stop-color="#ffffff"/><stop offset="1" stop-color="#4a95ff"/></linearGradient></defs><g transform="translate(489.49269,401.92063)"><g stroke-miterlimit="10"><path d="M-489.49269,296.12608l406.49248,-637.49115l1002.43284,469.29305l-406.49248,637.49115z" fill="url(#color-1)" stroke="none" stroke-width="0" stroke-linecap="butt"/><path d="M-459.46266,269.09905l406.49248,-637.49115l1002.43284,469.29305l-406.49248,637.49115z" fill="url(#color-2)" stroke="none" stroke-width="0" stroke-linecap="butt"/><path d="M-428.03623,235.57053l406.49248,-637.49115l1002.43284,469.29305l-406.49247,637.49115z" fill="url(#color-3)" stroke="none" stroke-width="0" stroke-linecap="butt"/><path d="M-101.99998,140.5c0,-6.90356 5.59644,-12.5 12.5,-12.5c6.90356,0 12.5,5.59644 12.5,12.5c0,6.90356 -5.59644,12.5 -12.5,12.5c-6.90356,0 -12.5,-5.59644 -12.5,-12.5z" fill="#00a2ff" stroke="none" stroke-width="0.5" stroke-linecap="butt"/><path d="M529.00001,224.687c0,13.46815 -13.46815,13.46815 -13.46815,13.46815c-13.28857,0 -27.6546,0 -40.94317,0c0,0 -4.87092,0 -8.75418,-2.92929c-4.81018,0.08084 -9.61903,-0.13585 -13.87476,-1.55442c-4.11231,0.66527 -7.0271,-0.29137 -10.77452,-1.07745c-1.40635,-0.29501 -2.8704,0.17391 -4.30735,0.17391c-3.23236,0 -6.46471,0 -9.69707,0c-9.33792,0 -18.67583,0 -28.01375,0c-4.98221,0 -10.67926,-0.78905 -15.59365,-0.10091c-4.11845,0.57669 -8.2618,1.12662 -12.4201,1.17836c-6.05792,-0.0978 -11.81863,1.31275 -17.74855,2.05399c-4.49407,0.56176 -8.99332,0.56031 -13.4951,1.00445c-2.77201,0.27348 -19.59724,3.16389 -21.30182,3.34072c-4.16603,0.43218 -19.53294,3.62 -23.16301,4.24517c-4.00276,0.68935 -8.52242,2.71673 -12.41808,3.9888c-7.26278,1.45256 -13.94964,4.13858 -21.02545,6.31426c-4.28773,1.3184 -8.50922,2.84334 -12.76612,4.25815c-1.88063,0.62504 -4.03037,0.48692 -5.76865,1.43869c-4.15422,2.27459 -8.23574,3.8722 -12.61518,5.73156c-6.40001,2.71722 -13.38512,4.03132 -19.64088,7.16462c-6.10053,3.05554 -12.63424,6.57653 -18.05077,10.63893c-5.57463,2.05383 -11.75524,4.26653 -16.69237,7.61574c-2.52832,1.71514 -4.65931,4.02606 -7.34497,5.48252c-0.89019,0.48276 -2.02106,0.40382 -2.89895,0.90862c-1.28331,0.73792 -2.22782,1.9694 -3.47984,2.75924c-5.01621,3.1645 -9.79728,5.79593 -14.53693,9.59429c-1.3282,1.06442 -2.28818,2.54966 -3.64937,3.57156c-10.32832,7.75388 -21.68342,13.81528 -31.37649,22.39006c-4.39299,1.46433 -6.76881,4.58461 -10.39394,7.57841c-4.65162,3.84152 -10.15072,6.67742 -14.79863,10.5336c-1.87245,1.55349 -3.26984,3.66051 -5.2592,5.06117c-1.3133,0.92467 -2.96617,1.27489 -4.30981,2.1549c-5.68508,3.72343 -10.8354,8.79372 -17.04204,11.94723c-0.62832,0.31924 -1.46819,0.06705 -2.06898,0.4355c-0.86596,0.53107 -1.26655,1.66222 -2.1549,2.1549c-3.71496,2.06033 -8.45927,3.19953 -12.51869,4.55267c-1.06571,-0.63015 -1.89493,1.63843 -3.01052,2.17533c-3.58473,1.72522 -9.11956,3.03176 -13.15126,4.28938c-6.80539,2.12283 -13.37829,1.76859 -20.42078,1.76859c-8.61961,0 -17.23923,0 -25.85884,0c0,0 -13.46815,0 -13.46815,-13.46815c0,-13.46815 13.46815,-13.46815 13.46815,-13.46815c8.61961,0 17.23923,0 25.85884,0c3.28769,0 7.59615,0.73014 10.77206,0.17391c2.64775,-0.46373 5.40694,-2.29912 8.0889,-2.86916c0.4714,-0.10019 1.01878,0.36849 1.43959,0.13361c0.7422,-0.41427 0.96602,-1.48058 1.71002,-1.89161c1.89985,-1.04961 4.03599,-1.59851 6.05398,-2.39777c2.25672,-0.75224 4.96807,-0.49057 6.87544,-1.91204c0.81452,-0.60702 1.28055,-1.63778 2.1549,-2.1549c1.35422,-0.80094 2.98337,-1.02611 4.39573,-1.7194c4.83361,-2.3727 8.75384,-6.64492 13.12661,-9.60181c1.33053,-0.89971 2.93474,-1.32486 4.30981,-2.1549c1.39672,-0.84312 2.1084,-2.51245 3.36042,-3.55844c4.82609,-4.03193 23.30565,-18.8848 28.68003,-20.67626c0.9037,-1.44424 2.59888,-2.20433 3.92923,-3.2686c2.14141,-1.71313 4.18439,-3.56292 6.45513,-5.1005c6.10483,-4.13373 20.34036,-14.3923 21.3918,-15.23207c7.88481,-6.29746 17.17604,-13.07444 26.49216,-16.9065c1.43283,-0.58937 9.9911,-6.35994 13.1641,-8.16971c3.53571,-2.01664 6.07155,-3.82352 10.20643,-4.59088c2.50121,-1.87591 5.36277,-3.22954 8.16506,-4.61599c3.63638,-1.79912 60.82064,-25.13574 65.21698,-26.48937c7.40881,-2.28117 14.45477,-5.09159 22.07263,-6.61516c5.10041,-1.75771 10.29864,-3.63043 15.59567,-4.63082c3.38101,-0.63853 30.16238,-4.8255 36.85583,-5.41653c2.43458,-0.21497 16.76265,-2.63406 21.54904,-3.23236c7.06864,-0.88358 13.81489,-2.18529 21.03972,-2.25581c5.24275,0.10978 9.80167,-1.02552 15.08433,-1.07745c17.93265,-0.17628 35.94313,-0.36164 53.87259,0c2.90354,0.05856 5.75797,0.77078 8.62207,1.25136c2.47939,0.41603 5.02942,-0.08108 7.54216,0c1.6227,0.5409 3.3377,0.86179 5.10331,1.04046c3.6879,-2.29182 7.82366,-2.29182 7.82366,-2.29182c7.53686,0 15.09138,-0.15198 22.62649,0c1.79714,0.03625 3.61084,-0.08427 5.38971,0.17391c1.45182,0.21071 2.85915,1.13783 4.30735,0.90354h2.1549c0,0 6.30098,0 10.28332,4.30981c0.16373,0 0.32747,0 0.4912,0h1.07745c0,0 13.46815,0 13.46815,13.46815z" fill="url(#color-4)" stroke="none" stroke-width="0.5" stroke-linecap="butt"/><path d="M548.00001,235.9552c0,13.52812 -13.52812,13.52812 -13.52812,13.52812c-13.34775,0 -27.77774,0 -41.12549,0c0,0 -4.89261,0 -8.79317,-2.94234c-4.8316,0.0812 -9.66187,-0.13644 -13.93655,-1.56134c-4.13062,0.66824 -7.0584,-0.29266 -10.8225,-1.08225c-1.41261,-0.29632 -2.88318,0.17468 -4.32653,0.17468c-3.24675,0 -6.4935,0 -9.74025,0c-9.3795,0 -18.759,0 -28.1385,0c-5.00439,0 -10.72682,-0.79256 -15.66309,-0.10136c-4.13679,0.57926 -8.29859,1.13164 -12.47541,1.18361c-6.0849,-0.09823 -11.87126,1.3186 -17.82759,2.06314c-4.51409,0.56426 -9.03337,0.56281 -13.55519,1.00893c-2.78435,0.2747 -19.68451,3.17797 -21.39669,3.35559c-4.18458,0.43411 -19.61992,3.63613 -23.26616,4.26408c-4.02058,0.69242 -8.56036,2.72883 -12.47338,4.00656c-7.29512,1.45902 -14.01176,4.15701 -21.11908,6.34238c-4.30683,1.32427 -8.54712,2.856 -12.82297,4.27711c-1.88901,0.62782 -4.04832,0.4891 -5.79433,1.4451c-4.17272,2.28472 -8.27241,3.88945 -12.67136,5.75709c-6.42851,2.72932 -13.44473,4.04927 -19.72834,7.19652c-6.12769,3.06915 -12.69049,6.60581 -18.13115,10.6863c-5.59946,2.06297 -11.80759,4.28553 -16.76671,7.64965c-2.53958,1.72277 -4.68005,4.04399 -7.37768,5.50694c-0.89415,0.48491 -2.03006,0.40562 -2.91186,0.91266c-1.28903,0.7412 -2.23774,1.97817 -3.49534,2.77153c-5.03855,3.17859 -9.84091,5.82174 -14.60167,9.63702c-1.33411,1.06916 -2.29836,2.56101 -3.66561,3.58746c-10.37432,7.78841 -21.77998,13.8768 -31.51621,22.48976c-4.41255,1.47085 -6.79895,4.60503 -10.44023,7.61216c-4.67234,3.85863 -10.19592,6.70715 -14.86453,10.58051c-1.88078,1.56041 -3.2844,3.6768 -5.28261,5.08371c-1.31915,0.92879 -2.97938,1.28057 -4.329,2.1645c-5.71039,3.74001 -10.88365,8.83288 -17.11793,12.00044c-0.63112,0.32067 -1.47473,0.06735 -2.0782,0.43744c-0.86981,0.53344 -1.27219,1.66962 -2.1645,2.1645c-3.7315,2.0695 -8.49694,3.21378 -12.57444,4.57294c-1.07045,-0.63295 -1.90336,1.64573 -3.02393,2.18502c-3.60069,1.7329 -9.16017,3.04526 -13.20982,4.30848c-6.8357,2.13229 -13.43786,1.77647 -20.51171,1.77647c-8.658,0 -17.316,0 -25.974,0c0,0 -13.52812,0 -13.52812,-13.52812c0,-13.52812 13.52812,-13.52812 13.52812,-13.52812c8.658,0 17.316,0 25.974,0c3.30233,0 7.62998,0.73339 10.82003,0.17468c2.65954,-0.46579 5.43102,-2.30936 8.12492,-2.88193c0.4735,-0.10064 1.02332,0.37013 1.446,0.1342c0.74551,-0.41611 0.97032,-1.48717 1.71763,-1.90004c1.90831,-1.05428 4.05396,-1.60563 6.08094,-2.40844c2.26677,-0.75559 4.99019,-0.49276 6.90606,-1.92056c0.81815,-0.60972 1.28625,-1.64507 2.1645,-2.1645c1.36025,-0.80451 2.99665,-1.03068 4.4153,-1.72706c4.85514,-2.38326 8.79283,-6.67452 13.18507,-9.64456c1.33645,-0.90372 2.94781,-1.33076 4.329,-2.1645c1.40294,-0.84687 2.11779,-2.52364 3.37539,-3.57429c4.84758,-4.04989 23.40943,-18.9689 28.80774,-20.76833c0.90773,-1.45067 2.61046,-2.21414 3.94673,-3.28316c2.15094,-1.72076 4.20302,-3.57879 6.48388,-5.12321c6.13201,-4.15214 20.43094,-14.45639 21.48706,-15.2999c7.91993,-6.3255 17.25252,-13.13266 26.61013,-16.98179c1.4392,-0.592 10.03559,-6.38827 13.22272,-8.20609c3.55146,-2.02563 6.09859,-3.84054 10.25188,-4.61132c2.51235,-1.88426 5.38666,-3.24392 8.20142,-4.63654c3.65257,-1.80714 61.09148,-25.24767 65.5074,-26.60733c7.4418,-2.29133 14.51913,-5.11426 22.17092,-6.64461c5.12312,-1.76554 10.3445,-3.6466 15.66512,-4.65144c3.39606,-0.64137 30.2967,-4.84698 37.01995,-5.44065c2.44542,-0.21593 16.83729,-2.64579 21.645,-3.24675c7.10012,-0.88752 13.87641,-2.19501 21.13341,-2.26586c5.26609,0.11027 9.84532,-1.03009 15.1515,-1.08225c18.01251,-0.17707 36.10319,-0.36325 54.11249,0c2.91647,0.05883 5.78362,0.77421 8.66047,1.25693c2.49044,0.41788 5.05181,-0.08144 7.57575,0c1.62993,0.54331 3.35256,0.86563 5.12603,1.04509c3.70432,-2.30202 7.8585,-2.30202 7.8585,-2.30202c7.57042,0 15.15858,-0.15266 22.72725,0c1.80514,0.03641 3.62693,-0.08464 5.41372,0.17468c1.45829,0.21165 2.87188,1.14289 4.32653,0.90757h2.1645c0,0 6.32904,0 10.32911,4.329c0.16446,0 0.32893,0 0.49339,0h1.08225c0,0 13.52812,0 13.52812,13.52812z" fill="url(#color-5)" stroke="none" stroke-width="0.5" stroke-linecap="butt"/><path d="M540.00001,244.5c0,12.5 -12.5,12.5 -12.5,12.5c-12.33334,0 -25.66666,0 -38,0c0,0 -4.52078,0 -8.12489,-2.71873c-4.4644,0.07503 -8.92757,-0.12607 -12.87739,-1.44268c-3.8167,0.61745 -6.52197,-0.27042 -10,-1c-1.30525,-0.2738 -2.66406,0.16141 -3.99772,0.16141c-3,0 -6,0 -9,0c-8.66667,0 -17.33333,0 -26,0c-4.62406,0 -9.91159,-0.73233 -14.47271,-0.09366c-3.8224,0.53524 -7.66791,1.04564 -11.52729,1.09366c-5.62245,-0.09076 -10.96906,1.21839 -16.47271,1.90634c-4.17102,0.52138 -8.34684,0.52004 -12.52501,0.93225c-2.57274,0.25383 -18.18851,2.93645 -19.77056,3.10057c-3.86656,0.40112 -18.12883,3.35978 -21.49795,3.94002c-3.71502,0.6398 -7.90978,2.52144 -11.52542,3.70206c-6.7407,1.34814 -12.94689,3.84108 -19.51405,5.86037c-3.97951,1.22363 -7.89754,2.63894 -11.84843,3.95205c-1.74545,0.58011 -3.74065,0.45193 -5.35397,1.33527c-3.8556,2.11108 -7.64372,3.59386 -11.70835,5.31956c-5.93995,2.52189 -12.42295,3.74153 -18.22901,6.64959c-5.66199,2.8359 -11.72603,6.10378 -16.7532,9.87416c-5.1739,1.90619 -10.91022,3.95983 -15.49246,7.06829c-2.34657,1.59184 -4.32437,3.73665 -6.81698,5.08841c-0.8262,0.44806 -1.87578,0.3748 -2.69056,0.8433c-1.19107,0.68487 -2.06767,1.82783 -3.22969,2.56089c-4.65562,2.93703 -9.09301,5.3793 -13.49195,8.90462c-1.23272,0.98791 -2.12369,2.36638 -3.38703,3.31482c-9.58588,7.1965 -20.12472,12.82218 -29.12101,20.78056c-4.0772,1.35906 -6.28224,4.25505 -9.64678,7.03364c-4.31724,3.56538 -9.42104,6.19742 -13.73484,9.7764c-1.73784,1.44182 -3.03479,3.39737 -4.88114,4.69735c-1.2189,0.8582 -2.75295,1.18324 -4,2c-5.27641,3.45577 -10.0565,8.16159 -15.81698,11.08841c-0.58316,0.29629 -1.36265,0.06223 -1.92025,0.40419c-0.8037,0.49289 -1.17551,1.54273 -2,2c-3.44791,1.91222 -7.85119,2.96954 -11.6188,4.22541c-0.9891,-0.58485 -1.75871,1.52065 -2.79411,2.01896c-3.32704,1.6012 -8.464,2.81382 -12.20589,3.98104c-6.31619,1.97024 -12.4166,1.64146 -18.95284,1.64146c-8,0 -16,0 -24,0c0,0 -12.5,0 -12.5,-12.5c0,-12.5 12.5,-12.5 12.5,-12.5c8,0 16,0 24,0c3.05136,0 7.05011,0.67766 9.99772,0.16141c2.45742,-0.43039 5.01826,-2.13385 7.50744,-2.66291c0.43751,-0.09299 0.94554,0.342 1.33611,0.124c0.68885,-0.38449 0.89658,-1.37414 1.5871,-1.75563c1.76328,-0.97416 3.74587,-1.48361 5.6188,-2.22541c2.09449,-0.69817 4.61094,-0.45531 6.3812,-1.77459c0.75597,-0.56338 1.1885,-1.52004 2,-2c1.25687,-0.74336 2.76891,-0.95235 4.07975,-1.59581c4.48615,-2.20213 8.12458,-6.16726 12.18301,-8.91159c1.23489,-0.83504 2.72378,-1.22962 4,-2c1.29632,-0.78251 1.95684,-2.33184 3.11886,-3.30265c4.47916,-3.7421 21.63034,-17.52728 26.61838,-19.18996c0.83874,-1.34042 2.41207,-2.04586 3.64678,-3.03364c1.98747,-1.58998 3.88359,-3.3068 5.99111,-4.73386c5.66599,-3.83658 18.87821,-13.35772 19.85406,-14.13712c7.31802,-5.84477 15.94135,-12.13459 24.58779,-15.69119c1.32982,-0.54701 9.27289,-5.90276 12.21781,-7.58243c3.28155,-1.87168 5.6351,-3.54867 9.47275,-4.26086c2.32141,-1.74106 4.97727,-2.99739 7.57813,-4.28417c3.37498,-1.6698 56.44859,-23.32888 60.52891,-24.58521c6.87624,-2.11719 13.41569,-4.72558 20.48595,-6.13963c4.73377,-1.63136 9.55832,-3.36946 14.47458,-4.29794c3.13797,-0.59262 27.99418,-4.47861 34.20648,-5.02716c2.25957,-0.19952 15.55768,-2.44471 20,-3c6.56052,-0.82006 12.82182,-2.02819 19.52729,-2.09366c4.86588,0.10189 9.09709,-0.95181 14,-1c16.64357,-0.16361 33.35938,-0.33564 50,0c2.69482,0.05435 5.34407,0.71537 8.00228,1.16141c2.30117,0.38612 4.66788,-0.07525 7,0c1.50606,0.50202 3.09777,0.79984 4.73646,0.96567c3.4228,-2.12707 7.26126,-2.12707 7.26126,-2.12707c6.99508,0 14.00655,-0.14106 21,0c1.66796,0.03364 3.35128,-0.07821 5.00228,0.16141c1.34746,0.19556 2.65362,1.05604 3.99772,0.83859h2c0,0 5.84803,0 9.5441,4c0.15197,0 0.30393,0 0.4559,0h1c0,0 12.5,0 12.5,12.5z" fill="url(#color-6)" stroke="none" stroke-width="0.5" stroke-linecap="butt"/><path d="M562.00001,257.5c0,12.5 -12.5,12.5 -12.5,12.5c-12.33334,0 -25.66666,0 -38,0c0,0 -4.52078,0 -8.12489,-2.71873c-4.4644,0.07503 -8.92758,-0.12607 -12.87739,-1.44268c-3.8167,0.61745 -6.52197,-0.27042 -10,-1c-1.30525,-0.2738 -2.66406,0.16141 -3.99772,0.16141c-3,0 -6,0 -9,0c-8.66667,0 -17.33333,0 -26,0c-4.62406,0 -9.91159,-0.73233 -14.47271,-0.09366c-3.8224,0.53524 -7.66791,1.04564 -11.52729,1.09366c-5.62245,-0.09077 -10.96906,1.21839 -16.47271,1.90634c-4.17102,0.52138 -8.34684,0.52004 -12.52501,0.93225c-2.57274,0.25383 -18.18851,2.93645 -19.77056,3.10057c-3.86656,0.40112 -18.12883,3.35978 -21.49795,3.94002c-3.71502,0.6398 -7.90978,2.52144 -11.52542,3.70206c-6.7407,1.34814 -12.94689,3.84108 -19.51405,5.86037c-3.97951,1.22363 -7.89754,2.63894 -11.84843,3.95205c-1.74545,0.58011 -3.74065,0.45193 -5.35397,1.33528c-3.8556,2.11108 -7.64372,3.59385 -11.70835,5.31955c-5.93995,2.52189 -12.42295,3.74153 -18.22901,6.64959c-5.66199,2.8359 -11.72603,6.10378 -16.7532,9.87416c-5.1739,1.90619 -10.91022,3.95983 -15.49246,7.06829c-2.34657,1.59184 -4.32437,3.73665 -6.81698,5.08841c-0.8262,0.44806 -1.87578,0.3748 -2.69056,0.8433c-1.19107,0.68487 -2.06767,1.82783 -3.22969,2.56089c-4.65562,2.93703 -9.09301,5.3793 -13.49195,8.90462c-1.23272,0.98791 -2.12369,2.36638 -3.38703,3.31482c-9.58588,7.1965 -20.12472,12.82218 -29.12101,20.78056c-4.0772,1.35906 -6.28224,4.25505 -9.64678,7.03364c-4.31724,3.56538 -9.42104,6.19742 -13.73484,9.7764c-1.73784,1.44182 -3.03479,3.39737 -4.88114,4.69735c-1.2189,0.8582 -2.75295,1.18324 -4,2c-5.27641,3.45577 -10.0565,8.16159 -15.81698,11.08841c-0.58316,0.29629 -1.36265,0.06223 -1.92025,0.40419c-0.8037,0.49289 -1.1755,1.54273 -2,2c-3.44791,1.91222 -7.85118,2.96954 -11.6188,4.22541c-0.9891,-0.58485 -1.75871,1.52065 -2.79411,2.01896c-3.32704,1.6012 -8.464,2.81382 -12.20589,3.98104c-6.31619,1.97024 -12.4166,1.64146 -18.95284,1.64146c-8,0 -16,0 -24,0c0,0 -12.5,0 -12.5,-12.5c0,-12.5 12.5,-12.5 12.5,-12.5c8,0 16,0 24,0c3.05136,0 7.05011,0.67766 9.99772,0.16141c2.45742,-0.43039 5.01826,-2.13385 7.50744,-2.66291c0.43751,-0.09299 0.94555,0.342 1.33611,0.124c0.68885,-0.38449 0.89658,-1.37414 1.58709,-1.75563c1.76328,-0.97416 3.74587,-1.48361 5.6188,-2.22541c2.09449,-0.69817 4.61095,-0.45531 6.3812,-1.77459c0.75597,-0.56338 1.1885,-1.52004 2,-2c1.25687,-0.74336 2.76891,-0.95235 4.07975,-1.59581c4.48615,-2.20213 8.12458,-6.16726 12.18302,-8.91159c1.23488,-0.83504 2.72378,-1.22962 4,-2c1.29631,-0.78251 1.95684,-2.33184 3.11886,-3.30265c4.47916,-3.7421 21.63034,-17.52728 26.61838,-19.18996c0.83874,-1.34042 2.41207,-2.04586 3.64678,-3.03364c1.98747,-1.58998 3.88359,-3.3068 5.99111,-4.73386c5.66599,-3.83658 18.87821,-13.35772 19.85406,-14.13712c7.31802,-5.84477 15.94135,-12.13459 24.58779,-15.69119c1.32982,-0.54701 9.27289,-5.90276 12.21781,-7.58243c3.28155,-1.87168 5.6351,-3.54867 9.47275,-4.26087c2.32141,-1.74106 4.97727,-2.99739 7.57813,-4.28417c3.37498,-1.6698 56.44859,-23.32888 60.52891,-24.58521c6.87624,-2.11719 13.41569,-4.72558 20.48595,-6.13963c4.73377,-1.63136 9.55832,-3.36946 14.47458,-4.29794c3.13797,-0.59262 27.99418,-4.47861 34.20648,-5.02716c2.25957,-0.19952 15.55768,-2.44471 20,-3c6.56052,-0.82006 12.82182,-2.0282 19.52729,-2.09366c4.86588,0.10189 9.09709,-0.9518 14,-1c16.64357,-0.16361 33.35938,-0.33564 50,0c2.69482,0.05435 5.34407,0.71537 8.00228,1.16141c2.30117,0.38612 4.66788,-0.07525 7,0c1.50606,0.50202 3.09777,0.79984 4.73646,0.96567c3.4228,-2.12707 7.26126,-2.12707 7.26126,-2.12707c6.99508,0 14.00654,-0.14106 21,0c1.66796,0.03365 3.35128,-0.07821 5.00228,0.16141c1.34746,0.19556 2.65362,1.05604 3.99772,0.83859h2c0,0 5.84803,0 9.5441,4c0.15197,0 0.30393,0 0.4559,0h1c0,0 12.5,0 12.5,12.5z" fill="url(#color-7)" stroke="none" stroke-width="0.5" stroke-linecap="butt"/><path d="M573.00001,276.16728c0,13.10096 -13.10096,13.10096 -13.10096,13.10096c-12.92628,0 -26.90064,0 -39.82693,0c0,0 -4.73812,0 -8.51551,-2.84943c-4.67903,0.07863 -9.35679,-0.13214 -13.49649,-1.51205c-4.0002,0.64713 -6.83552,-0.28342 -10.48077,-1.04808c-1.368,-0.28697 -2.79214,0.16917 -4.18992,0.16917c-3.14423,0 -6.28847,0 -9.4327,0c-9.08333,0 -18.16667,0 -27.25,0c-4.84638,0 -10.3881,-0.76753 -15.16851,-0.09816c-4.00617,0.56097 -8.03656,1.09591 -12.08149,1.14624c-5.89276,-0.09513 -11.49641,1.27696 -17.26466,1.99799c-4.37155,0.54645 -8.74813,0.54503 -13.12718,0.97707c-2.69644,0.26603 -19.06296,3.07763 -20.72107,3.24964c-4.05246,0.4204 -19.0004,3.52131 -22.53151,4.12944c-3.89363,0.67056 -8.29007,2.64267 -12.07952,3.88006c-7.06477,1.41295 -13.56933,4.02574 -20.45222,6.14211c-4.17084,1.28246 -8.27723,2.76581 -12.41807,4.14205c-1.82936,0.608 -3.92049,0.47365 -5.61137,1.39947c-4.04097,2.21257 -8.01121,3.76664 -12.27125,5.5753c-6.22553,2.64314 -13.0202,3.92141 -19.1054,6.96928c-5.93421,2.97224 -12.28978,6.39723 -17.55864,10.34888c-5.42265,1.99784 -11.43476,4.15021 -16.23729,7.4081c-2.45938,1.66838 -4.53228,3.91629 -7.14472,5.33305c-0.86592,0.4696 -1.96596,0.39281 -2.81991,0.88385c-1.24832,0.7178 -2.16709,1.91571 -3.38497,2.68401c-4.87945,3.07823 -9.53017,5.63792 -14.1406,9.33272c-1.29199,1.0354 -2.2258,2.48015 -3.54987,3.47419c-10.04674,7.54248 -21.09225,13.43863 -30.52106,21.77963c-4.27322,1.4244 -6.58427,4.45963 -10.11057,7.3718c-4.5248,3.73679 -9.87398,6.49536 -14.39517,10.24641c-1.8214,1.51114 -3.18069,3.56071 -5.11581,4.92319c-1.2775,0.89946 -2.88531,1.24013 -4.19231,2.09615c-5.53008,3.62192 -10.53999,8.55397 -16.57741,11.62151c-0.61119,0.31054 -1.42816,0.06522 -2.01257,0.42363c-0.84234,0.51659 -1.23202,1.61691 -2.09615,2.09616c-3.61368,2.00416 -8.22864,3.1123 -12.17739,4.42855c-1.03665,-0.61296 -1.84326,1.59376 -2.92844,2.11602c-3.487,1.67818 -8.87093,2.9491 -12.79271,4.17244c-6.61986,2.06496 -13.01356,1.72037 -19.86404,1.72037c-8.38461,0 -16.76923,0 -25.15385,0c0,0 -13.10096,0 -13.10096,-13.10096c0,-13.10096 13.10096,-13.10097 13.10096,-13.10097c8.38461,0 16.76923,0 25.15385,0c3.19806,0 7.38905,0.71024 10.47838,0.16917c2.57556,-0.45109 5.25952,-2.23644 7.86836,-2.79093c0.45855,-0.09746 0.99101,0.35845 1.40035,0.12997c0.72197,-0.40298 0.93968,-1.44021 1.6634,-1.84004c1.84805,-1.021 3.92595,-1.55494 5.88893,-2.3324c2.19519,-0.73173 4.83263,-0.4772 6.688,-1.85991c0.79231,-0.59047 1.24564,-1.59312 2.09616,-2.09616c1.3173,-0.77911 2.90203,-0.99813 4.27589,-1.67253c4.70183,-2.30801 8.51518,-6.46377 12.76873,-9.34003c1.29426,-0.87518 2.85474,-1.28873 4.19231,-2.09615c1.35864,-0.82013 2.05092,-2.44396 3.2688,-3.46143c4.69451,-3.92201 22.67027,-18.36994 27.89812,-20.11255c0.87906,-1.40486 2.52803,-2.14423 3.8221,-3.17949c2.08303,-1.66642 4.07031,-3.46578 6.27914,-4.96144c5.93839,-4.02103 19.78582,-13.99992 20.80859,-14.81679c7.66985,-6.12577 16.70777,-12.71798 25.7699,-16.44557c1.39376,-0.57331 9.7187,-6.18655 12.8052,-7.94698c3.43932,-1.96167 5.90602,-3.71928 9.92818,-4.46572c2.43302,-1.82476 5.21657,-3.14149 7.94245,-4.49014c3.53724,-1.75007 59.16246,-24.45046 63.43895,-25.76719c7.20682,-2.21898 14.06068,-4.95277 21.47085,-6.4348c4.96136,-1.70979 10.01786,-3.53145 15.17048,-4.50456c3.28883,-0.62112 29.34005,-4.69394 35.85102,-5.26886c2.36821,-0.20911 16.30565,-2.56225 20.96154,-3.14423c6.87592,-0.85949 13.43824,-2.12571 20.4661,-2.19431c5.09981,0.10679 9.53445,-0.99756 14.67308,-1.04807c17.44374,-0.17147 34.9632,-0.35178 52.40384,0c2.82439,0.05697 5.60099,0.74976 8.387,1.21724c2.41179,0.40469 4.8923,-0.07886 7.33654,0c1.57846,0.52616 3.2467,0.83829 4.96417,1.01209c3.58736,-2.22933 7.61036,-2.22933 7.61036,-2.22933c7.33139,0 14.67994,-0.14784 22.00962,0c1.74815,0.03526 3.5124,-0.08197 5.24277,0.16917c1.41224,0.20496 2.7812,1.1068 4.18992,0.87891h2.09615c0,0 6.1292,0 10.00296,4.19231c0.15927,0 0.31854,0 0.47781,0h1.04808c0,0 13.10096,0 13.10096,13.10096z" fill="url(#color-8)" stroke="none" stroke-width="0.5" stroke-linecap="butt"/><path d="M585.00001,284.5c0,12.5 -12.5,12.5 -12.5,12.5c-12.33334,0 -25.66666,0 -38,0c0,0 -4.52078,0 -8.12489,-2.71873c-4.4644,0.07502 -8.92758,-0.12608 -12.87739,-1.44268c-3.8167,0.61745 -6.52197,-0.27042 -10,-1c-1.30525,-0.2738 -2.66406,0.16141 -3.99772,0.16141c-3,0 -6,0 -9,0c-8.66667,0 -17.33333,0 -26,0c-4.62406,0 -9.91159,-0.73233 -14.47271,-0.09366c-3.8224,0.53524 -7.66791,1.04564 -11.52729,1.09366c-5.62245,-0.09076 -10.96906,1.21839 -16.47271,1.90634c-4.17102,0.52138 -8.34684,0.52004 -12.52501,0.93225c-2.57274,0.25383 -18.18851,2.93645 -19.77056,3.10057c-3.86656,0.40112 -18.12883,3.35978 -21.49795,3.94002c-3.71502,0.6398 -7.90978,2.52144 -11.52542,3.70206c-6.7407,1.34814 -12.94689,3.84108 -19.51405,5.86037c-3.97951,1.22363 -7.89754,2.63894 -11.84843,3.95205c-1.74545,0.58011 -3.74065,0.45193 -5.35397,1.33528c-3.8556,2.11108 -7.64372,3.59385 -11.70835,5.31955c-5.93995,2.52189 -12.42295,3.74153 -18.22901,6.64959c-5.66199,2.8359 -11.72603,6.10378 -16.7532,9.87416c-5.1739,1.90619 -10.91022,3.95983 -15.49246,7.06829c-2.34657,1.59184 -4.32437,3.73665 -6.81698,5.08841c-0.8262,0.44806 -1.87578,0.3748 -2.69056,0.8433c-1.19107,0.68487 -2.06767,1.82783 -3.22969,2.56089c-4.65562,2.93703 -9.09301,5.3793 -13.49195,8.90462c-1.23272,0.98791 -2.12369,2.36638 -3.38703,3.31482c-9.58588,7.1965 -20.12472,12.82218 -29.12101,20.78056c-4.0772,1.35906 -6.28224,4.25505 -9.64678,7.03364c-4.31724,3.56538 -9.42104,6.19742 -13.73484,9.7764c-1.73784,1.44182 -3.03479,3.39737 -4.88114,4.69735c-1.2189,0.8582 -2.75295,1.18324 -4,2c-5.27641,3.45577 -10.0565,8.16159 -15.81698,11.08841c-0.58316,0.29629 -1.36265,0.06223 -1.92025,0.40419c-0.8037,0.49289 -1.1755,1.54273 -2,2c-3.44791,1.91222 -7.85118,2.96954 -11.6188,4.22541c-0.9891,-0.58485 -1.75871,1.52065 -2.79411,2.01896c-3.32704,1.6012 -8.464,2.81382 -12.20589,3.98104c-6.31619,1.97024 -12.4166,1.64146 -18.95284,1.64146c-8,0 -16,0 -24,0c0,0 -12.5,0 -12.5,-12.5c0,-12.5 12.5,-12.5 12.5,-12.5c8,0 16,0 24,0c3.05136,0 7.05011,0.67766 9.99772,0.16141c2.45742,-0.43039 5.01826,-2.13385 7.50744,-2.66291c0.43751,-0.09299 0.94555,0.342 1.33611,0.124c0.68885,-0.38449 0.89658,-1.37414 1.58709,-1.75563c1.76328,-0.97416 3.74587,-1.48361 5.6188,-2.22541c2.09449,-0.69817 4.61094,-0.45531 6.3812,-1.77459c0.75597,-0.56338 1.1885,-1.52004 2,-2c1.25687,-0.74336 2.76891,-0.95235 4.07975,-1.59581c4.48615,-2.20213 8.12458,-6.16726 12.18302,-8.91159c1.23488,-0.83504 2.72378,-1.22962 4,-2c1.29631,-0.78251 1.95684,-2.33184 3.11886,-3.30265c4.47916,-3.7421 21.63034,-17.52728 26.61838,-19.18996c0.83874,-1.34042 2.41207,-2.04586 3.64678,-3.03364c1.98747,-1.58998 3.88359,-3.3068 5.99111,-4.73386c5.66599,-3.83658 18.87821,-13.35772 19.85406,-14.13712c7.31802,-5.84477 15.94135,-12.13459 24.58779,-15.69119c1.32982,-0.54701 9.27289,-5.90276 12.21781,-7.58243c3.28155,-1.87168 5.6351,-3.54867 9.47275,-4.26087c2.32141,-1.74106 4.97727,-2.99739 7.57813,-4.28417c3.37498,-1.6698 56.44859,-23.32888 60.52891,-24.58521c6.87624,-2.11719 13.41569,-4.72558 20.48595,-6.13963c4.73377,-1.63136 9.55832,-3.36946 14.47458,-4.29794c3.13797,-0.59262 27.99418,-4.47861 34.20648,-5.02716c2.25957,-0.19952 15.55768,-2.44471 20,-3c6.56052,-0.82006 12.82182,-2.0282 19.52729,-2.09366c4.86588,0.10189 9.09709,-0.9518 14,-1c16.64357,-0.16361 33.35938,-0.33564 50,0c2.69482,0.05435 5.34407,0.71537 8.00228,1.16141c2.30117,0.38612 4.66788,-0.07525 7,0c1.50606,0.50202 3.09777,0.79984 4.73646,0.96567c3.4228,-2.12707 7.26126,-2.12707 7.26126,-2.12707c6.99508,0 14.00654,-0.14106 21,0c1.66796,0.03365 3.35128,-0.07821 5.00228,0.16141c1.34746,0.19556 2.65362,1.05604 3.99772,0.83859h2c0,0 5.84803,0 9.5441,4c0.15197,0 0.30393,0 0.4559,0h1c0,0 12.5,0 12.5,12.5z" fill="url(#color-9)" stroke="none" stroke-width="0.5" stroke-linecap="butt"/><path d="M587.00001,302.5c0,12.5 -12.5,12.5 -12.5,12.5c-12.33334,0 -25.66666,0 -38,0c0,0 -4.52078,0 -8.12489,-2.71873c-4.4644,0.07503 -8.92758,-0.12607 -12.87739,-1.44268c-3.8167,0.61745 -6.52197,-0.27042 -10,-1c-1.30525,-0.2738 -2.66406,0.16141 -3.99772,0.16141c-3,0 -6,0 -9,0c-8.66667,0 -17.33333,0 -26,0c-4.62406,0 -9.91159,-0.73233 -14.47271,-0.09366c-3.8224,0.53524 -7.66791,1.04564 -11.52729,1.09366c-5.62245,-0.09077 -10.96906,1.21839 -16.47271,1.90634c-4.17102,0.52138 -8.34684,0.52004 -12.52501,0.93225c-2.57274,0.25383 -18.18851,2.93645 -19.77056,3.10057c-3.86656,0.40112 -18.12883,3.35979 -21.49795,3.94002c-3.71502,0.6398 -7.90978,2.52144 -11.52542,3.70207c-6.7407,1.34814 -12.94689,3.84108 -19.51405,5.86037c-3.97951,1.22363 -7.89754,2.63894 -11.84843,3.95205c-1.74545,0.58011 -3.74065,0.45193 -5.35397,1.33528c-3.8556,2.11108 -7.64372,3.59385 -11.70835,5.31955c-5.93995,2.52189 -12.42295,3.74153 -18.22901,6.64959c-5.66199,2.8359 -11.72603,6.10378 -16.7532,9.87416c-5.1739,1.90619 -10.91022,3.95983 -15.49246,7.06829c-2.34657,1.59184 -4.32437,3.73665 -6.81698,5.08841c-0.8262,0.44806 -1.87578,0.3748 -2.69056,0.8433c-1.19107,0.68487 -2.06767,1.82783 -3.22969,2.56089c-4.65562,2.93703 -9.09301,5.3793 -13.49195,8.90462c-1.23272,0.98791 -2.12369,2.36638 -3.38703,3.31482c-9.58588,7.1965 -20.12472,12.82218 -29.12101,20.78056c-4.0772,1.35906 -6.28224,4.25505 -9.64678,7.03364c-4.31724,3.56538 -9.42104,6.19742 -13.73484,9.7764c-1.73784,1.44182 -3.03479,3.39737 -4.88114,4.69735c-1.2189,0.8582 -2.75295,1.18324 -4,2c-5.27641,3.45577 -10.0565,8.16159 -15.81698,11.08841c-0.58316,0.29629 -1.36265,0.06223 -1.92025,0.40419c-0.8037,0.49289 -1.1755,1.54273 -2,2c-3.44791,1.91222 -7.85118,2.96954 -11.6188,4.22541c-0.9891,-0.58485 -1.75871,1.52065 -2.79411,2.01896c-3.32704,1.6012 -8.464,2.81382 -12.20589,3.98104c-6.31619,1.97024 -12.4166,1.64146 -18.95284,1.64146c-8,0 -16,0 -24,0c0,0 -12.5,0 -12.5,-12.5c0,-12.5 12.5,-12.5 12.5,-12.5c8,0 16,0 24,0c3.05136,0 7.05011,0.67766 9.99772,0.16141c2.45742,-0.43039 5.01826,-2.13385 7.50744,-2.66291c0.43751,-0.09299 0.94555,0.342 1.33611,0.124c0.68885,-0.38449 0.89658,-1.37414 1.58709,-1.75563c1.76328,-0.97416 3.74587,-1.48361 5.6188,-2.22541c2.09449,-0.69817 4.61094,-0.45531 6.3812,-1.77459c0.75597,-0.56338 1.1885,-1.52004 2,-2c1.25687,-0.74336 2.76891,-0.95235 4.07975,-1.59581c4.48615,-2.20213 8.12458,-6.16726 12.18302,-8.91159c1.23488,-0.83504 2.72378,-1.22962 4,-2c1.29631,-0.78251 1.95684,-2.33184 3.11886,-3.30265c4.47916,-3.7421 21.63034,-17.52728 26.61838,-19.18996c0.83874,-1.34042 2.41207,-2.04586 3.64678,-3.03364c1.98747,-1.58998 3.88359,-3.3068 5.99111,-4.73386c5.66599,-3.83658 18.87821,-13.35772 19.85406,-14.13712c7.31802,-5.84477 15.94135,-12.13459 24.58779,-15.69119c1.32982,-0.54701 9.27289,-5.90276 12.21781,-7.58243c3.28155,-1.87168 5.6351,-3.54867 9.47275,-4.26087c2.32141,-1.74106 4.97727,-2.99738 7.57813,-4.28417c3.37498,-1.6698 56.44859,-23.32888 60.52891,-24.58521c6.87624,-2.11719 13.41569,-4.72558 20.48595,-6.13963c4.73377,-1.63136 9.55832,-3.36946 14.47458,-4.29794c3.13797,-0.59262 27.99418,-4.47861 34.20648,-5.02716c2.25957,-0.19952 15.55768,-2.44471 20,-3c6.56052,-0.82006 12.82182,-2.0282 19.52729,-2.09366c4.86588,0.10189 9.09709,-0.9518 14,-1c16.64357,-0.16361 33.35938,-0.33564 50,0c2.69482,0.05435 5.34407,0.71537 8.00228,1.16141c2.30117,0.38612 4.66788,-0.07525 7,0c1.50606,0.50202 3.09777,0.79984 4.73646,0.96567c3.4228,-2.12707 7.26126,-2.12707 7.26126,-2.12707c6.99508,0 14.00654,-0.14106 21,0c1.66796,0.03365 3.35128,-0.07821 5.00228,0.16141c1.34746,0.19556 2.65362,1.05604 3.99772,0.83859h2c0,0 5.84803,0 9.5441,4c0.15197,0 0.30393,0 0.4559,0h1c0,0 12.5,0 12.5,12.5z" fill="url(#color-10)" stroke="none" stroke-width="0.5" stroke-linecap="butt"/><path d="M609.00001,315.5c0,12.5 -12.5,12.5 -12.5,12.5c-12.33334,0 -25.66666,0 -38,0c0,0 -4.52078,0 -8.12489,-2.71873c-4.4644,0.07502 -8.92758,-0.12608 -12.87739,-1.44268c-3.8167,0.61745 -6.52197,-0.27042 -10,-1c-1.30525,-0.2738 -2.66406,0.16141 -3.99772,0.16141c-3,0 -6,0 -9,0c-8.66667,0 -17.33333,0 -26,0c-4.62406,0 -9.91159,-0.73233 -14.47271,-0.09366c-3.8224,0.53524 -7.66791,1.04564 -11.52729,1.09366c-5.62245,-0.09076 -10.96906,1.21839 -16.47271,1.90634c-4.17102,0.52137 -8.34684,0.52004 -12.52501,0.93225c-2.57274,0.25383 -18.18851,2.93645 -19.77056,3.10057c-3.86656,0.40112 -18.12883,3.35979 -21.49795,3.94002c-3.71502,0.6398 -7.90978,2.52144 -11.52542,3.70207c-6.7407,1.34814 -12.94689,3.84108 -19.51405,5.86037c-3.97951,1.22363 -7.89754,2.63894 -11.84843,3.95205c-1.74545,0.58011 -3.74065,0.45193 -5.35397,1.33528c-3.8556,2.11108 -7.64372,3.59385 -11.70835,5.31955c-5.93995,2.52189 -12.42295,3.74153 -18.22901,6.64959c-5.66199,2.8359 -11.72603,6.10378 -16.7532,9.87416c-5.1739,1.90619 -10.91022,3.95983 -15.49246,7.06829c-2.34657,1.59184 -4.32437,3.73665 -6.81698,5.08841c-0.8262,0.44806 -1.87578,0.3748 -2.69056,0.8433c-1.19106,0.68487 -2.06768,1.82783 -3.22969,2.56089c-4.65562,2.93703 -9.09301,5.3793 -13.49195,8.90462c-1.23272,0.98791 -2.12369,2.36638 -3.38703,3.31482c-9.58588,7.1965 -20.12472,12.82218 -29.12101,20.78056c-4.0772,1.35906 -6.28224,4.25505 -9.64678,7.03364c-4.31724,3.56538 -9.42104,6.19742 -13.73484,9.7764c-1.73784,1.44182 -3.03479,3.39737 -4.88114,4.69735c-1.2189,0.8582 -2.75295,1.18324 -4,2c-5.27641,3.45577 -10.0565,8.16159 -15.81698,11.08841c-0.58316,0.29629 -1.36265,0.06223 -1.92025,0.40419c-0.8037,0.49289 -1.1755,1.54273 -2,2c-3.44791,1.91222 -7.85118,2.96954 -11.6188,4.22541c-0.9891,-0.58485 -1.75871,1.52065 -2.79411,2.01896c-3.32704,1.6012 -8.464,2.81382 -12.20589,3.98104c-6.31619,1.97024 -12.4166,1.64146 -18.95284,1.64146c-8,0 -16,0 -24,0c0,0 -12.5,0 -12.5,-12.5c0,-12.5 12.5,-12.5 12.5,-12.5c8,0 16,0 24,0c3.05136,0 7.05011,0.67766 9.99772,0.16141c2.45742,-0.43039 5.01826,-2.13385 7.50743,-2.66291c0.43751,-0.09299 0.94555,0.342 1.33611,0.124c0.68885,-0.38449 0.89658,-1.37414 1.58709,-1.75563c1.76328,-0.97416 3.74587,-1.48361 5.6188,-2.22541c2.09449,-0.69817 4.61094,-0.45531 6.3812,-1.77459c0.75597,-0.56338 1.1885,-1.52004 2,-2c1.25687,-0.74336 2.76891,-0.95235 4.07975,-1.59581c4.48615,-2.20213 8.12458,-6.16726 12.18302,-8.91159c1.23488,-0.83504 2.72378,-1.22962 4,-2c1.29631,-0.78251 1.95684,-2.33184 3.11886,-3.30265c4.47916,-3.7421 21.63034,-17.52728 26.61838,-19.18996c0.83874,-1.34042 2.41207,-2.04586 3.64678,-3.03364c1.98747,-1.58998 3.88359,-3.3068 5.99111,-4.73386c5.66599,-3.83658 18.87821,-13.35772 19.85406,-14.13712c7.31802,-5.84477 15.94135,-12.13459 24.58779,-15.69119c1.32983,-0.54701 9.27289,-5.90276 12.21781,-7.58243c3.28155,-1.87168 5.6351,-3.54867 9.47275,-4.26087c2.32141,-1.74106 4.97727,-2.99738 7.57813,-4.28417c3.37498,-1.6698 56.44859,-23.32888 60.52891,-24.58521c6.87624,-2.11719 13.41569,-4.72558 20.48595,-6.13963c4.73377,-1.63136 9.55832,-3.36946 14.47458,-4.29794c3.13797,-0.59262 27.99418,-4.47861 34.20648,-5.02716c2.25957,-0.19952 15.55768,-2.44471 20,-3c6.56052,-0.82006 12.82182,-2.0282 19.52729,-2.09366c4.86588,0.10189 9.09709,-0.9518 14,-1c16.64357,-0.16361 33.35938,-0.33564 50,0c2.69483,0.05435 5.34407,0.71537 8.00228,1.16141c2.30117,0.38612 4.66788,-0.07525 7,0c1.50606,0.50202 3.09777,0.79984 4.73646,0.96567c3.4228,-2.12707 7.26126,-2.12707 7.26126,-2.12707c6.99508,0 14.00654,-0.14106 21,0c1.66796,0.03365 3.35129,-0.07821 5.00228,0.16141c1.34746,0.19556 2.65362,1.05604 3.99772,0.83859h2c0,0 5.84803,0 9.5441,4c0.15197,0 0.30393,0 0.4559,0h1c0,0 12.5,0 12.5,12.5z" fill="url(#color-11)" stroke="none" stroke-width="0.5" stroke-linecap="butt"/><path d="M628.00001,338.687c0,13.46815 -13.46815,13.46815 -13.46815,13.46815c-13.28858,0 -27.65459,0 -40.94317,0c0,0 -4.87092,0 -8.75418,-2.92929c-4.81017,0.08083 -9.61903,-0.13585 -13.87476,-1.55442c-4.11231,0.66527 -7.0271,-0.29137 -10.77452,-1.07745c-1.40634,-0.29501 -2.8704,0.17391 -4.30736,0.17391c-3.23235,0 -6.46471,0 -9.69706,0c-9.33792,0 -18.67584,0 -28.01375,0c-4.98221,0 -10.67926,-0.78905 -15.59365,-0.10091c-4.11845,0.57668 -8.2618,1.12662 -12.4201,1.17836c-6.05792,-0.09779 -11.81863,1.31276 -17.74855,2.05399c-4.49407,0.56176 -8.99332,0.56031 -13.4951,1.00446c-2.77201,0.27348 -19.59724,3.16388 -21.30183,3.34071c-4.16603,0.43218 -19.53294,3.62001 -23.16301,4.24518c-4.00275,0.68936 -8.52242,2.71674 -12.41808,3.9888c-7.26277,1.45255 -13.94964,4.13858 -21.02544,6.31426c-4.28773,1.31841 -8.50922,2.84334 -12.76612,4.25815c-1.88064,0.62504 -4.03037,0.48692 -5.76865,1.43869c-4.15422,2.27459 -8.23574,3.8722 -12.61518,5.73156c-6.40001,2.71722 -13.38512,4.03133 -19.64087,7.16462c-6.10053,3.05554 -12.63423,6.57652 -18.05077,10.63892c-5.57463,2.05383 -11.75524,4.26654 -16.69237,7.61574c-2.52832,1.71513 -4.65931,4.02606 -7.34497,5.48252c-0.89019,0.48276 -2.02107,0.40382 -2.89895,0.90861c-1.28332,0.73791 -2.22782,1.96939 -3.47984,2.75924c-5.01621,3.16451 -9.79728,5.79593 -14.53693,9.59429c-1.3282,1.06442 -2.28818,2.54966 -3.64936,3.57156c-10.32832,7.75389 -21.68341,13.81528 -31.37649,22.39006c-4.39298,1.46433 -6.76881,4.58461 -10.39394,7.57841c-4.65162,3.84152 -10.15072,6.67742 -14.79862,10.5336c-1.87244,1.55349 -3.26985,3.6605 -5.2592,5.06117c-1.31331,0.92467 -2.96617,1.2749 -4.30981,2.1549c-5.68508,3.72343 -10.8354,8.79372 -17.04204,11.94723c-0.62832,0.31924 -1.46819,0.06705 -2.06898,0.4355c-0.86595,0.53107 -1.26655,1.66222 -2.1549,2.15491c-3.71495,2.06032 -8.45927,3.19953 -12.51869,4.55267c-1.06571,-0.63015 -1.89493,1.63843 -3.01052,2.17533c-3.58473,1.72522 -9.11956,3.03176 -13.15126,4.28939c-6.8054,2.12284 -13.37829,1.76859 -20.42078,1.76859c-8.61962,0 -17.23923,0 -25.85884,0c0,0 -13.46815,0 -13.46815,-13.46815c0,-13.46815 13.46815,-13.46814 13.46815,-13.46814c8.61962,0 17.23923,0 25.85885,0c3.28769,0 7.59615,0.73014 10.77206,0.1739c2.64775,-0.46373 5.40694,-2.29912 8.0889,-2.86916c0.4714,-0.10019 1.01878,0.3685 1.43959,0.13361c0.7422,-0.41427 0.96602,-1.48058 1.71002,-1.89162c1.89985,-1.04961 4.03598,-1.59851 6.05398,-2.39777c2.25672,-0.75224 4.96807,-0.49058 6.87545,-1.91204c0.81452,-0.60702 1.28055,-1.63777 2.15491,-2.1549c1.35422,-0.80094 2.98337,-1.02612 4.39573,-1.71941c4.83361,-2.3727 8.75384,-6.64493 13.12661,-9.60181c1.33053,-0.89971 2.93474,-1.32486 4.30981,-2.1549c1.39671,-0.84312 2.1084,-2.51245 3.36042,-3.55845c4.82609,-4.03193 23.30565,-18.88479 28.68003,-20.67625c0.9037,-1.44424 2.59889,-2.20433 3.92923,-3.26861c2.14141,-1.71312 4.18438,-3.56292 6.45513,-5.1005c6.10483,-4.13373 20.34037,-14.3923 21.3918,-15.23207c7.88481,-6.29746 17.17604,-13.07444 26.49217,-16.9065c1.43282,-0.58938 9.9911,-6.35994 13.1641,-8.16971c3.53572,-2.01664 6.07155,-3.82352 10.20643,-4.59088c2.50121,-1.8759 5.36277,-3.22953 8.16506,-4.61599c3.63638,-1.79912 60.82063,-25.13574 65.21699,-26.48937c7.40881,-2.28117 14.45476,-5.09158 22.07263,-6.61515c5.10041,-1.75772 10.29864,-3.63044 15.59567,-4.63082c3.38101,-0.63852 30.16238,-4.82549 36.85583,-5.41653c2.43459,-0.21498 16.76265,-2.63406 21.54904,-3.23236c7.06864,-0.88358 13.81489,-2.18529 21.03972,-2.25581c5.24275,0.10978 9.80168,-1.02552 15.08433,-1.07745c17.93265,-0.17628 35.94313,-0.36164 53.8726,0c2.90355,0.05856 5.75797,0.77077 8.62207,1.25135c2.4794,0.41603 5.02942,-0.08108 7.54217,0c1.6227,0.5409 3.3377,0.86179 5.1033,1.04046c3.6879,-2.29181 7.82366,-2.29181 7.82366,-2.29181c7.53686,0 15.09137,-0.15198 22.62649,0c1.79714,0.03625 3.61085,-0.08427 5.38972,0.1739c1.45182,0.21071 2.85915,1.13783 4.30735,0.90355h2.15491c0,0 6.30097,0 10.28332,4.3098c0.16373,0 0.32747,0 0.4912,0h1.07745c0,0 13.46815,0 13.46815,13.46815z" fill="url(#color-12)" stroke="none" stroke-width="0.5" stroke-linecap="butt"/><path d="M647.00001,349.95521c0,13.52812 -13.52813,13.52812 -13.52813,13.52812c-13.34775,0 -27.77774,0 -41.12549,0c0,0 -4.89261,0 -8.79316,-2.94234c-4.83159,0.0812 -9.66187,-0.13644 -13.93655,-1.56134c-4.13063,0.66823 -7.0584,-0.29266 -10.8225,-1.08225c-1.4126,-0.29632 -2.88318,0.17468 -4.32653,0.17468c-3.24675,0 -6.4935,0 -9.74025,0c-9.3795,0 -18.759,0 -28.1385,0c-5.0044,0 -10.72682,-0.79257 -15.66309,-0.10136c-4.13679,0.57926 -8.29859,1.13164 -12.47541,1.18361c-6.0849,-0.09823 -11.87126,1.3186 -17.82758,2.06314c-4.51409,0.56426 -9.03337,0.5628 -13.55519,1.00893c-2.78436,0.2747 -19.68451,3.17797 -21.39669,3.35559c-4.18459,0.4341 -19.61993,3.63612 -23.26616,4.26408c-4.02058,0.69243 -8.56036,2.72883 -12.47338,4.00656c-7.29512,1.45902 -14.01176,4.15701 -21.11908,6.34239c-4.30683,1.32428 -8.54712,2.856 -12.82297,4.27711c-1.88901,0.62782 -4.04832,0.48909 -5.79433,1.4451c-4.17273,2.28472 -8.27242,3.88945 -12.67137,5.75709c-6.42851,2.72932 -13.44472,4.04927 -19.72834,7.19652c-6.12769,3.06915 -12.69049,6.60581 -18.13115,10.6863c-5.59946,2.06297 -11.80759,4.28553 -16.76671,7.64965c-2.53958,1.72278 -4.68006,4.04399 -7.37768,5.50693c-0.89415,0.48491 -2.03006,0.40562 -2.91186,0.91266c-1.28903,0.7412 -2.23774,1.97817 -3.49534,2.77153c-5.03855,3.17859 -9.84091,5.82175 -14.60167,9.63702c-1.33411,1.06916 -2.29836,2.56101 -3.66561,3.58746c-10.37431,7.78841 -21.77997,13.8768 -31.51621,22.48976c-4.41255,1.47085 -6.79895,4.60503 -10.44022,7.61215c-4.67234,3.85863 -10.19592,6.70716 -14.86453,10.58051c-1.88078,1.56041 -3.2844,3.6768 -5.28262,5.0837c-1.31915,0.92879 -2.97938,1.28056 -4.329,2.1645c-5.7104,3.74001 -10.88365,8.83288 -17.11792,12.00043c-0.63112,0.32067 -1.47473,0.06735 -2.0782,0.43744c-0.86981,0.53344 -1.27219,1.66962 -2.1645,2.1645c-3.7315,2.0695 -8.49694,3.21378 -12.57443,4.57295c-1.07046,-0.63296 -1.90337,1.64573 -3.02393,2.18502c-3.6007,1.7329 -9.16017,3.04525 -13.20982,4.30848c-6.8357,2.13228 -13.43787,1.77647 -20.51172,1.77647c-8.658,0 -17.31599,0 -25.97399,0c0,0 -13.52812,0 -13.52812,-13.52812c0,-13.52813 13.52812,-13.52813 13.52812,-13.52813c8.658,0 17.316,0 25.974,0c3.30234,0 7.62998,0.73339 10.82003,0.17468c2.65954,-0.4658 5.43102,-2.30936 8.12492,-2.88193c0.4735,-0.10064 1.02332,0.37013 1.44601,0.1342c0.74551,-0.41611 0.97032,-1.48717 1.71763,-1.90004c1.90831,-1.05428 4.05396,-1.60563 6.08094,-2.40845c2.26676,-0.75559 4.9902,-0.49276 6.90606,-1.92055c0.81815,-0.60973 1.28625,-1.64507 2.1645,-2.1645c1.36025,-0.8045 2.99665,-1.03068 4.4153,-1.72706c4.85514,-2.38326 8.79283,-6.67452 13.18507,-9.64456c1.33646,-0.90371 2.94781,-1.33075 4.329,-2.1645c1.40294,-0.84687 2.11779,-2.52364 3.37538,-3.57429c4.84758,-4.04988 23.40943,-18.9689 28.80774,-20.76833c0.90772,-1.45067 2.61046,-2.21413 3.94673,-3.28315c2.15094,-1.72075 4.20301,-3.57879 6.48388,-5.12322c6.13201,-4.15214 20.43094,-14.45639 21.48706,-15.29989c7.91993,-6.3255 17.25253,-13.13266 26.61014,-16.98179c1.43921,-0.59199 10.03559,-6.38826 13.22272,-8.20609c3.55145,-2.02562 6.09859,-3.84054 10.25188,-4.61132c2.51235,-1.88426 5.38666,-3.24392 8.20143,-4.63655c3.65257,-1.80714 61.09148,-25.24767 65.5074,-26.60733c7.4418,-2.29133 14.51913,-5.11426 22.17092,-6.64461c5.12312,-1.76554 10.34449,-3.6466 15.66512,-4.65143c3.39606,-0.64137 30.2967,-4.84698 37.01995,-5.44065c2.44543,-0.21593 16.83729,-2.64578 21.645,-3.24675c7.10011,-0.88752 13.8764,-2.19502 21.13341,-2.26586c5.26609,0.11027 9.84533,-1.03009 15.1515,-1.08225c18.0125,-0.17707 36.10318,-0.36325 54.11249,0c2.91647,0.05883 5.78363,0.77421 8.66047,1.25693c2.49043,0.41789 5.05182,-0.08144 7.57575,0c1.62993,0.54331 3.35256,0.86563 5.12603,1.0451c3.70432,-2.30202 7.8585,-2.30203 7.8585,-2.30203c7.57043,0 15.15858,-0.15266 22.72725,0c1.80515,0.03641 3.62693,-0.08464 5.41372,0.17468c1.45829,0.21165 2.87189,1.14289 4.32654,0.90757h2.1645c0,0 6.32903,0 10.32911,4.329c0.16446,0 0.32893,0 0.49339,0h1.08225c0,0 13.52813,0 13.52813,13.52813z" fill="url(#color-13)" stroke="none" stroke-width="0.5" stroke-linecap="butt"/><path d="M639.00001,358.5c0,12.5 -12.5,12.5 -12.5,12.5c-12.33334,0 -25.66666,0 -38,0c0,0 -4.52078,0 -8.12489,-2.71873c-4.4644,0.07503 -8.92758,-0.12607 -12.87739,-1.44268c-3.8167,0.61745 -6.52197,-0.27042 -10,-1c-1.30525,-0.2738 -2.66406,0.16141 -3.99772,0.16141c-3,0 -6,0 -9,0c-8.66666,0 -17.33334,0 -26,0c-4.62406,0 -9.91159,-0.73233 -14.47271,-0.09366c-3.8224,0.53524 -7.66791,1.04564 -11.52729,1.09366c-5.62245,-0.09077 -10.96906,1.21839 -16.47271,1.90634c-4.17102,0.52138 -8.34684,0.52004 -12.52501,0.93225c-2.57274,0.25383 -18.18851,2.93645 -19.77056,3.10057c-3.86656,0.40112 -18.12883,3.35979 -21.49795,3.94002c-3.71502,0.6398 -7.90978,2.52144 -11.52542,3.70207c-6.7407,1.34814 -12.94689,3.84108 -19.51405,5.86037c-3.97951,1.22363 -7.89754,2.63894 -11.84843,3.95205c-1.74545,0.58011 -3.74065,0.45193 -5.35397,1.33528c-3.8556,2.11108 -7.64372,3.59385 -11.70835,5.31955c-5.93995,2.52189 -12.42295,3.74153 -18.22901,6.64959c-5.66199,2.8359 -11.72603,6.10378 -16.7532,9.87416c-5.1739,1.90619 -10.91022,3.95983 -15.49246,7.06829c-2.34657,1.59184 -4.32437,3.73665 -6.81698,5.08841c-0.8262,0.44806 -1.87578,0.3748 -2.69056,0.8433c-1.19106,0.68487 -2.06768,1.82783 -3.22969,2.56089c-4.65562,2.93703 -9.09301,5.3793 -13.49195,8.90462c-1.23272,0.98791 -2.12369,2.36638 -3.38703,3.31482c-9.58588,7.1965 -20.12472,12.82218 -29.12101,20.78056c-4.0772,1.35906 -6.28224,4.25505 -9.64678,7.03364c-4.31724,3.56538 -9.42104,6.19742 -13.73484,9.7764c-1.73784,1.44182 -3.03479,3.39737 -4.88114,4.69735c-1.2189,0.8582 -2.75295,1.18324 -4,2c-5.27641,3.45577 -10.0565,8.16159 -15.81698,11.08841c-0.58316,0.2963 -1.36265,0.06223 -1.92025,0.4042c-0.8037,0.49289 -1.1755,1.54273 -2,2c-3.44791,1.91222 -7.85118,2.96953 -11.6188,4.2254c-0.9891,-0.58485 -1.75871,1.52066 -2.79411,2.01896c-3.32704,1.6012 -8.464,2.81382 -12.20589,3.98104c-6.31619,1.97024 -12.4166,1.64146 -18.95284,1.64146c-8,0 -16,0 -24,0c0,0 -12.5,0 -12.5,-12.5c0,-12.5 12.5,-12.5 12.5,-12.5c8,0 16,0 24,0c3.05136,0 7.05011,0.67765 9.99772,0.16141c2.45742,-0.4304 5.01826,-2.13385 7.50743,-2.66291c0.43751,-0.09299 0.94555,0.342 1.33611,0.124c0.68885,-0.38449 0.89658,-1.37414 1.58709,-1.75563c1.76328,-0.97416 3.74587,-1.4836 5.6188,-2.2254c2.09449,-0.69817 4.61094,-0.45531 6.3812,-1.7746c0.75597,-0.56338 1.1885,-1.52004 2,-2c1.25687,-0.74336 2.76891,-0.95235 4.07975,-1.5958c4.48615,-2.20214 8.12458,-6.16726 12.18302,-8.91159c1.23489,-0.83504 2.72378,-1.22962 4,-2c1.29631,-0.78251 1.95684,-2.33184 3.11886,-3.30265c4.47916,-3.7421 21.63034,-17.52728 26.61838,-19.18996c0.83874,-1.34042 2.41206,-2.04586 3.64678,-3.03364c1.98747,-1.58998 3.88359,-3.3068 5.99111,-4.73386c5.66599,-3.83658 18.87821,-13.35772 19.85406,-14.13712c7.31802,-5.84477 15.94135,-12.13459 24.58779,-15.69119c1.32983,-0.54701 9.27289,-5.90276 12.21781,-7.58243c3.28155,-1.87168 5.6351,-3.54867 9.47275,-4.26087c2.32141,-1.74106 4.97727,-2.99738 7.57813,-4.28417c3.37498,-1.6698 56.44859,-23.32888 60.52891,-24.58521c6.87624,-2.11719 13.41569,-4.72558 20.48595,-6.13963c4.73377,-1.63136 9.55832,-3.36946 14.47458,-4.29793c3.13797,-0.59262 27.99418,-4.47862 34.20648,-5.02717c2.25957,-0.19952 15.55768,-2.44471 20,-3c6.56052,-0.82006 12.82182,-2.02819 19.52729,-2.09366c4.86587,0.10189 9.09709,-0.95181 14,-1c16.64358,-0.16361 33.35938,-0.33564 50,0c2.69483,0.05435 5.34407,0.71537 8.00228,1.16141c2.30117,0.38612 4.66788,-0.07525 7,0c1.50606,0.50202 3.09777,0.79984 4.73646,0.96567c3.4228,-2.12707 7.26126,-2.12707 7.26126,-2.12707c6.99508,0 14.00654,-0.14106 21,0c1.66796,0.03364 3.35128,-0.07821 5.00228,0.16141c1.34746,0.19556 2.65362,1.05604 3.99772,0.83859h2c0,0 5.84803,0 9.5441,4c0.15197,0 0.30393,0 0.4559,0h1c0,0 12.5,0 12.5,12.5z" fill="url(#color-14)" stroke="none" stroke-width="0.5" stroke-linecap="butt"/><path d="M661.00001,371.5c0,12.5 -12.5,12.5 -12.5,12.5c-12.33334,0 -25.66666,0 -38,0c0,0 -4.52078,0 -8.12489,-2.71873c-4.4644,0.07502 -8.92758,-0.12608 -12.87739,-1.44268c-3.8167,0.61745 -6.52197,-0.27042 -10,-1c-1.30525,-0.2738 -2.66406,0.16141 -3.99772,0.16141c-3,0 -6,0 -9,0c-8.66666,0 -17.33334,0 -26,0c-4.62406,0 -9.91159,-0.73233 -14.47271,-0.09366c-3.8224,0.53524 -7.66791,1.04564 -11.52729,1.09366c-5.62245,-0.09076 -10.96906,1.21839 -16.47271,1.90634c-4.17102,0.52137 -8.34684,0.52004 -12.52501,0.93225c-2.57274,0.25383 -18.18851,2.93645 -19.77056,3.10057c-3.86656,0.40112 -18.12883,3.35979 -21.49795,3.94002c-3.71502,0.6398 -7.90978,2.52144 -11.52542,3.70207c-6.7407,1.34814 -12.94689,3.84108 -19.51405,5.86037c-3.97951,1.22363 -7.89754,2.63894 -11.84843,3.95205c-1.74545,0.58011 -3.74065,0.45193 -5.35397,1.33528c-3.8556,2.11108 -7.64372,3.59385 -11.70835,5.31955c-5.93995,2.52189 -12.42295,3.74153 -18.22901,6.64959c-5.66199,2.8359 -11.72603,6.10378 -16.7532,9.87416c-5.1739,1.90619 -10.91022,3.95983 -15.49246,7.06829c-2.34657,1.59184 -4.32437,3.73665 -6.81698,5.08841c-0.8262,0.44806 -1.87578,0.3748 -2.69056,0.8433c-1.19106,0.68487 -2.06768,1.82783 -3.22969,2.56089c-4.65562,2.93703 -9.09301,5.3793 -13.49195,8.90461c-1.23272,0.98791 -2.12369,2.36638 -3.38703,3.31482c-9.58588,7.1965 -20.12472,12.82218 -29.12101,20.78057c-4.0772,1.35906 -6.28224,4.25505 -9.64678,7.03364c-4.31724,3.56538 -9.42104,6.19742 -13.73484,9.7764c-1.73784,1.44182 -3.03479,3.39737 -4.88114,4.69735c-1.2189,0.8582 -2.75295,1.18324 -4,2c-5.27641,3.45577 -10.0565,8.16159 -15.81698,11.08841c-0.58316,0.2963 -1.36265,0.06223 -1.92025,0.4042c-0.8037,0.49289 -1.1755,1.54273 -2,2c-3.44791,1.91222 -7.85118,2.96953 -11.61879,4.2254c-0.9891,-0.58485 -1.75871,1.52066 -2.79411,2.01896c-3.32704,1.6012 -8.464,2.81382 -12.20589,3.98104c-6.31619,1.97024 -12.4166,1.64146 -18.95284,1.64146c-8,0 -16,0 -24,0c0,0 -12.5,0 -12.5,-12.5c0,-12.5 12.5,-12.5 12.5,-12.5c8,0 16,0 24,0c3.05136,0 7.05011,0.67765 9.99772,0.16141c2.45742,-0.4304 5.01826,-2.13385 7.50743,-2.66291c0.43751,-0.09299 0.94555,0.342 1.33611,0.124c0.68885,-0.38449 0.89658,-1.37414 1.58709,-1.75563c1.76328,-0.97416 3.74586,-1.4836 5.61879,-2.2254c2.0945,-0.69817 4.61095,-0.45531 6.38121,-1.7746c0.75597,-0.56338 1.1885,-1.52004 2,-2c1.25687,-0.74336 2.76891,-0.95235 4.07975,-1.5958c4.48615,-2.20213 8.12458,-6.16726 12.18302,-8.91159c1.23489,-0.83504 2.72378,-1.22962 4,-2c1.29631,-0.78251 1.95684,-2.33184 3.11886,-3.30265c4.47916,-3.7421 21.63034,-17.52728 26.61838,-19.18996c0.83874,-1.34042 2.41206,-2.04586 3.64678,-3.03364c1.98747,-1.58998 3.88359,-3.3068 5.99111,-4.73385c5.66599,-3.83658 18.87821,-13.35772 19.85406,-14.13712c7.31802,-5.84477 15.94135,-12.13459 24.58779,-15.69119c1.32983,-0.54701 9.27289,-5.90276 12.21781,-7.58243c3.28155,-1.87168 5.6351,-3.54867 9.47275,-4.26087c2.32141,-1.74106 4.97727,-2.99738 7.57813,-4.28417c3.37498,-1.6698 56.44859,-23.32888 60.52891,-24.58521c6.87624,-2.11719 13.41569,-4.72558 20.48595,-6.13963c4.73377,-1.63136 9.55832,-3.36946 14.47458,-4.29794c3.13797,-0.59262 27.99418,-4.47861 34.20648,-5.02716c2.25958,-0.19952 15.55768,-2.44471 20,-3c6.56052,-0.82006 12.82182,-2.02819 19.52729,-2.09366c4.86587,0.10189 9.09709,-0.95181 14,-1c16.64358,-0.16361 33.35938,-0.33564 50,0c2.69483,0.05435 5.34407,0.71537 8.00228,1.16141c2.30117,0.38612 4.66788,-0.07525 7,0c1.50606,0.50202 3.09777,0.79984 4.73646,0.96567c3.4228,-2.12707 7.26126,-2.12707 7.26126,-2.12707c6.99508,0 14.00654,-0.14106 21,0c1.66796,0.03364 3.35129,-0.07821 5.00228,0.16141c1.34746,0.19556 2.65362,1.05604 3.99772,0.83859h2c0,0 5.84803,0 9.5441,4c0.15197,0 0.30393,0 0.4559,0h1c0,0 12.5,0 12.5,12.5z" fill="url(#color-15)" stroke="none" stroke-width="0.5" stroke-linecap="butt"/><path d="M672.00002,390.16728c0,13.10096 -13.10096,13.10096 -13.10096,13.10096c-12.92628,0 -26.90064,0 -39.82692,0c0,0 -4.73812,0 -8.51551,-2.84943c-4.67903,0.07863 -9.35679,-0.13214 -13.49649,-1.51205c-4.00019,0.64713 -6.83552,-0.28342 -10.48077,-1.04807c-1.368,-0.28697 -2.79214,0.16916 -4.18992,0.16916c-3.14423,0 -6.28847,0 -9.4327,0c-9.08333,0 -18.16667,0 -27.25,0c-4.84637,0 -10.3881,-0.76753 -15.16851,-0.09815c-4.00617,0.56097 -8.03656,1.09591 -12.08149,1.14623c-5.89276,-0.09513 -11.49641,1.27697 -17.26467,1.998c-4.37155,0.54645 -8.74813,0.54503 -13.12717,0.97706c-2.69643,0.26603 -19.06296,3.07763 -20.72107,3.24964c-4.05246,0.4204 -19.0004,3.52131 -22.53151,4.12944c-3.89363,0.67056 -8.29007,2.64267 -12.07952,3.88006c-7.06477,1.41296 -13.56933,4.02574 -20.45222,6.14211c-4.17084,1.28246 -8.27723,2.76581 -12.41807,4.14205c-1.82936,0.608 -3.92049,0.47365 -5.61138,1.39947c-4.04097,2.21258 -8.01121,3.76664 -12.27125,5.5753c-6.22553,2.64314 -13.0202,3.92141 -19.1054,6.96928c-5.93421,2.97224 -12.28978,6.39723 -17.55864,10.34887c-5.42265,1.99784 -11.43476,4.15021 -16.23729,7.4081c-2.45938,1.66838 -4.53228,3.91629 -7.14472,5.33305c-0.86592,0.4696 -1.96596,0.39282 -2.81991,0.88384c-1.24832,0.7178 -2.16708,1.91571 -3.38497,2.68402c-4.87945,3.07823 -9.53017,5.63792 -14.1406,9.33272c-1.29199,1.0354 -2.2258,2.48015 -3.54987,3.47419c-10.04674,7.54249 -21.09226,13.43863 -30.52107,21.77963c-4.27322,1.4244 -6.58427,4.45963 -10.11056,7.3718c-4.52481,3.73679 -9.87398,6.49536 -14.39517,10.24641c-1.8214,1.51114 -3.18069,3.56071 -5.11581,4.92319c-1.2775,0.89946 -2.88531,1.24013 -4.19231,2.09615c-5.53008,3.62191 -10.53999,8.55397 -16.57741,11.62151c-0.61119,0.31054 -1.42817,0.06523 -2.01258,0.42363c-0.84234,0.51659 -1.23202,1.61691 -2.09616,2.09616c-3.61367,2.00415 -8.22864,3.1123 -12.17738,4.42855c-1.03665,-0.61296 -1.84327,1.59376 -2.92845,2.11602c-3.487,1.67818 -8.87093,2.9491 -12.79271,4.17244c-6.61986,2.06496 -13.01355,1.72038 -19.86404,1.72038c-8.38461,0 -16.76924,0 -25.15385,0c0,0 -13.10096,0 -13.10096,-13.10096c0,-13.10096 13.10096,-13.10097 13.10096,-13.10097c8.38461,0 16.76924,0 25.15385,0c3.19806,0 7.38905,0.71024 10.47838,0.16917c2.57557,-0.45109 5.25953,-2.23644 7.86837,-2.79093c0.45854,-0.09746 0.99101,0.35844 1.40035,0.12996c0.72197,-0.40297 0.93968,-1.44021 1.6634,-1.84004c1.84805,-1.02099 3.92595,-1.55493 5.88893,-2.3324c2.19519,-0.73173 4.83263,-0.4772 6.688,-1.85991c0.79231,-0.59047 1.24564,-1.59312 2.09616,-2.09615c1.3173,-0.77911 2.90203,-0.99814 4.27588,-1.67252c4.70183,-2.30801 8.51519,-6.46377 12.76873,-9.34003c1.29426,-0.87518 2.85474,-1.28873 4.19231,-2.09615c1.35863,-0.82013 2.05091,-2.44395 3.2688,-3.46143c4.69451,-3.92201 22.67026,-18.36994 27.89811,-20.11256c0.87907,-1.40486 2.52803,-2.14423 3.82211,-3.17949c2.08302,-1.66642 4.0703,-3.46578 6.27914,-4.96144c5.93839,-4.02103 19.78582,-13.99992 20.80859,-14.81679c7.66985,-6.12577 16.70777,-12.71798 25.7699,-16.44558c1.39376,-0.57331 9.71871,-6.18655 12.8052,-7.94698c3.43932,-1.96166 5.90602,-3.71927 9.92818,-4.46571c2.43301,-1.82477 5.21656,-3.14149 7.94245,-4.49014c3.53724,-1.75007 59.16246,-24.45046 63.43895,-25.76719c7.20682,-2.21898 14.06068,-4.95277 21.47085,-6.4348c4.96136,-1.70979 10.01786,-3.53145 15.17048,-4.50457c3.28883,-0.62112 29.34005,-4.69393 35.85102,-5.26885c2.36821,-0.20911 16.30565,-2.56225 20.96154,-3.14423c6.87593,-0.85949 13.43825,-2.12571 20.4661,-2.19431c5.09981,0.10679 9.53445,-0.99756 14.67308,-1.04807c17.44374,-0.17147 34.9632,-0.35178 52.40384,0c2.82439,0.05697 5.60099,0.74976 8.387,1.21724c2.41179,0.40469 4.8923,-0.07887 7.33654,0c1.57846,0.52616 3.2467,0.83829 4.96417,1.01209c3.58736,-2.22933 7.61036,-2.22933 7.61036,-2.22933c7.33138,0 14.67994,-0.14784 22.00962,0c1.74815,0.03526 3.5124,-0.08197 5.24277,0.16916c1.41224,0.20497 2.7812,1.10681 4.18992,0.87891h2.09615c0,0 6.12919,0 10.00296,4.19231c0.15927,0 0.31854,0 0.47781,0h1.04808c0,0 13.10096,0 13.10096,13.10096z" fill="url(#color-16)" stroke="none" stroke-width="0.5" stroke-linecap="butt"/><path d="M684.00002,398.5c0,12.5 -12.5,12.5 -12.5,12.5c-12.33334,0 -25.66666,0 -38,0c0,0 -4.52078,0 -8.1249,-2.71873c-4.4644,0.07502 -8.92758,-0.12608 -12.87739,-1.44268c-3.8167,0.61745 -6.52197,-0.27042 -10,-1c-1.30525,-0.2738 -2.66406,0.16141 -3.99772,0.16141c-3,0 -6,0 -9,0c-8.66666,0 -17.33334,0 -26,0c-4.62406,0 -9.91159,-0.73233 -14.47271,-0.09366c-3.8224,0.53524 -7.66791,1.04564 -11.52729,1.09366c-5.62245,-0.09076 -10.96906,1.21839 -16.47271,1.90634c-4.17102,0.52137 -8.34684,0.52004 -12.52501,0.93225c-2.57274,0.25383 -18.18851,2.93645 -19.77056,3.10057c-3.86656,0.40112 -18.12883,3.35979 -21.49796,3.94002c-3.71502,0.6398 -7.90978,2.52144 -11.52541,3.70207c-6.7407,1.34814 -12.94689,3.84108 -19.51405,5.86037c-3.97951,1.22363 -7.89754,2.63894 -11.84843,3.95205c-1.74545,0.58011 -3.74065,0.45193 -5.35397,1.33528c-3.8556,2.11108 -7.64372,3.59385 -11.70835,5.31955c-5.93995,2.52189 -12.42295,3.74153 -18.22901,6.64959c-5.66199,2.8359 -11.72603,6.10378 -16.7532,9.87416c-5.1739,1.90619 -10.91023,3.95983 -15.49246,7.06828c-2.34657,1.59185 -4.32437,3.73665 -6.81698,5.08842c-0.8262,0.44805 -1.87578,0.3748 -2.69056,0.8433c-1.19106,0.68487 -2.06768,1.82783 -3.22969,2.56089c-4.65562,2.93702 -9.09301,5.37929 -13.49195,8.90462c-1.23272,0.9879 -2.12369,2.36638 -3.38703,3.31482c-9.58588,7.1965 -20.12472,12.82218 -29.12101,20.78057c-4.0772,1.35906 -6.28224,4.25505 -9.64678,7.03364c-4.31724,3.56538 -9.42104,6.19742 -13.73484,9.7764c-1.73784,1.44182 -3.03479,3.39737 -4.88114,4.69735c-1.2189,0.8582 -2.75295,1.18324 -4,2c-5.27641,3.45577 -10.0565,8.16159 -15.81698,11.08841c-0.58316,0.2963 -1.36265,0.06223 -1.92025,0.4042c-0.80371,0.49289 -1.1755,1.54273 -2,2c-3.44791,1.91222 -7.85118,2.96953 -11.61879,4.2254c-0.9891,-0.58485 -1.75871,1.52066 -2.79411,2.01896c-3.32704,1.6012 -8.464,2.81382 -12.20589,3.98104c-6.31619,1.97024 -12.4166,1.64146 -18.95285,1.64146c-8,0 -16,0 -24,0c0,0 -12.5,0 -12.5,-12.5c0,-12.5 12.5,-12.5 12.5,-12.5c8,0 16,0 24,0c3.05136,0 7.05011,0.67765 9.99772,0.16141c2.45742,-0.4304 5.01826,-2.13385 7.50743,-2.66291c0.43751,-0.09299 0.94554,0.342 1.33611,0.124c0.68885,-0.38449 0.89658,-1.37414 1.58709,-1.75563c1.76328,-0.97416 3.74586,-1.4836 5.61879,-2.2254c2.0945,-0.69817 4.61095,-0.45531 6.38121,-1.7746c0.75597,-0.56338 1.1885,-1.52004 2,-2c1.25688,-0.74336 2.76891,-0.95235 4.07975,-1.5958c4.48615,-2.20213 8.12458,-6.16726 12.18302,-8.91159c1.23489,-0.83504 2.72378,-1.22962 4,-2c1.29631,-0.78251 1.95684,-2.33184 3.11886,-3.30265c4.47916,-3.7421 21.63034,-17.52728 26.61838,-19.18996c0.83874,-1.34043 2.41206,-2.04587 3.64678,-3.03364c1.98747,-1.58998 3.88359,-3.3068 5.99111,-4.73385c5.66599,-3.83658 18.87821,-13.35772 19.85406,-14.13712c7.31802,-5.84477 15.94135,-12.13459 24.58779,-15.69119c1.32983,-0.54701 9.27289,-5.90276 12.21781,-7.58243c3.28155,-1.87168 5.6351,-3.54867 9.47275,-4.26087c2.32141,-1.74106 4.97728,-2.99738 7.57813,-4.28417c3.37498,-1.6698 56.44859,-23.32888 60.52891,-24.58521c6.87624,-2.11719 13.41569,-4.72558 20.48595,-6.13963c4.73377,-1.63136 9.55832,-3.36946 14.47459,-4.29793c3.13796,-0.59262 27.99418,-4.47861 34.20647,-5.02716c2.25958,-0.19952 15.55768,-2.44471 20,-3c6.56052,-0.82006 12.82182,-2.0282 19.52729,-2.09366c4.86587,0.10189 9.09709,-0.9518 14,-1c16.64358,-0.16361 33.35938,-0.33564 50,0c2.69483,0.05435 5.34407,0.71537 8.00228,1.16141c2.30117,0.38612 4.66788,-0.07525 7,0c1.50605,0.50202 3.09777,0.79984 4.73645,0.96567c3.42279,-2.12707 7.26126,-2.12707 7.26126,-2.12707c6.99508,0 14.00654,-0.14106 21,0c1.66796,0.03364 3.35129,-0.07821 5.00228,0.16141c1.34746,0.19556 2.65362,1.05604 3.99772,0.83859h2c0,0 5.84803,0 9.5441,4c0.15197,0 0.30393,0 0.4559,0h1c0,0 12.5,0 12.5,12.5z" fill="url(#color-17)" stroke="none" stroke-width="0.5" stroke-linecap="butt"/><path d="M686.00002,416.5c0,12.5 -12.5,12.5 -12.5,12.5c-12.33334,0 -25.66666,0 -38,0c0,0 -4.52078,0 -8.1249,-2.71873c-4.4644,0.07502 -8.92758,-0.12608 -12.87739,-1.44268c-3.8167,0.61745 -6.52197,-0.27042 -10,-1c-1.30525,-0.2738 -2.66406,0.16141 -3.99772,0.16141c-3,0 -6,0 -9,0c-8.66666,0 -17.33334,0 -26,0c-4.62406,0 -9.91159,-0.73233 -14.47271,-0.09366c-3.8224,0.53524 -7.66791,1.04564 -11.52729,1.09366c-5.62245,-0.09076 -10.96906,1.21839 -16.47271,1.90634c-4.17102,0.52137 -8.34684,0.52004 -12.52501,0.93225c-2.57274,0.25383 -18.18851,2.93645 -19.77056,3.10057c-3.86656,0.40112 -18.12883,3.35979 -21.49796,3.94002c-3.71502,0.6398 -7.90978,2.52144 -11.52541,3.70207c-6.7407,1.34814 -12.94689,3.84108 -19.51405,5.86037c-3.97951,1.22363 -7.89754,2.63894 -11.84843,3.95205c-1.74545,0.58011 -3.74065,0.45193 -5.35397,1.33528c-3.8556,2.11108 -7.64372,3.59385 -11.70835,5.31955c-5.93995,2.52189 -12.42295,3.74153 -18.22901,6.64959c-5.66199,2.8359 -11.72603,6.10378 -16.7532,9.87416c-5.1739,1.90619 -10.91023,3.95983 -15.49246,7.06828c-2.34657,1.59185 -4.32437,3.73665 -6.81698,5.08842c-0.8262,0.44805 -1.87578,0.37479 -2.69056,0.8433c-1.19106,0.68487 -2.06768,1.82783 -3.22969,2.56089c-4.65562,2.93703 -9.09301,5.3793 -13.49195,8.90462c-1.23272,0.9879 -2.12369,2.36638 -3.38703,3.31482c-9.58588,7.1965 -20.12472,12.82218 -29.12101,20.78056c-4.0772,1.35907 -6.28224,4.25505 -9.64678,7.03364c-4.31724,3.56537 -9.42104,6.19741 -13.73484,9.7764c-1.73784,1.44182 -3.03479,3.39737 -4.88114,4.69735c-1.2189,0.8582 -2.75295,1.18325 -4,2c-5.27641,3.45577 -10.0565,8.16159 -15.81698,11.08842c-0.58316,0.29629 -1.36265,0.06223 -1.92025,0.40419c-0.80371,0.4929 -1.1755,1.54273 -2,2c-3.44791,1.91222 -7.85118,2.96953 -11.61879,4.22541c-0.9891,-0.58485 -1.75871,1.52065 -2.79411,2.01896c-3.32704,1.6012 -8.464,2.81382 -12.20589,3.98104c-6.31619,1.97024 -12.4166,1.64146 -18.95285,1.64146c-8,0 -16,0 -24,0c0,0 -12.5,0 -12.5,-12.5c0,-12.5 12.5,-12.5 12.5,-12.5c8,0 16,0 24,0c3.05136,0 7.05011,0.67766 9.99772,0.16141c2.45742,-0.43039 5.01826,-2.13385 7.50743,-2.6629c0.43751,-0.09299 0.94554,0.342 1.33611,0.124c0.68885,-0.38449 0.89658,-1.37414 1.58709,-1.75563c1.76328,-0.97416 3.74586,-1.48361 5.61879,-2.22541c2.0945,-0.69817 4.61095,-0.45531 6.38121,-1.77459c0.75597,-0.56339 1.1885,-1.52004 2,-2c1.25688,-0.74337 2.76891,-0.95235 4.07975,-1.59581c4.48615,-2.20213 8.12458,-6.16726 12.18302,-8.91159c1.23489,-0.83503 2.72378,-1.22962 4,-2c1.29631,-0.78251 1.95684,-2.33184 3.11886,-3.30265c4.47916,-3.7421 21.63034,-17.52728 26.61838,-19.18996c0.83874,-1.34043 2.41206,-2.04587 3.64678,-3.03364c1.98747,-1.58998 3.88359,-3.3068 5.99111,-4.73385c5.66599,-3.83658 18.87821,-13.35772 19.85406,-14.13712c7.31802,-5.84477 15.94135,-12.13459 24.58779,-15.69119c1.32983,-0.547 9.27289,-5.90276 12.21781,-7.58243c3.28155,-1.87168 5.6351,-3.54867 9.47275,-4.26087c2.32141,-1.74106 4.97728,-2.99738 7.57813,-4.28417c3.37498,-1.6698 56.44859,-23.32888 60.52891,-24.58521c6.87624,-2.11719 13.41569,-4.72558 20.48595,-6.13963c4.73377,-1.63136 9.55832,-3.36946 14.47459,-4.29793c3.13796,-0.59262 27.99418,-4.47861 34.20647,-5.02716c2.25958,-0.19952 15.55768,-2.44471 20,-3c6.56052,-0.82006 12.82182,-2.0282 19.52729,-2.09366c4.86587,0.10189 9.09709,-0.9518 14,-1c16.64358,-0.16361 33.35938,-0.33564 50,0c2.69483,0.05435 5.34407,0.71537 8.00228,1.16141c2.30116,0.38612 4.66788,-0.07525 7,0c1.50605,0.50202 3.09777,0.79984 4.73645,0.96567c3.42279,-2.12707 7.26126,-2.12707 7.26126,-2.12707c6.99508,0 14.00654,-0.14106 21,0c1.66796,0.03364 3.35129,-0.07821 5.00228,0.16141c1.34746,0.19556 2.65362,1.05604 3.99772,0.83859h2c0,0 5.84803,0 9.5441,4c0.15197,0 0.30393,0 0.4559,0h1c0,0 12.5,0 12.5,12.5z" fill="url(#color-18)" stroke="none" stroke-width="0.5" stroke-linecap="butt"/><path d="M708.00002,429.5c0,12.5 -12.5,12.5 -12.5,12.5c-12.33334,0 -25.66666,0 -38,0c0,0 -4.52078,0 -8.1249,-2.71873c-4.4644,0.07502 -8.92758,-0.12608 -12.87739,-1.44268c-3.8167,0.61745 -6.52197,-0.27042 -10,-1c-1.30525,-0.2738 -2.66406,0.16141 -3.99772,0.16141c-3,0 -6,0 -9,0c-8.66666,0 -17.33334,0 -26,0c-4.62406,0 -9.91159,-0.73233 -14.47271,-0.09366c-3.8224,0.53524 -7.66791,1.04564 -11.52729,1.09366c-5.62245,-0.09076 -10.96906,1.21839 -16.47271,1.90634c-4.17102,0.52137 -8.34684,0.52004 -12.52501,0.93225c-2.57274,0.25383 -18.18851,2.93645 -19.77056,3.10057c-3.86656,0.40111 -18.12883,3.35979 -21.49796,3.94002c-3.71502,0.6398 -7.90978,2.52144 -11.52541,3.70206c-6.7407,1.34814 -12.94688,3.84108 -19.51405,5.86037c-3.97951,1.22363 -7.89754,2.63894 -11.84843,3.95205c-1.74545,0.58011 -3.74065,0.45192 -5.35397,1.33528c-3.8556,2.11108 -7.64372,3.59385 -11.70835,5.31956c-5.93995,2.52189 -12.42295,3.74153 -18.22901,6.64959c-5.66199,2.8359 -11.72603,6.10378 -16.7532,9.87416c-5.1739,1.90619 -10.91023,3.95983 -15.49246,7.06829c-2.34657,1.59184 -4.32437,3.73665 -6.81698,5.08841c-0.8262,0.44806 -1.87578,0.37479 -2.69056,0.8433c-1.19106,0.68487 -2.06768,1.82783 -3.22969,2.56089c-4.65562,2.93703 -9.09301,5.3793 -13.49195,8.90462c-1.23272,0.9879 -2.12369,2.36638 -3.38703,3.31482c-9.58588,7.1965 -20.12472,12.82218 -29.12101,20.78056c-4.0772,1.35906 -6.28224,4.25505 -9.64678,7.03364c-4.31724,3.56538 -9.42104,6.19742 -13.73484,9.7764c-1.73784,1.44182 -3.03479,3.39737 -4.88114,4.69735c-1.2189,0.8582 -2.75295,1.18324 -4,2c-5.27641,3.45577 -10.0565,8.16159 -15.81698,11.08841c-0.58316,0.29629 -1.36265,0.06223 -1.92025,0.40419c-0.80371,0.49289 -1.1755,1.54273 -2,2c-3.44791,1.91222 -7.85118,2.96954 -11.61879,4.22541c-0.9891,-0.58485 -1.75871,1.52066 -2.79411,2.01896c-3.32704,1.6012 -8.464,2.81382 -12.20589,3.98104c-6.31619,1.97024 -12.4166,1.64146 -18.95285,1.64146c-8,0 -16,0 -24,0c0,0 -12.5,0 -12.5,-12.5c0,-12.5 12.5,-12.5 12.5,-12.5c8,0 16,0 24,0c3.05136,0 7.0501,0.67765 9.99772,0.1614c2.45742,-0.43039 5.01827,-2.13385 7.50744,-2.66291c0.43751,-0.09299 0.94554,0.342 1.33611,0.124c0.68885,-0.38449 0.89658,-1.37414 1.58709,-1.75563c1.76328,-0.97416 3.74586,-1.48361 5.61879,-2.22541c2.0945,-0.69817 4.61095,-0.45531 6.38121,-1.77459c0.75597,-0.56338 1.1885,-1.52004 2,-2c1.25688,-0.74337 2.76891,-0.95235 4.07975,-1.59581c4.48615,-2.20213 8.12458,-6.16726 12.18302,-8.91158c1.23489,-0.83504 2.72378,-1.22962 4,-2c1.29631,-0.78251 1.95684,-2.33185 3.11886,-3.30265c4.47916,-3.7421 21.63034,-17.52728 26.61838,-19.18996c0.83874,-1.34042 2.41206,-2.04587 3.64678,-3.03364c1.98747,-1.58998 3.88359,-3.30681 5.99111,-4.73386c5.66599,-3.83658 18.87821,-13.35772 19.85406,-14.13712c7.31802,-5.84477 15.94135,-12.13459 24.58779,-15.69119c1.32983,-0.54701 9.2729,-5.90276 12.21781,-7.58243c3.28155,-1.87168 5.6351,-3.54867 9.47275,-4.26087c2.32141,-1.74106 4.97728,-2.99738 7.57813,-4.28417c3.37498,-1.6698 56.44859,-23.32888 60.52891,-24.58521c6.87624,-2.11719 13.41569,-4.72558 20.48595,-6.13963c4.73377,-1.63136 9.55832,-3.36946 14.47459,-4.29793c3.13796,-0.59262 27.99418,-4.47861 34.20647,-5.02716c2.25958,-0.19952 15.55768,-2.44471 20,-3c6.56052,-0.82006 12.82182,-2.0282 19.52729,-2.09366c4.86587,0.10189 9.09709,-0.9518 14,-1c16.64358,-0.16361 33.35938,-0.33564 50,0c2.69483,0.05435 5.34407,0.71537 8.00228,1.16141c2.30116,0.38612 4.66788,-0.07525 7,0c1.50605,0.50202 3.09777,0.79984 4.73645,0.96567c3.42279,-2.12707 7.26126,-2.12707 7.26126,-2.12707c6.99508,0 14.00654,-0.14106 21,0c1.66796,0.03364 3.35129,-0.07821 5.00228,0.16141c1.34746,0.19556 2.65362,1.05604 3.99772,0.83859h2c0,0 5.84803,0 9.5441,4c0.15197,0 0.30393,0 0.4559,0h1c0,0 12.5,0 12.5,12.5z" fill="url(#color-19)" stroke="none" stroke-width="0.5" stroke-linecap="butt"/><path d="M513.50001,-3.5c0,0 -311.83728,134.43909 -407.36614,156.7179c-93.07389,21.70628 -155.63386,7.2821 -155.63386,7.2821" fill="none" stroke="#00f3ff" stroke-width="50" stroke-linecap="round"/><path d="M485.50001,-32.5c0,0 -311.83729,134.43908 -407.36615,156.7179c-93.07389,21.70628 -155.63385,7.2821 -155.63385,7.2821" fill="none" stroke="url(#color-20)" stroke-width="50" stroke-linecap="round"/><path d="M440.50001,-64.5c0,0 -311.83729,134.43909 -407.36615,156.7179c-93.07389,21.70628 -155.63385,7.2821 -155.63385,7.2821" fill="none" stroke="url(#color-21)" stroke-width="50" stroke-linecap="round"/><path d="M430.71544,-94.45988c0,0 -376.42064,155.54186 -479.05712,162.48328c-99.99886,6.76304 -147.75824,-51.16473 -147.75824,-51.16473" fill="none" stroke="url(#color-22)" stroke-width="50" stroke-linecap="round"/><path d="M418.71544,-128.45989c0,0 -376.42064,155.54186 -479.05712,162.48328c-99.99886,6.76303 -147.75824,-51.16473 -147.75824,-51.16473" fill="none" stroke="url(#color-23)" stroke-width="50" stroke-linecap="round"/></g></g></svg>