<svg version="1.1" xmlns="http://www.w3.org/2000/svg" xmlns:xlink="http://www.w3.org/1999/xlink" width="121.89852" height="121.89852" viewBox="0,0,121.89852,121.89852"><defs><linearGradient x1="182.30074" y1="171.72132" x2="299.19926" y2="171.72132" gradientUnits="userSpaceOnUse" id="color-1"><stop offset="0" stop-color="#52dcff"/><stop offset="1" stop-color="#1db4ff"/></linearGradient><linearGradient x1="223.47017" y1="160.90163" x2="257.27684" y2="160.90163" gradientUnits="userSpaceOnUse" id="color-2"><stop offset="0" stop-color="#52dcff"/><stop offset="1" stop-color="#1db4ff"/></linearGradient><linearGradient x1="218.36384" y1="188.23943" x2="262.26372" y2="188.23943" gradientUnits="userSpaceOnUse" id="color-3"><stop offset="0" stop-color="#52dcff"/><stop offset="1" stop-color="#1db4ff"/></linearGradient></defs><g transform="translate(-179.80074,-110.77206)"><g data-paper-data="{&quot;isPaintingLayer&quot;:true}" fill-rule="nonzero" stroke-width="5" stroke-linecap="butt" stroke-linejoin="miter" stroke-miterlimit="10" stroke-dasharray="" stroke-dashoffset="0" style="mix-blend-mode: normal"><path d="M182.30074,171.72132c0,-32.28064 26.16863,-58.44926 58.44926,-58.44926c32.28064,0 58.44926,26.16863 58.44926,58.44926c0,32.28064 -26.16863,58.44926 -58.44926,58.44926c-32.28064,0 -58.44926,-26.16863 -58.44926,-58.44926z" fill="#ffffff" stroke="url(#color-1)"/><path d="M223.47017,160.90163c0,-14.25311 7.56788,-25.80754 16.90334,-25.80754c9.33546,0 16.90334,11.55443 16.90334,25.80754c0,14.25311 -7.56788,25.80754 -16.90334,25.80754c-9.33546,0 -16.90334,-11.55443 -16.90334,-25.80754z" fill="none" stroke="url(#color-2)"/><path d="M218.36384,210.43326v-44.38767h43.89989v44.38767z" fill="#ffffff" stroke="url(#color-3)"/></g></g></svg>