<svg version="1.1" xmlns="http://www.w3.org/2000/svg" xmlns:xlink="http://www.w3.org/1999/xlink" width="185.22712" height="164.99519" viewBox="0,0,185.22712,164.99519"><defs><linearGradient x1="149.88643" y1="180" x2="330.11356" y2="180" gradientUnits="userSpaceOnUse" id="color-1"><stop offset="0" stop-color="#57d6ff"/><stop offset="1" stop-color="#005bff"/></linearGradient></defs><g transform="translate(-147.38644,-97.5024)"><g stroke-miterlimit="10"><path d="M330.11356,239.83331c0,11.13546 -9.03115,20.16428 -20.16427,20.16428l-139.90092,-0.43433c-11.13546,0 -20.16193,-9.03116 -20.16193,-20.16428v-119.23465c0,-11.13546 9.02647,-20.16193 20.16194,-20.16193l139.89858,0.43433c11.14015,0 20.16427,9.02647 20.16427,20.16194v119.23464z" fill="url(#color-1)" stroke="#19191b" stroke-width="5" stroke-linecap="butt"/><path d="M210.5,167.77415c0,-16.2924 13.2076,-29.5 29.5,-29.5c16.2924,0 29.5,13.2076 29.5,29.5c0,16.2924 -13.2076,29.5 -29.5,29.5c-16.2924,0 -29.5,-13.2076 -29.5,-29.5z" fill="none" stroke="#ededff" stroke-width="5" stroke-linecap="butt"/><path d="M263.44202,151.81515c0,0 -9.85365,14.56097 -18.01672,18.96903c-8.4907,4.58498 -31.98328,8.03097 -31.98328,8.03097" fill="none" stroke="#ededff" stroke-width="5" stroke-linecap="round"/><path d="M243.15509,140.90445c0,0 8.28734,15.50602 8.38102,24.78276c0.09745,9.64907 -7.80718,32.03864 -7.80718,32.03864" fill="none" stroke="#ededff" stroke-width="5" stroke-linecap="round"/><path d="M262.22731,177.98726c-3.41631,7.3445 -14.37238,9.49038 -24.47107,4.79296c-10.09869,-4.69742 -15.51583,-14.45933 -12.09952,-21.80383c3.41631,-7.3445 14.37238,-9.49038 24.47107,-4.79296c10.09869,4.69742 15.51583,14.45933 12.09952,21.80383z" fill="none" stroke="#ededff" stroke-width="5" stroke-linecap="butt"/><text transform="translate(191.29002,247.33333) scale(0.5,0.5)" font-size="40" xml:space="preserve" fill="#ffffff" stroke="#ffffff" stroke-width="2" stroke-linecap="butt" font-family="Sans Serif" font-weight="normal" text-anchor="start"><tspan x="0" dy="0">bayoTrack</tspan></text><text transform="translate(229.92001,230.66667) scale(0.5,0.5)" font-size="40" xml:space="preserve" fill="#ffffff" stroke="#ffffff" stroke-width="2" stroke-linecap="butt" font-family="Sans Serif" font-weight="normal" text-anchor="start"><tspan x="0" dy="0">AI</tspan></text></g></g></svg>