<svg version="1.1" xmlns="http://www.w3.org/2000/svg" xmlns:xlink="http://www.w3.org/1999/xlink" width="52.81191" height="51.93022" viewBox="0,0,52.81191,51.93022"><g transform="translate(-213.59405,-154.03489)"><g stroke-miterlimit="10"><path d="M266.40596,197.36011c0,4.752 -3.854,8.605 -8.605,8.605h-35.60291c-4.752,0 -8.604,-3.854 -8.604,-8.605v-34.72122c0,-4.752 3.852,-8.604 8.604,-8.604h35.60191c4.754,0 8.605,3.852 8.605,8.604z" fill="#4e4e4e" stroke="none" stroke-width="1"/><path d="M262.99098,197.35911c0,2.862 -2.327,5.19 -5.191,5.19h-35.60191c-2.861,0 -5.19,-2.328 -5.19,-5.19v-34.72122c0,-2.862 2.329,-5.19 5.19,-5.19h35.60191c2.40858,0 4.43736,1.6472 5.02167,3.87335c0.11048,0.42093 0.16933,36.03787 0.16933,36.03787z" fill="#000000" stroke="#000000" stroke-width="2.5"/><path d="M230.4026,168.33043c0,0.89271 -0.72583,1.61885 -1.61916,1.61885h-2.98747c-0.89239,0 -1.61885,-0.72614 -1.61885,-1.61885v-0.61441c0,-0.89271 0.72645,-1.61885 1.61885,-1.61885h2.98747c0.75128,0 1.38409,0.51379 1.56634,1.20816c0.03446,0.1313 0.05282,1.02509 0.05282,1.02509z" fill="none" stroke="#ffffff" stroke-width="1"/><path d="M259.00818,187.09259c0,2.862 -2.327,5.19 -5.191,5.19h-27.63534c-2.861,0 -5.19,-2.328 -5.19,-5.19v-14.18518c0,-2.862 2.329,-5.19 5.19,-5.19c0,0 3.41672,0 6.74284,0c0.4154,0 0.62011,-5.31105 1.14467,-5.31105c1.12004,0 10.78967,0 12.39244,0c0.47694,0 0.67874,5.31105 1.14467,5.31105c4.25521,0 6.21072,0 6.21072,0c2.40858,0 4.43736,1.6472 5.02167,3.87335c0.11048,0.42093 0.16933,15.50183 0.16933,15.50183z" fill="#000000" stroke="#ffffff" stroke-width="1.5"/><path d="M246.47452,175.06046c2.72803,3.57577 2.04081,8.68601 -1.53497,11.41405c-3.57577,2.72803 -8.68601,2.04081 -11.41405,-1.53497c-2.72803,-3.57577 -2.04081,-8.68601 1.53497,-11.41405c3.57577,-2.72803 8.68601,-2.04081 11.41405,1.53497z" fill="#000000" stroke="#ffffff" stroke-width="1"/><path d="M243.56811,176.06712c2.17207,1.97061 2.33538,5.32892 0.36477,7.50099c-1.97061,2.17207 -5.32892,2.33538 -7.50099,0.36477c-2.17207,-1.97061 -2.33538,-5.32892 -0.36477,-7.50099c1.97061,-2.17207 5.32892,-2.33538 7.50099,-0.36477z" fill="none" stroke="#ffffff" stroke-width="1"/></g></g></svg>