<svg version="1.1" xmlns="http://www.w3.org/2000/svg" xmlns:xlink="http://www.w3.org/1999/xlink" width="253.17432" height="54.787" viewBox="0,0,253.17432,54.787"><g transform="translate(-179.768,-149.537)"><g data-paper-data="{&quot;isPaintingLayer&quot;:true}" fill="#ffffff" fill-rule="nonzero" stroke="#000000" stroke-linecap="butt" stroke-linejoin="miter" stroke-miterlimit="10" stroke-dasharray="" stroke-dashoffset="0" style="mix-blend-mode: normal"><path d="M431.69232,176.93c0,14.416 -11.729,26.144 -26.144,26.144h-198.38732c-14.415,0 -26.143,-11.727 -26.143,-26.144c0,-14.415 11.727,-26.143 26.143,-26.143h198.38732c14.415,0 26.144,11.728 26.144,26.143z" stroke-width="2.5"/><path d="M427.18832,176.93c0,11.952 -9.688,21.641 -21.64,21.641h-198.38732c-11.952,0 -21.641,-9.689 -21.641,-21.641v0c0,-11.951 9.689,-21.64 21.641,-21.64h198.38732c11.952,0 21.59941,9.689 21.59941,21.64z" stroke-width="0"/></g></g></svg>