<svg version="1.1" xmlns="http://www.w3.org/2000/svg" xmlns:xlink="http://www.w3.org/1999/xlink" width="27.26629" height="27.26629" viewBox="0,0,27.26629,27.26629"><defs><linearGradient x1="229.62607" y1="171.94736" x2="250.37394" y2="188.05263" gradientUnits="userSpaceOnUse" id="color-1"><stop offset="0" stop-color="#eaeaea"/><stop offset="1" stop-color="#002dff"/></linearGradient></defs><g transform="translate(-226.36685,-166.36685)"><g stroke-miterlimit="10"><path d="M229.62607,171.94736c4.44734,-5.72937 12.6972,-6.76864 18.42657,-2.3213c5.72937,4.44735 6.76864,12.6972 2.3213,18.42657c-4.44735,5.72937 -12.69721,6.76864 -18.42657,2.3213c-5.72936,-4.44735 -6.76864,-12.6972 -2.3213,-18.42657z" fill="#fafafa" stroke="url(#color-1)" stroke-width="1" stroke-linecap="butt"/><path d="M235.81948,173.74861l2.86509,2.86509" fill="none" stroke="#000000" stroke-width="1" stroke-linecap="round"/><path d="M231.69119,183.25195c0,-1.65655 1.3429,-2.99945 2.99944,-2.99945c1.65655,0 2.99944,1.3429 2.99944,2.99945c0,1.65655 -1.34289,2.99944 -2.99944,2.99944c-1.65655,0 -2.99944,-1.34289 -2.99944,-2.99944z" fill="none" stroke="#000000" stroke-width="1" stroke-linecap="butt"/><path d="M236.149,184.30909c0,0 -1.89405,0.4887 -2.43646,-0.03388c-0.65891,-0.63481 -0.30589,-2.23596 -0.30589,-2.23596l3.89239,-3.96411l2.0788,2.42255l-3.22884,3.81141z" fill="#ffffff" stroke="none" stroke-width="0" stroke-linecap="butt"/><path d="M245.51876,186.003c-1.54091,0 -2.79004,-1.24915 -2.79004,-2.79005c0,-0.8965 0.42283,-1.69426 1.07995,-2.2047c0.47233,-0.36689 1.0657,-0.58535 1.71009,-0.58535c1.54091,0 2.79005,1.24914 2.79005,2.79005c0,1.54091 -1.24914,2.79005 -2.79005,2.79005z" fill="none" stroke="#000000" stroke-width="1" stroke-linecap="butt"/><path d="M243.9761,184.10676l-3.22884,-3.81141l2.0788,-2.42255l3.89238,3.96412c0,0 0.35301,1.60115 -0.30589,2.23596c-0.54242,0.52258 -2.43646,0.03388 -2.43646,0.03388z" fill="#ffffff" stroke="none" stroke-width="0" stroke-linecap="butt"/><path d="M245.2381,182.88992l-3.552,-3.7211" fill="none" stroke="#000000" stroke-width="1" stroke-linecap="round"/><path d="M244.11862,173.8003l-9.11669,9.1167" fill="none" stroke="#000000" stroke-width="1" stroke-linecap="round"/></g></g></svg>