<svg version="1.1" xmlns="http://www.w3.org/2000/svg" xmlns:xlink="http://www.w3.org/1999/xlink" width="171.79345" height="209.5969" viewBox="0,0,171.79345,209.5969"><g transform="translate(-153.98268,27.29845)"><g stroke="#000000" stroke-width="0" stroke-miterlimit="10"><path d="M325.23037,168.16786c0,7.80343 -6.32879,14.13059 -14.13059,14.13059h-142.98816c-7.80343,0 -14.12894,-6.32879 -14.12894,-14.13059l0.54739,-181.33737c0,-7.80343 6.32551,-14.12894 14.12894,-14.12894h142.98652c7.80672,0 14.1306,6.32551 14.1306,14.12894z" fill="#000000"/><path d="M319.62247,168.16622c0,4.6998 -3.82125,8.52268 -8.52433,8.52268h-142.98654c-4.69815,0 -8.52268,-3.82289 -8.52268,-8.52268l0.54737,-180.78998c0,-4.6998 3.82454,-9.07007 8.52268,-9.07007l142.43915,0.54737c3.95522,0 7.28676,2.70492 8.24627,6.36057c0.18142,0.69122 0.27807,182.95209 0.27807,182.95209z" fill="#fcfeff"/></g></g></svg>