<svg version="1.1" xmlns="http://www.w3.org/2000/svg" xmlns:xlink="http://www.w3.org/1999/xlink" width="117.4176" height="47.96363" viewBox="0,0,117.4176,47.96363"><g transform="translate(-186.2912,-160.0182)"><g data-paper-data="{&quot;isPaintingLayer&quot;:true}" fill-rule="nonzero" stroke="#000000" stroke-linecap="butt" stroke-linejoin="miter" stroke-miterlimit="10" stroke-dasharray="" stroke-dashoffset="0" style="mix-blend-mode: normal"><path d="M274.87546,185.00001c0,-7.27175 5.89492,-13.16667 13.16667,-13.16667c7.27175,0 13.16667,5.89492 13.16667,13.16667c0,7.27175 -5.89492,13.16667 -13.16667,13.16667c-7.27175,0 -13.16667,-5.89492 -13.16667,-13.16667z" fill="#000000" stroke-width="5"/><path d="M284.49404,200.16797c0,2.50053 -1.9824,4.5345 -4.42226,4.5345c0,0 -5.11215,0 -9.75735,0c-11.60286,0 -75.63614,0 -75.63614,0c-2.43731,0 -4.42141,-2.03397 -4.42141,-4.5345v-30.33591c0,-2.50053 1.9841,-4.5345 4.42141,-4.5345h85.39348c2.05189,0 3.78023,1.43915 4.27801,3.38414c0.09411,0.36777 0.14425,31.48627 0.14425,31.48627z" fill="#000000" stroke-width="0.5"/><path d="M285.95972,198.36262c0,3.93149 -3.18854,7.11921 -7.11921,7.11921h-82.93093c-3.93149,0 -7.11838,-3.18854 -7.11838,-7.11921v-28.72604c0,-3.93149 3.18689,-7.11838 7.11838,-7.11838h82.93011c3.93314,0 7.11921,3.18689 7.11921,7.11838z" fill="none" stroke-width="5"/></g></g></svg>