<svg version="1.1" xmlns="http://www.w3.org/2000/svg" xmlns:xlink="http://www.w3.org/1999/xlink" width="27.2663" height="27.2663" viewBox="0,0,27.2663,27.2663"><defs><linearGradient x1="229.62607" y1="171.94737" x2="250.37393" y2="188.05264" gradientUnits="userSpaceOnUse" id="color-1"><stop offset="0" stop-color="#eaeaea"/><stop offset="1" stop-color="#00a9ff"/></linearGradient><linearGradient x1="229.62606" y1="171.94737" x2="250.37392" y2="188.05264" gradientUnits="userSpaceOnUse" id="color-2"><stop offset="0" stop-color="#eaeaea"/><stop offset="1" stop-color="#00a9ff"/></linearGradient></defs><g transform="translate(-226.36685,-166.36686)"><g stroke-miterlimit="10"><path d="M229.62607,171.94737c4.44734,-5.72937 12.6972,-6.76864 18.42657,-2.3213c5.72937,4.44735 6.76865,12.6972 2.3213,18.42657c-4.44735,5.72937 -12.6972,6.76864 -18.42657,2.3213c-5.72936,-4.44735 -6.76864,-12.6972 -2.3213,-18.42657z" fill="#00a9ff" stroke="url(#color-1)" stroke-width="1" stroke-linecap="butt"/><path d="M236.93254,174.41067l3.09561,-4.20195l4.19671,4.68318l-3.73004,5.34985z" fill="none" stroke="#ffffff" stroke-width="1.5" stroke-linecap="butt"/><path d="M240.08388,190.46831l-0.16776,-20.93661" fill="none" stroke="#ffffff" stroke-width="1.5" stroke-linecap="round"/><path d="M240.4725,181.09159l3.73004,5.34985l-4.23113,4.05405c0,0 -1.86367,-0.50773 -2.46621,-1.20109c-0.51525,-0.59291 -0.59496,-2.37173 -0.59496,-2.37173z" fill="none" stroke="#ffffff" stroke-width="1.5" stroke-linecap="butt"/><path d="M234.97514,191.03384l-0.06667,-22.87917l4.42412,-0.72185l-0.08069,5.55998l-3.47909,3.86074c0,0 -0.17798,6.95271 -0.12144,8.14836c0.03911,0.82702 3.68122,3.48699 3.68122,4.0863c0,3.10497 -0.4011,3.07897 -0.4011,3.07897z" fill="#00a9ff" stroke="#ffffff" stroke-width="0" stroke-linecap="butt"/><path d="M229.62606,171.94737c4.44734,-5.72937 12.6972,-6.76864 18.42657,-2.3213c5.72937,4.44735 6.76865,12.6972 2.3213,18.42657c-4.44735,5.72937 -12.6972,6.76864 -18.42657,2.3213c-5.72936,-4.44735 -6.76864,-12.6972 -2.3213,-18.42657z" fill="none" stroke="url(#color-2)" stroke-width="1" stroke-linecap="butt"/></g></g></svg>