<svg version="1.1" xmlns="http://www.w3.org/2000/svg" xmlns:xlink="http://www.w3.org/1999/xlink" width="678.43844" height="559.09428" viewBox="0,0,678.43844,559.09428"><g transform="translate(249.59458,99.54714)"><g stroke-miterlimit="10"><path d="M274.5415,370.38572c0,35.43231 -28.73656,64.16142 -64.16142,64.16142l-230.76756,-1.38202c-35.43231,0 -64.15397,-28.73656 -64.15397,-64.16142v-379.39687c0,-35.43231 28.72165,-64.15397 64.15397,-64.15397l230.7601,1.38202c35.44722,0 64.16142,28.72165 64.16142,64.15397v379.39687z" fill="none" stroke="#19191b" stroke-width="50"/><path d="M240.75771,350.87674c0,31.80153 -25.7919,57.58674 -57.58675,57.58674l-176.34858,-1.2404c-31.80153,0 -57.58006,-25.7919 -57.58006,-57.58675v-340.51975c0,-31.80153 25.77852,-57.58006 57.58006,-57.58006l176.34189,1.2404c31.81492,0 57.58674,25.77852 57.58674,57.58006v340.51975z" fill="none" stroke="#19191b" stroke-width="50"/><path d="M-249.59457,451.02102v-542.04204h187.68769v542.04204z" fill="#19191b" stroke="none" stroke-width="NaN"/><path d="M210.36449,333.32569c0,28.53514 -23.14277,50.67191 -51.67191,50.67191l-127.39114,-0.113c-28.53514,0 -51.66591,-23.14277 -51.66591,-51.67191v-305.54437c0,-28.53514 23.13076,-50.16591 51.66591,-50.16591l127.38513,-0.387c28.54715,0 51.67191,23.13076 51.67191,51.66591c0,0 0,44.66881 0,77.21868c0,55.97133 0,228.32569 0,228.32569z" fill="none" stroke="#19191b" stroke-width="50"/><path d="M241.15618,451.02102v-542.04204h187.68769v542.04204z" fill="#19191b" stroke="none" stroke-width="NaN"/></g></g></svg>