<svg version="1.1" xmlns="http://www.w3.org/2000/svg" xmlns:xlink="http://www.w3.org/1999/xlink" width="106.51531" height="105.01532" viewBox="0,0,106.51531,105.01532"><defs><radialGradient cx="88.5" cy="179.5" r="52.50766" gradientUnits="userSpaceOnUse" id="color-1"><stop offset="0" stop-color="#000000" stop-opacity="0"/><stop offset="1" stop-color="#000000" stop-opacity="0.54902"/></radialGradient><linearGradient x1="135.99093" y1="203.99987" x2="54.00907" y2="156.00013" gradientUnits="userSpaceOnUse" id="color-2"><stop offset="0" stop-color="#0098ff"/><stop offset="1" stop-color="#00ccff"/></linearGradient></defs><g transform="translate(-35.99235,-126.99234)"><g stroke="none" stroke-miterlimit="10"><path d="M133.80507,206.02576c-14.64977,25.02129 -46.80953,33.42908 -71.83083,18.7793c-25.02129,-14.64977 -33.42908,-46.80953 -18.7793,-71.83083c14.64977,-25.02129 46.80953,-33.42908 71.83083,-18.7793c25.02129,14.64977 33.42908,46.80953 18.7793,71.83083z" fill="url(#color-1)" stroke-width="0"/><path d="M135.99093,203.99987c-13.25476,22.63866 -42.35213,30.24582 -64.9908,16.99106c-22.63866,-13.25476 -30.24582,-42.35213 -16.99106,-64.9908c13.25476,-22.63866 42.35213,-30.24582 64.9908,-16.99106c22.63866,13.25476 30.24582,42.35213 16.99106,64.9908z" fill="url(#color-2)" stroke-width="0"/><text transform="translate(67.5,188.25) scale(0.6875,0.6875)" font-size="40" xml:space="preserve" fill="#00ccff" stroke-width="1" font-family="&quot;D-DIN-PRO-800-ExtraBold&quot;, Malgun Gothic" font-weight="normal" text-anchor="start"><tspan x="0" dy="0">中文</tspan></text></g></g></svg>