<svg version="1.1" xmlns="http://www.w3.org/2000/svg" xmlns:xlink="http://www.w3.org/1999/xlink" width="175.39711" height="98.10959" viewBox="0,0,175.39711,98.10959"><g transform="translate(-152.93554,-130.9452)"><g stroke="#000000" stroke-miterlimit="10"><path d="M156.50162,172.96152c5.25476,-4.73689 26.9396,-25.61488 36.39229,-34.73205c2.72921,-2.63233 8.11235,-4.28427 12.27275,-4.28427c13.10548,0 82.86495,0 109.66667,0c6.52125,0 10.49932,4.61146 10.49932,9.22146c0,9.99833 0,48.90736 0,69.66667c0,7.93744 -4.24436,13.22146 -11.16598,13.22146c-28.24942,0 -101.09476,0 -112,0c-2.6898,0 -6.89613,-2.26297 -10.11075,-5.78711c-10.02994,-10.99567 -31.27959,-34.26884 -36.12038,-39.39056c-1.41982,-1.50221 -2.14912,-5.468 0.56608,-7.9156z" fill="#ffffff" stroke-width="6" stroke-linecap="butt"/><path d="M244.08333,155.08333l49.83333,49.83333" fill="none" stroke-width="5" stroke-linecap="round"/><path d="M293.91667,155.08333l-49.83333,49.83333" fill="none" stroke-width="5" stroke-linecap="round"/></g></g></svg>