<svg version="1.1" xmlns="http://www.w3.org/2000/svg" xmlns:xlink="http://www.w3.org/1999/xlink" width="52.81191" height="51.93022" viewBox="0,0,52.81191,51.93022"><defs><linearGradient x1="217.00855" y1="178.62991" x2="301.18147" y2="178.62991" gradientUnits="userSpaceOnUse" id="color-1"><stop offset="0" stop-color="#fffcfc"/><stop offset="1" stop-color="#ffffff"/></linearGradient><radialGradient cx="240" cy="180" r="19.56235" gradientUnits="userSpaceOnUse" id="color-2"><stop offset="0" stop-color="#000000" stop-opacity="0"/><stop offset="1" stop-color="#000000"/></radialGradient><radialGradient cx="240" cy="180" r="15.89818" gradientUnits="userSpaceOnUse" id="color-3"><stop offset="0" stop-color="#000000" stop-opacity="0"/><stop offset="1" stop-color="#000000"/></radialGradient><radialGradient cx="240" cy="180" r="19.56235" gradientUnits="userSpaceOnUse" id="color-4"><stop offset="0" stop-color="#000000" stop-opacity="0"/><stop offset="1" stop-color="#000000"/></radialGradient><radialGradient cx="240" cy="180" r="15.89818" gradientUnits="userSpaceOnUse" id="color-5"><stop offset="0" stop-color="#000000" stop-opacity="0"/><stop offset="1" stop-color="#000000"/></radialGradient><radialGradient cx="240" cy="180" r="14.07427" gradientUnits="userSpaceOnUse" id="color-6"><stop offset="0" stop-color="#000000" stop-opacity="0"/><stop offset="1" stop-color="#000000"/></radialGradient><radialGradient cx="240" cy="180" r="19.56235" gradientUnits="userSpaceOnUse" id="color-7"><stop offset="0" stop-color="#000000" stop-opacity="0"/><stop offset="1" stop-color="#000000"/></radialGradient><radialGradient cx="240" cy="180" r="15.89818" gradientUnits="userSpaceOnUse" id="color-8"><stop offset="0" stop-color="#000000" stop-opacity="0"/><stop offset="1" stop-color="#000000"/></radialGradient><radialGradient cx="240" cy="180" r="19.56235" gradientUnits="userSpaceOnUse" id="color-9"><stop offset="0" stop-color="#000000" stop-opacity="0"/><stop offset="1" stop-color="#000000"/></radialGradient><radialGradient cx="240" cy="180" r="15.89818" gradientUnits="userSpaceOnUse" id="color-10"><stop offset="0" stop-color="#000000" stop-opacity="0"/><stop offset="1" stop-color="#000000"/></radialGradient></defs><g transform="translate(-213.59404,-154.03489)"><g stroke="none" stroke-miterlimit="10"><path d="M266.40596,197.36011c0,4.752 -3.854,8.605 -8.605,8.605h-35.60291c-4.752,0 -8.604,-3.854 -8.604,-8.605v-34.72122c0,-4.752 3.852,-8.604 8.604,-8.604h35.60191c4.754,0 8.605,3.852 8.605,8.604z" fill="#000000" stroke-width="1"/><path d="M262.99146,197.36061c0,2.862 -2.327,5.19 -5.191,5.19h-35.60191c-2.861,0 -5.19,-2.328 -5.19,-5.19v-34.72122c0,-2.862 2.329,-5.19 5.19,-5.19h35.60191c2.40858,0 4.43736,1.6472 5.02167,3.87335c0.11048,0.42093 0.16933,36.03787 0.16933,36.03787z" fill="url(#color-1)" stroke-width="1"/><path d="M229.89472,197.00299l14.80269,-36.21633l5.40787,2.21036l-14.80269,36.21633z" fill="url(#color-2)" stroke-width="0"/><path d="M220.83156,184.87742l36.07589,-15.14173l2.26098,5.3869l-36.07589,15.14173z" fill="url(#color-3)" stroke-width="0"/><path d="M222.99701,169.89472l36.21633,14.80269l-2.21036,5.40787l-36.21633,-14.80269z" fill="url(#color-4)" stroke-width="0"/><path d="M235.12258,160.83156l15.14173,36.07589l-5.38689,2.26098l-15.14173,-36.07589z" fill="url(#color-5)" stroke-width="0"/><path d="M225.92573,180c0,-7.773 6.30127,-14.07427 14.07427,-14.07427c7.773,0 14.07427,6.30127 14.07427,14.07427c0,7.773 -6.30127,14.07427 -14.07427,14.07427c-7.773,0 -14.07427,-6.30127 -14.07427,-14.07427z" fill="url(#color-6)" stroke-width="0"/><path d="M237.1254,199.56923l-0.09295,-39.12459l5.84214,-0.01388l0.09295,39.12459z" fill="url(#color-7)" stroke-width="0"/><path d="M224.12982,191.80489l27.59954,-27.73099l4.14083,4.1212l-27.59954,27.73099z" fill="url(#color-8)" stroke-width="0"/><path d="M220.43077,177.1254l39.12459,-0.09295l0.01388,5.84214l-39.12459,0.09295z" fill="url(#color-9)" stroke-width="0"/><path d="M228.1951,164.12982l27.73098,27.59954l-4.12119,4.14082l-27.73098,-27.59954z" fill="url(#color-10)" stroke-width="0"/></g></g></svg>