<svg version="1.1" xmlns="http://www.w3.org/2000/svg" xmlns:xlink="http://www.w3.org/1999/xlink" width="149.3283" height="326.43248" viewBox="0,0,149.3283,326.43248"><defs><linearGradient x1="167.83585" y1="293" x2="312.16415" y2="293" gradientUnits="userSpaceOnUse" id="color-1"><stop offset="0" stop-color="#53d1ff"/><stop offset="1" stop-color="#0ae2ff"/></linearGradient><linearGradient x1="177.23825" y1="61.99999" x2="302.76175" y2="61.99999" gradientUnits="userSpaceOnUse" id="color-2"><stop offset="0" stop-color="#57d6ff"/><stop offset="1" stop-color="#005bff"/></linearGradient><linearGradient x1="128.88646" y1="151.5" x2="336.11359" y2="151.5" gradientUnits="userSpaceOnUse" id="color-3"><stop offset="0" stop-color="#56d5ff"/><stop offset="1" stop-color="#98c3ff"/></linearGradient></defs><g transform="translate(-165.33585,-24.78376)"><g stroke-miterlimit="10"><path d="M312.16415,334.67234c0,7.75556 -6.28996,14.0439 -14.04389,14.0439l-116.24215,-0.3025c-7.75556,0 -14.04226,-6.28997 -14.04226,-14.0439v-83.04382c0,-7.75556 6.2867,-14.04226 14.04227,-14.04226l116.24052,0.3025c7.75882,0 14.04389,6.2867 14.04389,14.04227v83.04382z" fill="url(#color-1)" stroke="#19191b" stroke-width="5" stroke-linecap="butt"/><text transform="translate(198.25336,289.89845) scale(0.34824,0.34824)" font-size="40" xml:space="preserve" fill="#ffffff" stroke="#ffffff" stroke-width="2" stroke-linecap="butt" font-family="Sans Serif" font-weight="400" text-anchor="start"><tspan x="0" dy="0">bayo safe2.5</tspan></text><text transform="translate(189.99428,305.30438) scale(0.27781,0.27781)" font-size="40" xml:space="preserve" fill="#ffffff" stroke="#ffffff" stroke-width="2" stroke-linecap="butt" font-family="Sans Serif" font-weight="normal" text-anchor="start"><tspan x="0" dy="0">安全是我们最在行的</tspan></text><path d="M302.76175,103.67234c0,7.75556 -6.28996,14.0439 -14.04389,14.0439l-97.43735,-0.3025c-7.75556,0 -14.04226,-6.28997 -14.04226,-14.0439v-62.04383c0,-7.75556 6.28671,-14.04225 14.04227,-14.04225l97.43571,0.30249c7.75883,0 14.04389,6.28671 14.04389,14.04227v62.04382z" fill="url(#color-2)" stroke="#19191b" stroke-width="5" stroke-linecap="butt"/><path d="M219.45402,53.485c0,-11.34723 9.19875,-20.54598 20.54598,-20.54598c11.34723,0 20.54598,9.19875 20.54598,20.54598c0,11.34723 -9.19875,20.54599 -20.54598,20.54599c-11.34723,0 -20.54598,-9.19876 -20.54598,-20.54599z" fill="none" stroke="#ededff" stroke-width="3.5" stroke-linecap="butt"/><path d="M256.32676,42.36998c0,0 -6.86281,10.14134 -12.54817,13.21144c-5.91355,3.19332 -22.27552,5.59336 -22.27552,5.59336" fill="none" stroke="#ededff" stroke-width="3.5" stroke-linecap="round"/><path d="M242.19744,34.77096c0,0 5.77192,10.79954 5.83716,17.26055c0.06787,6.72033 -5.4375,21.81408 -5.4375,21.81408" fill="none" stroke="#ededff" stroke-width="3.5" stroke-linecap="round"/><path d="M255.48075,60.59817c-2.37937,5.11525 -10.00999,6.6098 -17.04347,3.33817c-7.03348,-3.27163 -10.80637,-10.07055 -8.427,-15.1858c2.37937,-5.11526 10.00999,-6.60981 17.04346,-3.33818c7.03348,3.27163 10.80638,10.07055 8.42701,15.1858z" fill="none" stroke="#ededff" stroke-width="3.5" stroke-linecap="butt"/><text transform="translate(206.07477,108.8959) scale(0.34824,0.34824)" font-size="40" xml:space="preserve" fill="#ffffff" stroke="#ffffff" stroke-width="2" stroke-linecap="butt" font-family="Sans Serif" font-weight="normal" text-anchor="start"><tspan x="0" dy="0">bayoTrack</tspan></text><text transform="translate(232.97955,97.288) scale(0.34824,0.34824)" font-size="40" xml:space="preserve" fill="#ffffff" stroke="#ffffff" stroke-width="2" stroke-linecap="butt" font-family="Sans Serif" font-weight="normal" text-anchor="start"><tspan x="0" dy="0">AI</tspan></text><path d="M310.11359,211.33332c0,11.13546 -9.03116,20.16428 -20.16428,20.16428l-99.90092,-0.43433c-11.13546,0 -20.16193,-9.03116 -20.16193,-20.16428v-62.23465c0,-11.13546 9.02647,-20.16193 20.16194,-20.16193l99.89858,0.43433c11.14014,0 20.16428,9.02647 20.16428,20.16194z" fill="url(#color-3)" stroke="#19191b" stroke-width="5" stroke-linecap="butt"/><text transform="translate(183.69002,185.25362) scale(0.4378,0.4378)" font-size="40" xml:space="preserve" fill="#ffffff" stroke="#ffffff" stroke-width="2" stroke-linecap="butt" font-family="Sans Serif" font-weight="400" text-anchor="start"><tspan x="0" dy="0">bayoOS NEXT</tspan></text><text transform="translate(220.19388,204.25362) scale(0.4378,0.4378)" font-size="40" xml:space="preserve" fill="#ffffff" stroke="#ffffff" stroke-width="2" stroke-linecap="butt" font-family="Sans Serif" font-weight="normal" text-anchor="start"><tspan x="0" dy="0">5.1.3</tspan></text></g></g></svg>