<svg version="1.1" xmlns="http://www.w3.org/2000/svg" xmlns:xlink="http://www.w3.org/1999/xlink" width="111.00494" height="111.00494" viewBox="0,0,111.00494,111.00494"><g transform="translate(-184.49753,-124.49753)"><g fill="none" stroke="#ededff" stroke-width="10" stroke-miterlimit="10"><path d="M189.49753,180c0,-27.89176 22.61072,-50.50247 50.50247,-50.50247c27.89176,0 50.50247,22.61072 50.50247,50.50247c0,27.89176 -22.61072,50.50247 -50.50247,50.50247c-27.89176,0 -50.50247,-22.61072 -50.50247,-50.50247z" stroke-linecap="butt"/><path d="M280.13152,152.67902c0,0 -16.86894,24.92761 -30.84369,32.47397c-14.53563,7.84924 -54.75371,13.74861 -54.75371,13.74861" stroke-linecap="round"/><path d="M245.40134,134.00045c0,0 14.18749,26.5455 14.34787,42.4268c0.16684,16.51872 -13.36547,53.2336 -13.36547,53.2336" stroke-linecap="round"/><path d="M278.05201,197.48429c-5.84854,12.57339 -24.60478,16.24704 -41.89319,8.20528c-17.28841,-8.04173 -26.56229,-24.75363 -20.71374,-37.32702c5.84854,-12.57339 24.60478,-16.24704 41.89319,-8.20528c17.28841,8.04173 26.56229,24.75363 20.71374,37.32702z" stroke-linecap="butt"/></g></g></svg>