<svg version="1.1" xmlns="http://www.w3.org/2000/svg" xmlns:xlink="http://www.w3.org/1999/xlink" width="107.45661" height="107.45661" viewBox="0,0,107.45661,107.45661"><g transform="translate(-186.27169,-126.27169)"><g fill="none" stroke-width="5" stroke-miterlimit="10"><path d="M285.05945,180c0,5.92515 -20.17381,10.72844 -45.05945,10.72844c-24.88565,0 -45.05945,-4.80329 -45.05945,-10.72844c0,-5.92515 20.1738,-10.72844 45.05945,-10.72844c24.88565,0 45.05945,4.80329 45.05945,10.72844z" stroke="#ffffff"/><path d="M271.86185,211.86185c-4.18971,4.18972 -21.85119,-6.67888 -39.448,-24.27569c-17.59681,-17.59681 -28.46541,-35.25828 -24.27569,-39.448c4.18972,-4.18972 21.85119,6.67888 39.448,24.27569c17.59681,17.59681 28.46541,35.25828 24.27569,39.448z" stroke="#ffffff"/><path d="M240,225.05945c-5.92515,0 -10.72844,-20.1738 -10.72844,-45.05945c0,-24.88565 4.80329,-45.05945 10.72844,-45.05945c5.92515,0 10.72844,20.1738 10.72844,45.05945c0,24.88565 -4.80329,45.05945 -10.72844,45.05945z" stroke="#ffffff"/><path d="M208.13816,211.86185c-4.18972,-4.18972 6.67888,-21.85119 24.27569,-39.448c17.59681,-17.59681 35.25829,-28.46541 39.448,-24.27569c4.18971,4.18972 -6.67888,21.85119 -24.27569,39.448c-17.59681,17.59681 -35.25828,28.46541 -39.448,24.27569z" stroke="#ffffff"/><path d="M188.7717,180c0,-28.29261 22.9357,-51.22831 51.22831,-51.22831c28.29261,0 51.2283,22.9357 51.2283,51.22831c0,28.29261 -22.93569,51.22831 -51.2283,51.22831c-28.29261,0 -51.22831,-22.9357 -51.22831,-51.22831z" stroke="#000000"/><path d="M226.58945,180c0,-7.40644 6.00411,-13.41055 13.41055,-13.41055c7.40644,0 13.41055,6.00411 13.41055,13.41055c0,7.40644 -6.00411,13.41055 -13.41055,13.41055c-7.40644,0 -13.41055,-6.00411 -13.41055,-13.41055z" stroke="#000000"/></g></g></svg>