<svg version="1.1" xmlns="http://www.w3.org/2000/svg" xmlns:xlink="http://www.w3.org/1999/xlink" width="180.22712" height="224.2178" viewBox="0,0,180.22712,224.2178"><g transform="translate(-149.88644,-43.8911)"><g stroke-miterlimit="10"><path d="M327.61356,250.06552c0,8.19044 -6.64266,14.83139 -14.83138,14.83139l-145.56608,-0.31946c-8.19044,0 -14.82966,-6.64267 -14.82966,-14.83139v-188.5253c0,-8.19044 6.63922,-14.82966 14.82966,-14.82966l145.56436,0.31946c8.19389,0 14.83138,6.63922 14.83138,14.82966v188.52529z" fill="#00b3ff" stroke="#19191b" stroke-width="5"/><path d="M327.61356,250.77751c0,8.19044 -6.64266,14.83139 -14.83138,14.83139l-145.56608,-0.31946c-8.19044,0 -14.82966,-6.64267 -14.82966,-14.83139v-7.94927c0,-8.19044 6.63922,-14.82966 14.82966,-14.82966l145.56436,0.31946c8.19389,0 14.83138,6.63922 14.83138,14.82966v7.94927z" fill="#2ec0ff" stroke="#19191b" stroke-width="5"/><text transform="translate(262.9782,255.10619) scale(0.2855,0.2855)" font-size="40" xml:space="preserve" fill="#ffffff" stroke="#ffffff" stroke-width="2" font-family="Sans Serif" font-weight="normal" text-anchor="start"><tspan x="0" dy="0">bayoTrack</tspan></text><text transform="translate(285.03535,245.58978) scale(0.2855,0.2855)" font-size="40" xml:space="preserve" fill="#ffffff" stroke="#ffffff" stroke-width="2" font-family="Sans Serif" font-weight="normal" text-anchor="start"><tspan x="0" dy="0">AI</tspan></text><path d="M251.79567,247.05275c0,1.55109 -5.2811,2.80849 -11.79567,2.80849c-6.51457,0 -11.79567,-1.25741 -11.79567,-2.80849c0,-1.55109 5.2811,-2.80849 11.79567,-2.80849c6.51457,0 11.79567,1.2574 11.79567,2.80849z" fill="none" stroke="#ffffff" stroke-width="1.5"/><path d="M248.3408,255.39355c-1.09679,1.09679 -5.72021,-1.7484 -10.32671,-6.35489c-4.60649,-4.60649 -7.45168,-9.22992 -6.35489,-10.32671c1.09679,-1.09679 5.72021,1.7484 10.32671,6.35489c4.60649,4.60649 7.45168,9.22992 6.35489,10.32671z" fill="none" stroke="#ffffff" stroke-width="1.5"/><path d="M240,258.84842c-1.55109,0 -2.80849,-5.2811 -2.80849,-11.79567c0,-6.51457 1.2574,-11.79567 2.80849,-11.79567c1.55109,0 2.80849,5.2811 2.80849,11.79567c0,6.51457 -1.25741,11.79567 -2.80849,11.79567z" fill="none" stroke="#ffffff" stroke-width="1.5"/><path d="M231.6592,255.39355c-1.09679,-1.09679 1.7484,-5.72021 6.35489,-10.32671c4.60649,-4.60649 9.22992,-7.45168 10.32671,-6.35489c1.09679,1.09679 -1.7484,5.72021 -6.35489,10.32671c-4.60649,4.60649 -9.22992,7.45168 -10.32671,6.35489z" fill="none" stroke="#ffffff" stroke-width="1.5"/><path d="M226.58945,247.05275c0,-7.40644 6.00411,-13.41055 13.41055,-13.41055c7.40644,0 13.41055,6.00411 13.41055,13.41055c0,7.40644 -6.00411,13.41055 -13.41055,13.41055c-7.40644,0 -13.41055,-6.00411 -13.41055,-13.41055z" fill="none" stroke="#000000" stroke-width="1.5"/><path d="M236.48939,247.05275c0,-1.93886 1.57175,-3.51062 3.51062,-3.51062c1.93886,0 3.51062,1.57175 3.51062,3.51062c0,1.93886 -1.57175,3.51062 -3.51062,3.51062c-1.93886,0 -3.51062,-1.57175 -3.51062,-3.51062z" fill="none" stroke="#000000" stroke-width="1.5"/></g></g></svg>