<svg version="1.1" xmlns="http://www.w3.org/2000/svg" xmlns:xlink="http://www.w3.org/1999/xlink" width="168.61662" height="338.46179" viewBox="0,0,168.61662,338.46179"><defs><linearGradient x1="222.75715" y1="319.39508" x2="313.75715" y2="319.39508" gradientUnits="userSpaceOnUse" id="color-1"><stop offset="0.012" stop-color="#a7a9ac"/><stop offset="1" stop-color="#414042"/></linearGradient></defs><g transform="translate(-155.69169,-10.7691)"><g stroke-miterlimit="10"><path d="M321.80831,338.1259c0,4.752 -3.854,8.605 -8.605,8.605h-146.40762c-4.752,0 -8.604,-3.854 -8.604,-8.605v-316.25279c0,-4.752 3.852,-8.604 8.604,-8.604h146.40662c4.754,0 8.605,3.852 8.605,8.604z" fill="url(#color-1)" stroke="#000000" stroke-width="5"/><path d="M318.39331,21.87308v316.25179c0,2.862 -2.327,5.19 -5.191,5.19h-146.40662c-2.861,0 -5.19,-2.328 -5.19,-5.19v-316.25279c0,-2.862 2.329,-5.19 5.19,-5.19h146.40662c2.864,0 5.191,2.329 5.191,5.191z" fill="#fcfeff" stroke="none" stroke-width="1"/><path d="M266.73038,47.19596c0,-8.69685 7.05019,-15.74704 15.74704,-15.74704c8.69685,0 15.74704,7.05019 15.74704,15.74704c0,8.69685 -7.05019,15.74704 -15.74704,15.74704c-8.69685,0 -15.74704,-7.05019 -15.74704,-15.74704z" fill="#000000" stroke="#000000" stroke-width="5"/><path d="M282.10569,63.17735c0,4.70197 -3.81342,8.51442 -8.51442,8.51442h-99.18353c-4.70197,0 -8.51342,-3.81342 -8.51342,-8.51442v-34.3557c0,-4.70197 3.81145,-8.51342 8.51342,-8.51342h99.18255c4.70395,0 8.51442,3.81145 8.51442,8.51342z" fill="#000000" stroke="#000000" stroke-width="5"/><path d="M171.36961,68.43931v-44.87863h105.26078v44.87863z" fill="#42ff00" stroke="none" stroke-width="0"/></g></g></svg>