<svg version="1.1" xmlns="http://www.w3.org/2000/svg" xmlns:xlink="http://www.w3.org/1999/xlink" width="80.9866" height="77.60159" viewBox="0,0,80.9866,77.60159"><defs><radialGradient cx="239.74095" cy="180.25817" r="37.65252" gradientUnits="userSpaceOnUse" id="color-1"><stop offset="0" stop-color="#000000" stop-opacity="0"/><stop offset="1" stop-color="#000000" stop-opacity="0.21176"/></radialGradient><linearGradient x1="240.08858" y1="141.19939" x2="240.08858" y2="226.3928" gradientUnits="userSpaceOnUse" id="color-2"><stop offset="0" stop-color="#ffbd00"/><stop offset="1" stop-color="#000000"/></linearGradient><linearGradient x1="240.66345" y1="151.72278" x2="240.66345" y2="219.8575" gradientUnits="userSpaceOnUse" id="color-3"><stop offset="0" stop-color="#ffffff"/><stop offset="1" stop-color="#000000"/></linearGradient><linearGradient x1="237.09298" y1="156.94789" x2="237.09298" y2="201.54911" gradientUnits="userSpaceOnUse" id="color-4"><stop offset="0" stop-color="#ffffff"/><stop offset="1" stop-color="#000000" stop-opacity="0.33725"/></linearGradient><linearGradient x1="241.16345" y1="154.72278" x2="241.16345" y2="222.8575" gradientUnits="userSpaceOnUse" id="color-5"><stop offset="0" stop-color="#ffffff"/><stop offset="1" stop-color="#000000"/></linearGradient><linearGradient x1="240.77775" y1="158.72278" x2="240.77775" y2="231.03833" gradientUnits="userSpaceOnUse" id="color-6"><stop offset="0" stop-color="#ffffff"/><stop offset="1" stop-color="#000000"/></linearGradient></defs><g transform="translate(-199.5067,-141.19921)"><g data-paper-data="{&quot;isPaintingLayer&quot;:true}" fill-rule="nonzero" stroke-linecap="butt" stroke-linejoin="miter" stroke-miterlimit="10" stroke-dasharray="" stroke-dashoffset="0" style="mix-blend-mode: normal"><path d="M278.56342,209.98419c0,4.86188 -6.7339,8.81661 -9.93776,8.81661l-59.18723,-0.7964c-3.2005,0 -8.82375,-7.56915 -8.82375,-12.43103l-1.10798,-51.42679c0,-4.86188 2.60538,-12.94738 5.80588,-12.94738c0,0 13.29583,0 17.1825,0c0.99254,0 11.18666,7.49639 11.18666,7.49639h38.09054c2.6944,0 8.062,6.92897 8.71564,10.71069c0.12359,0.71507 -1.92451,50.5779 -1.92451,50.5779z" fill="url(#color-1)" stroke="none" stroke-width="1"/><path d="M268.81405,207.63496c0,3.45994 -2.81317,6.27432 -6.27553,6.27432h-49.60699c-3.45874,0 -6.27432,-2.81438 -6.27432,-6.27432l-2.5,-49.22892c0,-3.45994 2.81559,-6.27432 6.27432,-6.27432h52.10699c2.91179,0 5.36444,1.99134 6.07082,4.68259c0.13356,0.50887 0.20471,50.82065 0.20471,50.82065z" fill-opacity="0.41961" fill="#000000" stroke="none" stroke-width="1"/><path d="M273.07513,204.39484c0,4.63532 -2.48183,8.40577 -5.5364,8.40577l-54.90138,-0.75929c-3.05137,0 -5.53534,-3.77044 -5.53534,-8.40577l-3,-49.03039c0,-4.63532 2.48397,-8.40577 5.53534,-8.40577c0,0 10.21484,0 13.9204,0c0.94628,0 10.66539,7.14707 10.66539,7.14707h36.31559c2.56885,0 4.73261,2.66781 5.3558,6.27331c0.11783,0.68175 -2.8194,44.77507 -2.8194,44.77507z" fill="url(#color-2)" stroke="none" stroke-width="1"/><path d="M271.39454,181.79158c0,5.89432 -14.25832,10.67353 -19.05895,10.67353h-22.33384c-4.80165,0 -19.05794,-4.78045 -19.05794,-10.67353l-0.75088,-19.39652c0,-5.89432 3.89225,-10.67228 8.69389,-10.67228h43.55223c4.80367,0 8.6949,4.77796 8.6949,10.67228z" fill="url(#color-3)" stroke="#000000" stroke-width="0.5"/><path d="M263.83444,202.85911c0,2.862 -2.327,5.19 -5.191,5.19h-43.10191c-2.861,0 -5.19,-2.328 -5.19,-5.19v-40.72122c0,-2.862 2.329,-5.19 5.19,-5.19h43.10191c2.40858,0 4.43736,1.6472 5.02167,3.87335c0.11048,0.42093 0.16933,42.03787 0.16933,42.03787z" fill="url(#color-4)" stroke="none" stroke-width="1"/><path d="M271.89454,184.79158c0,5.89432 -14.25832,10.67353 -19.05895,10.67353h-22.33384c-4.80165,0 -19.05794,-4.78045 -19.05794,-10.67353l-0.75088,-19.39652c0,-5.89432 3.89224,-10.67228 8.69389,-10.67228h43.55223c4.80367,0 8.6949,4.77796 8.6949,10.67228z" fill="url(#color-5)" stroke="#000000" stroke-width="0.5"/><path d="M273.39454,190.63664c0,6.256 -15.13323,11.32847 -20.22844,11.32847h-23.70427c-5.09628,0 -20.22736,-5.07379 -20.22736,-11.32847l-0.79695,-20.58671c0,-6.256 4.13108,-11.32715 9.22736,-11.32715h46.22465c5.09843,0 9.22843,5.07115 9.22843,11.32715z" fill="url(#color-6)" stroke="#000000" stroke-width="0.5"/><path d="M273.07513,209.25065c0,2.50905 -2.48183,4.54996 -5.5364,4.54996l-54.90138,-0.41099c-3.05137,0 -5.53534,-2.04091 -5.53534,-4.54997l-3,-43.5903c0,-2.50905 2.48397,-4.54996 5.53534,-4.54996c0,0 10.21484,0 13.9204,0c0.94628,0 10.66539,6.57509 10.66539,6.57509h36.31559c2.56885,0 4.73261,1.44406 5.3558,3.39568c0.11783,0.36902 -2.8194,38.58049 -2.8194,38.58049z" fill="#ffbd00" stroke="none" stroke-width="1"/></g></g></svg>