<svg version="1.1" xmlns="http://www.w3.org/2000/svg" xmlns:xlink="http://www.w3.org/1999/xlink" width="29.61266" height="23.05954" viewBox="0,0,29.61266,23.05954"><defs><linearGradient x1="240.02888" y1="178.50723" x2="240.02888" y2="188.31544" gradientUnits="userSpaceOnUse" id="color-1"><stop offset="0" stop-color="#ffffff"/><stop offset="1" stop-color="#ffffff" stop-opacity="0"/></linearGradient><linearGradient x1="240.02888" y1="174.88544" x2="240.02888" y2="191.63254" gradientUnits="userSpaceOnUse" id="color-2"><stop offset="0" stop-color="#ffffff"/><stop offset="1" stop-color="#ffffff" stop-opacity="0"/></linearGradient><linearGradient x1="240.02888" y1="172.07766" x2="240.02888" y2="191.02833" gradientUnits="userSpaceOnUse" id="color-3"><stop offset="0" stop-color="#ffffff"/><stop offset="1" stop-color="#ffffff" stop-opacity="0"/></linearGradient></defs><g transform="translate(-225.22255,-169.823)"><g stroke-miterlimit="10"><path d="M232.90212,185.63399c0,-3.936 3.19076,-7.12676 7.12676,-7.12676c3.936,0 7.12676,3.19076 7.12676,7.12676c0,3.936 -3.19076,2.37676 -7.12676,2.37676c-3.936,0 -7.12676,1.55924 -7.12676,-2.37676z" fill="none" stroke="url(#color-1)" stroke-width="2.5" stroke-linecap="butt"/><path d="M229.28033,185.63399c0,-5.93626 4.81229,-10.74855 10.74855,-10.74855c5.93626,0 10.74855,4.81229 10.74855,10.74855c0,5.93626 -4.81229,5.99855 -10.74855,5.99855c-5.93626,0 -10.74855,-0.06229 -10.74855,-5.99855z" fill="none" stroke="url(#color-2)" stroke-width="2.5" stroke-linecap="butt"/><path d="M226.47255,185.63399c0,-7.48695 6.06938,-13.55633 13.55633,-13.55633c7.48695,0 13.55633,6.06938 13.55633,13.55633c0,7.48695 -5.87892,4.99707 -13.36587,4.99707c-7.48695,0 -13.74679,2.48988 -13.74679,-4.99707z" fill="none" stroke="url(#color-3)" stroke-width="2.5" stroke-linecap="butt"/><path d="M237.10807,185.63399c0,-1.61311 1.30769,-2.9208 2.9208,-2.9208c1.61311,0 2.9208,1.30769 2.9208,2.9208c0,1.61311 -1.30769,2.9208 -2.9208,2.9208c-1.61311,0 -2.9208,-1.30769 -2.9208,-2.9208z" fill="#ffffff" stroke="none" stroke-width="0" stroke-linecap="butt"/><path d="M231.76911,171.073l16.76075,16.76075" fill="none" stroke="#ff0000" stroke-width="2.5" stroke-linecap="round"/><path d="M248.52987,171.073l-16.76075,16.76075" fill="none" stroke="#ff0000" stroke-width="2.5" stroke-linecap="round"/></g></g></svg>