<svg version="1.1" xmlns="http://www.w3.org/2000/svg" xmlns:xlink="http://www.w3.org/1999/xlink" width="325.9004" height="128.96179" viewBox="0,0,325.9004,128.96179"><g transform="translate(-77.0498,-115.5191)"><g data-paper-data="{&quot;isPaintingLayer&quot;:true}" fill-rule="nonzero" stroke-linejoin="miter" stroke-miterlimit="10" stroke-dasharray="" stroke-dashoffset="0" style="mix-blend-mode: normal"><path d="M402.9502,235.87589c0,4.752 -3.854,8.605 -8.605,8.605h-308.6914c-4.752,0 -8.604,-3.854 -8.604,-8.605v-111.75279c0,-4.752 3.852,-8.604 8.604,-8.604h308.6904c4.754,0 8.605,3.852 8.605,8.604z" fill="#0066ff" stroke="none" stroke-width="1" stroke-linecap="butt"/><path d="M399.53522,124.12309v111.75179c0,2.862 -2.327,5.19 -5.191,5.19c0,0 -226.91876,0 -274.61097,0c-16.80098,0 -34.07943,0 -34.07943,0c-1.43926,0 -2.74388,-0.58915 -3.6851,-1.53905c-0.92976,-0.93834 -1.5049,-2.22871 -1.5049,-3.65095v-111.75279c0,-2.862 2.329,-5.19 5.19,-5.19h308.6904c2.864,0 5.191,2.329 5.191,5.191z" fill="#000000" stroke="none" stroke-width="1" stroke-linecap="butt"/><text transform="translate(173.09002,185.50001) scale(0.5,0.5)" font-size="40" xml:space="preserve" fill="#ffffff" fill-rule="nonzero" stroke="#ffffff" stroke-width="2" stroke-linecap="butt" stroke-linejoin="miter" stroke-miterlimit="10" stroke-dasharray="" stroke-dashoffset="0" font-family="Sans Serif" font-weight="normal" text-anchor="start" style="mix-blend-mode: normal"><tspan x="0" dy="0">bayoOS NEXT</tspan></text><path d="M299.73328,196.75001h-123.5" fill="none" stroke="#0035ff" stroke-width="5" stroke-linecap="round"/><path d="M176.23325,163.25h123.5" fill="none" stroke="#0035ff" stroke-width="5" stroke-linecap="round"/></g></g></svg>