<svg version="1.1" xmlns="http://www.w3.org/2000/svg" xmlns:xlink="http://www.w3.org/1999/xlink" width="52.81191" height="51.93022" viewBox="0,0,52.81191,51.93022"><defs><linearGradient x1="213.59405" y1="180" x2="266.40596" y2="180" gradientUnits="userSpaceOnUse" id="color-1"><stop offset="0" stop-color="#00a2fa"/><stop offset="1" stop-color="#2fa2f8"/></linearGradient></defs><g transform="translate(-213.59405,-154.03489)"><g stroke-miterlimit="10"><path d="M266.40596,197.36011c0,4.752 -3.854,8.605 -8.605,8.605h-35.60291c-4.752,0 -8.604,-3.854 -8.604,-8.605v-34.72122c0,-4.752 3.852,-8.604 8.604,-8.604h35.60191c4.754,0 8.605,3.852 8.605,8.604z" fill="url(#color-1)" stroke="none" stroke-width="1" stroke-linecap="butt"/><path d="M262.99098,197.35911c0,2.862 -2.327,5.19 -5.191,5.19h-35.60191c-2.861,0 -5.19,-2.328 -5.19,-5.19v-34.72122c0,-2.862 2.329,-5.19 5.19,-5.19h35.60191c2.40858,0 4.43736,1.6472 5.02167,3.87335c0.11048,0.42093 0.16933,36.03787 0.16933,36.03787z" fill="#fffcfc" stroke="none" stroke-width="1" stroke-linecap="butt"/><path d="M240.26661,196.72065l17.18831,-24.00339l-12.76478,-9.38142l-9.38029,-0.05649l-12.76478,9.38142z" fill="none" stroke="#10a2f9" stroke-width="2.5" stroke-linecap="round"/><path d="M232.8301,165.12907c0,0 8.12594,7.2646 8.87901,12.03406c0.8323,5.27124 -1.44355,16.99965 -1.44355,16.99965" fill="none" stroke="#10a2f9" stroke-width="2.5" stroke-linecap="round"/></g></g></svg>