<svg version="1.1" xmlns="http://www.w3.org/2000/svg" xmlns:xlink="http://www.w3.org/1999/xlink" width="27.26629" height="27.26629" viewBox="0,0,27.26629,27.26629"><defs><linearGradient x1="229.62606" y1="171.94737" x2="250.37392" y2="188.05264" gradientUnits="userSpaceOnUse" id="color-1"><stop offset="0" stop-color="#eaeaea"/><stop offset="1" stop-color="#737373"/></linearGradient><linearGradient x1="229.62606" y1="171.94737" x2="250.37392" y2="188.05264" gradientUnits="userSpaceOnUse" id="color-2"><stop offset="0" stop-color="#eaeaea"/><stop offset="1" stop-color="#737373"/></linearGradient></defs><g transform="translate(-226.36685,-166.36686)"><g stroke-miterlimit="10"><path d="M229.62606,171.94737c4.44734,-5.72937 12.6972,-6.76864 18.42657,-2.3213c5.72937,4.44735 6.76865,12.6972 2.3213,18.42657c-4.44735,5.72937 -12.6972,6.76864 -18.42657,2.3213c-5.72936,-4.44735 -6.76864,-12.6972 -2.3213,-18.42657z" fill="#ffffff" stroke="url(#color-1)" stroke-width="1"/><text transform="translate(233.03189,186.10916) scale(0.2773,0.2773)" font-size="40" xml:space="preserve" fill="#000000" stroke="#000000" stroke-width="5" font-family="Sans Serif" font-weight="normal" text-anchor="start"><tspan x="0" dy="0">Z</tspan></text><text transform="translate(240.6013,180.54604) scale(0.2773,0.2773)" font-size="40" xml:space="preserve" fill="#000000" stroke="#000000" stroke-width="5" font-family="Sans Serif" font-weight="normal" text-anchor="start"><tspan x="0" dy="0">Z</tspan></text><path d="M229.62606,171.94737c4.44734,-5.72937 12.6972,-6.76864 18.42657,-2.3213c5.72937,4.44735 6.76865,12.6972 2.3213,18.42657c-4.44735,5.72937 -12.6972,6.76864 -18.42657,2.3213c-5.72936,-4.44735 -6.76864,-12.6972 -2.3213,-18.42657z" fill-opacity="0.62745" fill="#000000" stroke="url(#color-2)" stroke-width="1"/></g></g></svg>