<svg version="1.1" xmlns="http://www.w3.org/2000/svg" xmlns:xlink="http://www.w3.org/1999/xlink" width="168.61662" height="338.46179" viewBox="0,0,168.61662,338.46179"><defs><linearGradient x1="222.75715" y1="319.39507" x2="313.75715" y2="319.39507" gradientUnits="userSpaceOnUse" id="color-1"><stop offset="0.012" stop-color="#a7a9ac"/><stop offset="1" stop-color="#414042"/></linearGradient><linearGradient x1="224.92891" y1="301.83806" x2="304.46733" y2="301.83806" gradientUnits="userSpaceOnUse" id="color-2"><stop offset="0.012" stop-color="#a7a9ac"/><stop offset="1" stop-color="#414042"/></linearGradient><linearGradient x1="173.61467" y1="234.191" x2="360.93603" y2="234.191" gradientUnits="userSpaceOnUse" id="color-3"><stop offset="0" stop-color="#0035ff" stop-opacity="0"/><stop offset="1" stop-color="#0035ff"/></linearGradient><linearGradient x1="173.61467" y1="234.191" x2="360.93603" y2="234.191" gradientUnits="userSpaceOnUse" id="color-4"><stop offset="0" stop-color="#00ddff"/><stop offset="1" stop-color="#0010bf"/></linearGradient><linearGradient x1="176.97888" y1="234.191" x2="357.57033" y2="234.191" gradientUnits="userSpaceOnUse" id="color-5"><stop offset="0" stop-color="#000fbd"/><stop offset="1" stop-color="#00aeff"/></linearGradient><linearGradient x1="215.22784" y1="138.18687" x2="261.99496" y2="138.18687" gradientTransform="translate(-416.39947,-281.20171) scale(1.93469,1.9481)" gradientUnits="userSpaceOnUse" id="color-6"><stop offset="0" stop-color="#0044ff"/><stop offset="1" stop-color="#00d4ff"/></linearGradient><linearGradient x1="215.22784" y1="138.18687" x2="261.99496" y2="138.18687" gradientTransform="translate(-416.39947,-281.20171) scale(1.93469,1.9481)" gradientUnits="userSpaceOnUse" id="color-7"><stop offset="0" stop-color="#003aff"/><stop offset="1" stop-color="#00e6ff"/></linearGradient></defs><g transform="translate(-155.69169,-10.76911)"><g stroke-miterlimit="10"><path d="M321.80831,338.12589c0,4.752 -3.854,8.605 -8.605,8.605h-146.40762c-4.752,0 -8.604,-3.854 -8.604,-8.605v-316.25279c0,-4.752 3.852,-8.604 8.604,-8.604h146.40662c4.754,0 8.605,3.852 8.605,8.604z" fill="url(#color-1)" stroke="#000000" stroke-width="5" stroke-linecap="butt"/><path d="M318.39331,21.87308v316.25179c0,2.862 -2.327,5.19 -5.191,5.19h-146.40662c-2.861,0 -5.19,-2.328 -5.19,-5.19v-316.25279c0,-2.862 2.329,-5.19 5.19,-5.19h146.40662c2.864,0 5.191,2.329 5.191,5.191z" fill="#fcfeff" stroke="none" stroke-width="1" stroke-linecap="butt"/><path d="M311.50443,318.20971c0,4.15348 -3.36858,7.52119 -7.52119,7.52119h-127.96737c-4.15348,0 -7.52031,-3.36858 -7.52031,-7.52119v-276.42029c0,-4.15348 3.36683,-7.52031 7.52031,-7.52031h127.96649c4.15523,0 7.52119,3.36683 7.52119,7.52031z" fill="url(#color-2)" stroke="#0066ff" stroke-width="5" stroke-linecap="butt"/><path d="M308.51956,41.78939v276.41941c0,2.50153 -2.03391,4.53631 -4.53719,4.53631h-127.96649c-2.50065,0 -4.53631,-2.03478 -4.53631,-4.53631v-276.42029c0,-2.50153 2.03566,-4.53631 4.53631,-4.53631h127.96649c2.50328,0 4.53719,2.03566 4.53719,4.53719z" fill="#000000" stroke="none" stroke-width="1" stroke-linecap="butt"/><path d="M296.67082,234.19064c0,10.77264 -8.76473,19.53662 -19.53662,19.53662h-74.26915c-10.7719,0 -19.53588,-8.76323 -19.53588,-19.53662c0,-10.7719 8.76323,-19.53588 19.53588,-19.53588h74.26915c10.7719,0 19.53662,8.76398 19.53662,19.53588z" fill="url(#color-3)" stroke="url(#color-4)" stroke-width="5" stroke-linecap="butt"/><path d="M293.30512,234.19064c0,8.93137 -7.23955,16.17167 -16.17092,16.17167h-74.26915c-8.93137,0 -16.17167,-7.2403 -16.17167,-16.17167v0c0,-8.93062 7.2403,-16.17092 16.17167,-16.17092h74.26915c8.93137,0 16.14059,7.2403 16.14059,16.17092z" fill="#ffffff" stroke="url(#color-5)" stroke-width="5" stroke-linecap="butt"/><text transform="translate(215.22745,144.34645) scale(0.51688,0.51332)" font-size="40" xml:space="preserve" fill="url(#color-6)" stroke="url(#color-7)" stroke-width="3" stroke-linecap="butt" font-family="Sans Serif" font-weight="normal" text-anchor="start"><tspan x="0" dy="0">5.1.3</tspan></text><text transform="translate(181.8387,92.50935) scale(0.43702,0.43702)" font-size="40" xml:space="preserve" fill="#ffffff" stroke="#ffffff" stroke-width="2" stroke-linecap="butt" font-family="Sans Serif" font-weight="normal" text-anchor="start"><tspan x="0" dy="0">bayoOS NEXT</tspan></text><path d="M184.14905,102.3424h107.94499" fill="none" stroke="#0035ff" stroke-width="5" stroke-linecap="round"/><path d="M184.14902,73.06177h107.94499" fill="none" stroke="#0035ff" stroke-width="5" stroke-linecap="round"/></g></g></svg>