<svg version="1.1" xmlns="http://www.w3.org/2000/svg" xmlns:xlink="http://www.w3.org/1999/xlink" width="433.87044" height="120.45013" viewBox="0,0,433.87044,120.45013"><defs><linearGradient x1="167.23505" y1="119.77494" x2="167.23505" y2="240.22506" gradientUnits="userSpaceOnUse" id="color-1"><stop offset="0" stop-color="#e5e5e5"/><stop offset="1" stop-color="#ffffff"/></linearGradient></defs><g transform="translate(-23.06478,-119.77493)"><g stroke-miterlimit="10"><path d="M456.93522,179.99885c0,33.2092 -27.01934,60.22622 -60.22622,60.22622h-313.42031c-33.20689,0 -60.22391,-27.01473 -60.22391,-60.22622c0,-33.20689 27.01473,-60.22391 60.22391,-60.22391h313.42031c33.20689,0 60.22622,27.01702 60.22622,60.22391z" fill="url(#color-1)" stroke="none" stroke-width="1"/><path d="M445.80261,178.84704c0,27.53305 -21.16579,51.00477 -48.69883,51.00477h-313.42031c-27.53305,0 -49.85295,-22.31991 -49.85295,-49.85295v0c0,-27.53074 22.31991,-49.85066 49.85295,-49.85066h313.42031c27.53305,0 49.06569,22.31991 49.06569,49.85066z" fill-opacity="0.36471" fill="#229be6" stroke-opacity="0.53333" stroke="#ffffff" stroke-width="5"/><path d="M86,180c0,-18.77768 15.22232,-34 34,-34c18.77768,0 34,15.22232 34,34c0,18.77768 -15.22232,34 -34,34c-18.77768,0 -34,-15.22232 -34,-34z" fill="#ffffff" stroke="#000000" stroke-width="6"/><path d="M166,180c0,-18.77768 15.22232,-34 34,-34c18.77768,0 34,15.22232 34,34c0,18.77768 -15.22232,34 -34,34c-18.77768,0 -34,-15.22232 -34,-34z" fill="#ffffff" stroke="#000000" stroke-width="6"/><path d="M246,180c0,-18.77768 15.22232,-34 34,-34c18.77768,0 34,15.22232 34,34c0,18.77768 -15.22232,34 -34,34c-18.77768,0 -34,-15.22232 -34,-34z" fill="#ffffff" stroke="#000000" stroke-width="6"/><path d="M326,180c0,-18.77768 15.22232,-34 34,-34c18.77768,0 34,15.22232 34,34c0,18.77768 -15.22232,34 -34,34c-18.77768,0 -34,-15.22232 -34,-34z" fill="#ffffff" stroke="#000000" stroke-width="6"/></g></g></svg>