<svg version="1.1" xmlns="http://www.w3.org/2000/svg" xmlns:xlink="http://www.w3.org/1999/xlink" width="104.8211" height="104.82112" viewBox="0,0,104.8211,104.82112"><g transform="translate(-187.58945,-127.58944)"><g fill="none" stroke-width="5" stroke-miterlimit="10"><path d="M283.90039,179.99999c0,5.77275 -19.65489,10.45248 -43.90039,10.45248c-24.2455,0 -43.90039,-4.67973 -43.90039,-10.45248c0,-5.77275 19.65489,-10.45246 43.90039,-10.45246c24.2455,0 43.90039,4.67971 43.90039,10.45246z" stroke="#ffffff"/><path d="M271.04227,211.04226c-4.08195,4.08195 -21.28912,-6.50707 -38.43329,-23.65123c-17.14417,-17.14417 -27.7332,-34.35134 -23.65125,-38.43329c4.08195,-4.08195 21.28912,6.50707 38.43329,23.65123c17.14417,17.14417 27.7332,34.35134 23.65125,38.43329z" stroke="#ffffff"/><path d="M240,223.90038c-5.77275,0 -10.45246,-19.65489 -10.45246,-43.90039c0,-24.2455 4.67971,-43.90037 10.45246,-43.90037c5.77275,0 10.45248,19.65487 10.45248,43.90037c0,24.2455 -4.67973,43.90039 -10.45248,43.90039z" stroke="#ffffff"/><path d="M208.95773,211.04226c-4.08195,-4.08195 6.50709,-21.28912 23.65125,-38.43329c17.14417,-17.14417 34.35134,-27.73318 38.43329,-23.65123c4.08195,4.08195 -6.50709,21.28912 -23.65125,38.43329c-17.14417,17.14417 -34.35134,27.73318 -38.43329,23.65123z" stroke="#ffffff"/><path d="M190.08945,179.99999c0,-27.56485 22.3457,-49.91055 49.91055,-49.91055c27.56485,0 49.91055,22.3457 49.91055,49.91055c0,27.56485 -22.3457,49.91057 -49.91055,49.91057c-27.56485,0 -49.91055,-22.34572 -49.91055,-49.91057z" stroke="#000000"/><path d="M226.93441,179.99999c0,-7.21593 5.84966,-13.06559 13.06559,-13.06559c7.21593,0 13.06559,5.84966 13.06559,13.06559c0,7.21593 -5.84966,13.06559 -13.06559,13.06559c-7.21593,0 -13.06559,-5.84966 -13.06559,-13.06559z" stroke="#000000"/></g></g></svg>