<svg version="1.1" xmlns="http://www.w3.org/2000/svg" xmlns:xlink="http://www.w3.org/1999/xlink" width="280.72896" height="458.99519" viewBox="0,0,280.72896,458.99519"><g transform="translate(45.36448,49.99758)"><g stroke-miterlimit="10"><path d="M-6.31762,379.00001v-152c0,0 -0.37873,15.21394 28.17457,15.09572c78.31715,-0.32426 85.5036,0 143.39664,0c24.2931,0 31.06428,-15.09572 31.06428,-15.09572v152z" fill-opacity="0.71373" fill="#ffffff" stroke="none" stroke-width="0"/><path d="M210.36448,333.3257c0,28.53514 -23.14277,50.67191 -51.67191,50.67191l-127.39114,-0.113c-28.53514,0 -51.66591,-23.14277 -51.66591,-51.67191v-305.54437c0,-28.53514 23.13076,-51.66591 51.66591,-51.66591l127.38513,0.113c28.54715,0 51.67191,24.13076 51.67191,52.66591c0,0 0,44.66881 0,77.21868c0,55.97133 0,228.32569 0,228.32569z" fill="none" stroke="#19191b" stroke-width="50"/></g></g></svg>