<svg version="1.1" xmlns="http://www.w3.org/2000/svg" xmlns:xlink="http://www.w3.org/1999/xlink" width="52.81191" height="51.93022" viewBox="0,0,52.81191,51.93022"><defs><linearGradient x1="213.59406" y1="180" x2="266.40596" y2="180" gradientUnits="userSpaceOnUse" id="color-1"><stop offset="0" stop-color="#5fd4fa"/><stop offset="1" stop-color="#50daff"/></linearGradient><linearGradient x1="217.00857" y1="178.62991" x2="301.18147" y2="178.62991" gradientUnits="userSpaceOnUse" id="color-2"><stop offset="0" stop-color="#d1d2d3"/><stop offset="1" stop-color="#a4a5a8"/></linearGradient></defs><g transform="translate(-213.59405,-154.03489)"><g stroke-miterlimit="10"><path d="M266.40596,197.36011c0,4.752 -3.854,8.605 -8.605,8.605h-35.60291c-4.752,0 -8.604,-3.854 -8.604,-8.605v-34.72122c0,-4.752 3.852,-8.604 8.604,-8.604h35.60191c4.754,0 8.605,3.852 8.605,8.604z" fill="url(#color-1)" stroke="none" stroke-width="1"/><path d="M262.99145,197.36061c0,2.862 -2.327,5.19 -5.191,5.19h-35.60191c-2.861,0 -5.19,-2.328 -5.19,-5.19v-34.72122c0,-2.862 2.329,-5.19 5.19,-5.19h35.60191c2.40858,0 4.43736,1.6472 5.02167,3.87335c0.11048,0.42093 0.16933,36.03787 0.16933,36.03787z" fill="url(#color-2)" stroke="none" stroke-width="1"/><path d="M262.99145,197.36061c0,2.862 -2.327,5.19 -5.191,5.19h-35.60191c-2.861,0 -5.19,-2.328 -5.19,-5.19v-34.72122c0,-2.862 2.329,-5.19 5.19,-5.19h35.60191c2.40858,0 4.43736,1.6472 5.02167,3.87335c0.11048,0.42093 0.16933,36.03787 0.16933,36.03787z" fill="#00ffea" stroke="#000000" stroke-width="0"/><text transform="translate(223.43899,184.05675) scale(0.35161,0.35161)" font-size="40" xml:space="preserve" fill="#ffffff" stroke="#ffffff" stroke-width="2" font-family="Sans Serif" font-weight="normal" text-anchor="start"><tspan x="0" dy="0">hello</tspan></text></g></g></svg>