<svg version="1.1" xmlns="http://www.w3.org/2000/svg" xmlns:xlink="http://www.w3.org/1999/xlink" width="52.81191" height="51.93022" viewBox="0,0,52.81191,51.93022"><g transform="translate(-213.59405,-154.03489)"><g stroke-miterlimit="10"><path d="M266.40596,197.36011c0,4.752 -3.854,8.605 -8.605,8.605h-35.60291c-4.752,0 -8.604,-3.854 -8.604,-8.605v-34.72122c0,-4.752 3.852,-8.604 8.604,-8.604h35.60191c4.754,0 8.605,3.852 8.605,8.604z" fill="#007af5" stroke="none" stroke-width="1" stroke-linecap="butt"/><path d="M262.991,197.35911c0,2.862 -2.327,5.19 -5.191,5.19h-35.60191c-2.861,0 -5.19,-2.328 -5.19,-5.19v-34.72122c0,-2.862 2.329,-5.19 5.19,-5.19h35.60191c2.40858,0 4.43736,1.6472 5.02167,3.87335c0.11048,0.42093 0.16933,36.03787 0.16933,36.03787z" fill="#fcfeff" stroke="none" stroke-width="1" stroke-linecap="butt"/><path d="M234.4695,190.99216c0,0 -8.9815,-5.19454 -3.82966,-15.42755c5.51951,-10.96328 15.0098,-6.47238 15.0098,-6.47238" fill="none" stroke="#00c1ff" stroke-width="1.5" stroke-linecap="round"/><path d="M246.15816,169.33035c0,0 8.72916,5.60825 3.10514,15.58953c-6.02539,10.6936 -15.29565,5.76448 -15.29565,5.76448" fill="none" stroke="#00c1ff" stroke-width="1.5" stroke-linecap="round"/><path d="M226.56239,178.79059c0,0 -1.68658,-7.78694 7.22752,-6.2347c8.32032,1.44884 10.60488,9.24138 10.60488,9.24138" fill="none" stroke="#00c1ff" stroke-width="1.5" stroke-linecap="round"/><path d="M253.48586,181.48845c0,0 1.38558,7.87416 -7.45916,5.81777c-8.25559,-1.91942 -10.23827,-9.83309 -10.23827,-9.83309" fill="none" stroke="#00c1ff" stroke-width="1.5" stroke-linecap="round"/><path d="M221.85393,180c0,-10.0218 8.12427,-18.14607 18.14607,-18.14607c10.0218,0 18.14607,8.12427 18.14607,18.14607c0,10.0218 -8.12427,18.14607 -18.14607,18.14607c-10.0218,0 -18.14607,-8.12427 -18.14607,-18.14607z" fill="none" stroke="#00c1ff" stroke-width="1.5" stroke-linecap="butt"/></g></g></svg>